<svg xmlns="http://www.w3.org/2000/svg" viewBox="0 0 1024 1024" width="1024" height="1024"><style>tspan { white-space:pre }.shp0 { fill: #080708 } .shp1 { fill: #f4f3f4 } </style><g ><path class="shp0" d="M482.92 222.45C482.69 222.7 478.9 223.37 474.5 223.94C470.1 224.51 464.48 225.4 462 225.9C459.52 226.41 454.13 227.71 450 228.8C445.88 229.89 440.25 231.53 437.5 232.44C434.75 233.35 431.6 234.48 430.5 234.95C429.4 235.42 426.93 236.37 425 237.07C423.07 237.77 416.1 241.11 409.5 244.48C402.9 247.86 394.57 252.58 391 254.98C387.43 257.38 381.13 261.82 377 264.85C372.88 267.88 363.2 276.72 355.5 284.5C347.8 292.28 340.12 300.42 338.43 302.57C336.75 304.73 333.54 309.2 331.31 312.5C329.08 315.8 326.06 320.52 324.6 323C323.14 325.48 319.59 332.23 316.72 338C313.85 343.77 310.77 350.3 309.88 352.5C308.99 354.7 307.71 358.07 307.03 360C306.35 361.93 305.44 364.4 305.01 365.5C304.58 366.6 303.72 369.3 303.1 371.5C302.48 373.7 301.13 379.32 300.09 384C299.05 388.68 297.59 395.88 296.85 400C295.98 404.85 295.51 415.44 295.53 430C295.54 448.9 295.89 454.34 297.73 464C298.93 470.32 300.65 478.2 301.54 481.5C302.44 484.8 303.55 488.85 304 490.5C304.46 492.15 305.27 494.85 305.8 496.5C306.33 498.15 307.54 501.52 308.49 504C309.44 506.48 312.69 513.67 315.72 520C318.74 526.33 322.52 533.41 324.11 535.75C325.7 538.09 327 540.23 327 540.5C327 540.77 328.43 543.14 330.18 545.75C331.94 548.36 333.62 550.73 333.94 551C334.25 551.27 336.53 554.18 339 557.46C341.48 560.74 344.18 564.16 345 565.06C345.82 565.96 349.43 569.74 353 573.48C356.57 577.21 362.65 583.03 366.5 586.41C370.35 589.78 376.2 594.61 379.5 597.13C382.8 599.66 388.65 603.66 392.5 606.01C396.35 608.37 400.85 611.06 402.5 611.99C404.15 612.92 406.4 614.16 407.5 614.75C408.6 615.34 411.98 616.96 415 618.35C418.02 619.74 425.23 622.72 431 624.96C436.77 627.21 446.9 630.35 453.5 631.94C460.1 633.54 468.88 635.43 473 636.14C477.81 636.97 489.28 637.43 505 637.41C520.96 637.39 531.94 636.92 536.5 636.06C540.35 635.33 549.13 633.4 556 631.75C562.88 630.11 569.85 628.18 571.5 627.46C573.15 626.75 577.2 625.15 580.5 623.91C583.8 622.67 589.42 620.37 593 618.81C596.58 617.24 600.85 615.23 602.5 614.34C604.15 613.44 608.88 610.73 613 608.3C617.13 605.87 624.77 600.74 630 596.9C635.23 593.05 645.06 584.42 651.85 577.71C658.63 570.99 666.76 562.13 669.91 558C673.05 553.88 677.45 547.8 679.68 544.5C681.92 541.2 684.78 536.7 686.03 534.5C687.29 532.3 689.96 527.35 691.96 523.5C693.97 519.65 696.98 513.13 698.67 509C700.36 504.88 702.87 498.13 704.25 494C705.64 489.88 707.39 484.37 708.14 481.77C708.89 479.17 709.17 476.69 708.76 476.27C708.35 475.85 708.46 475.05 709 474.5C709.54 473.95 710.45 470.57 711.02 467C711.59 463.43 712.49 456.9 713.02 452.5C713.55 448.1 714.28 440.68 714.64 436C715.01 431.24 714.77 422.45 714.1 416C713.44 409.68 712.45 401.57 711.9 398C711.35 394.43 710.44 389.48 709.88 387C709.32 384.52 708.38 380.48 707.8 378C707.22 375.52 705.64 370.13 704.29 366C702.95 361.88 700.44 355.13 698.73 351C697.01 346.88 693.97 340.35 691.96 336.5C689.96 332.65 687.29 327.7 686.03 325.5C684.77 323.3 683.01 320.38 682.13 319C681.25 317.63 678.13 313.13 675.19 309C672.26 304.88 667.75 299.03 665.18 296.01C662.61 292.98 658.48 288.32 656 285.63C653.52 282.95 647.45 277.3 642.5 273.08C637.55 268.86 631.03 263.63 628.02 261.45C625.01 259.28 619.83 255.82 616.52 253.76C613.21 251.7 604.2 246.89 596.5 243.07C588.8 239.25 578.45 234.81 573.5 233.2C568.55 231.6 562.7 229.81 560.5 229.22C558.3 228.64 554.7 227.71 552.5 227.16C550.3 226.6 546.02 225.69 543 225.14C539.98 224.58 534.58 223.65 531 223.07C527.42 222.49 515.24 222.02 503.92 222.01C492.6 222 483.15 222.2 482.92 222.45Z" /><path class="shp1" d="M494 250.75C494 251.16 492.2 251.33 490.01 251.13C487.82 250.92 482.76 251.28 478.77 251.92C474.77 252.56 469.59 253.51 467.25 254.04C464.91 254.57 460.86 255.5 458.25 256.11C455.64 256.72 448.55 259.04 442.5 261.27C436.45 263.5 426.77 267.78 421 270.78C415.23 273.77 406.9 278.73 402.5 281.78C398.1 284.84 391.35 289.91 387.5 293.06C383.65 296.21 377.56 301.87 373.97 305.64C370.38 309.41 365.61 314.75 363.37 317.5C361.13 320.25 357.32 325.42 354.9 328.99C352.48 332.55 349.72 336.83 348.76 338.49C347.81 340.14 345.05 345.55 342.63 350.5C340.22 355.45 337.48 361.3 336.54 363.5C335.6 365.7 334.42 368.29 333.92 369.25C333.41 370.21 333 371.9 333 373C333 374.1 332.66 375.17 332.25 375.38C331.84 375.59 331.19 377.05 330.81 378.63C330.43 380.21 329.64 383.52 329.06 386C328.47 388.48 327.53 392.75 326.96 395.5C326.4 398.25 325.34 407.02 324.61 415C323.5 427.06 323.5 431.94 324.61 444C325.34 451.98 326.2 460.07 326.53 462C326.85 463.93 328.02 469.32 329.12 474C330.22 478.68 331.54 483.29 332.06 484.25C332.58 485.21 333 486.68 333 487.5C333 488.32 333.41 489.79 333.92 490.75C334.42 491.71 335.6 494.3 336.54 496.5C337.47 498.7 340.06 504.32 342.28 509C344.51 513.67 349.01 521.55 352.28 526.5C355.55 531.45 361.28 539.33 365.01 544C368.74 548.67 374.65 555.2 378.15 558.5C381.64 561.8 386.92 566.52 389.87 569C392.82 571.48 395.75 573.68 396.37 573.9C396.99 574.12 397.73 574.64 398 575.06C398.27 575.48 402.55 578.36 407.5 581.46C412.45 584.56 420.1 588.83 424.5 590.94C428.9 593.06 434.07 595.48 436 596.34C437.93 597.19 442.43 598.85 446 600.02C449.57 601.2 455.88 603.04 460 604.12C464.13 605.21 468.06 605.85 468.75 605.55C469.44 605.25 470.17 605.34 470.38 605.75C470.58 606.16 472.49 606.91 474.63 607.42C476.76 607.92 478.95 608.24 479.5 608.11C480.05 607.99 483.88 608.41 488 609.04C492.13 609.67 499.77 610.19 505 610.19C510.23 610.19 518.1 609.68 522.5 609.05C526.9 608.42 533.2 607.42 536.5 606.83C539.8 606.24 545.65 604.95 549.5 603.96C553.35 602.96 559.42 601.2 563 600.02C566.58 598.85 570.96 597.24 572.75 596.45C574.54 595.65 577.69 594.28 579.75 593.4C581.81 592.52 585.75 590.67 588.5 589.29C591.25 587.9 598 583.84 603.5 580.25C609 576.67 616.88 570.92 621 567.49C625.13 564.06 631.88 557.7 636 553.37C640.13 549.04 646.03 542.12 649.13 538C652.23 533.87 656.98 526.9 659.69 522.5C662.4 518.1 665.78 512.02 667.2 509C668.62 505.98 670.48 501.93 671.34 500C672.19 498.07 674.44 492 676.34 486.5C678.23 481 680.71 471.77 681.84 466C682.97 460.23 684.37 451.68 684.95 447C685.53 442.32 686 434.34 686 429.25C686 424.16 685.54 416.74 684.97 412.75C684.41 408.76 683.47 402.57 682.88 399C682.3 395.43 680.9 388.9 679.77 384.5C678.64 380.1 676.61 373.57 675.25 370C673.89 366.43 672.11 361.93 671.28 360C670.46 358.07 668.6 354.02 667.16 351C665.72 347.98 663.18 343.24 661.52 340.48C659.86 337.72 656.52 332.55 654.1 328.98C651.68 325.42 647.9 320.25 645.7 317.5C643.5 314.75 636.93 307.77 631.09 302C625.26 296.23 616.73 288.8 612.14 285.5C607.55 282.2 603.05 279.05 602.15 278.5C601.24 277.95 600.27 277.27 600 277C599.73 276.73 596.35 274.93 592.5 273C588.65 271.07 585.27 269.26 585 268.96C584.73 268.66 581.58 267.13 578 265.55C574.42 263.98 568.35 261.59 564.5 260.25C560.65 258.91 555.92 257.37 554 256.83C552.08 256.29 548.48 255.41 546 254.88C543.52 254.35 539.02 253.47 536 252.93C532.98 252.38 526.23 251.52 521 251C515.77 250.49 507.56 250.06 502.75 250.04C497.94 250.02 494 250.34 494 250.75Z" /><path class="shp0" d="M436 318.75C435.99 319.16 443.98 327.46 453.75 337.2L471.5 354.89C523.17 355.5 523.55 355.54 527.72 358C530.04 359.38 533.42 361.89 535.22 363.59C537.02 365.29 539.63 368.86 541 371.52C543.07 375.52 543.5 377.78 543.5 384.5C543.5 391.23 543.07 393.48 541 397.47C539.63 400.12 536.48 404.04 534 406.18C531.52 408.32 527.48 410.82 525 411.74C521.45 413.07 515.55 413.53 497 413.96L473.5 414.5L472.94 541.5C500.11 568.24 508.45 576 509 576C509.66 576 509.99 554.76 509.98 514.25C509.97 467.08 510.25 452.2 511.18 451.25C511.92 450.49 515.08 450 519.2 450C522.94 450 528.36 449.37 531.25 448.61C534.14 447.84 538.52 446.41 541 445.43C543.48 444.44 548.62 441.58 552.44 439.07C556.26 436.56 561.66 431.91 564.44 428.74C567.22 425.57 571.08 420.39 573.01 417.24C574.94 414.08 577.62 408.13 578.96 404C581 397.75 581.4 394.5 581.4 384.5C581.4 374.66 580.98 371.15 579.04 365C577.72 360.82 574.38 353.95 571.5 349.5C568.66 345.1 564.58 339.81 562.42 337.74C560.26 335.68 557.15 332.85 555.5 331.45C553.85 330.06 548.9 327.12 544.5 324.92C540.1 322.73 533.8 320.29 530.5 319.5C525.78 318.38 515.04 318.06 480.25 318.04C455.91 318.02 436 318.34 436 318.75ZM90 744.5L90 873L127 873C127 774.92 127.27 762.9 128.25 762.52C128.94 762.25 141.2 761.86 155.5 761.65C169.96 761.44 184.39 760.72 188 760.04C191.57 759.37 197.2 758.12 200.5 757.26C203.8 756.39 210.1 754.04 214.5 752.04C218.9 750.03 223.63 747.51 225 746.45C226.38 745.39 230.43 741.54 234 737.89C237.57 734.25 241.92 728.62 243.64 725.38C245.37 722.15 247.68 716.8 248.78 713.5C249.87 710.2 251.34 703.23 252.04 698C253.07 690.43 253.08 686.67 252.11 679.5C251.45 674.55 250.41 668.92 249.81 667C249.21 665.08 248.4 662.6 248 661.5C247.6 660.4 246.66 658.15 245.91 656.5C245.16 654.85 242.9 651.02 240.87 648C238.84 644.98 235.01 640.42 232.34 637.87C229.68 635.32 225.25 631.7 222.5 629.82C219.75 627.94 215.47 625.46 213 624.31C210.53 623.17 206.03 621.47 203 620.56C199.97 619.64 193.68 618.25 189 617.46C182.52 616.37 169.74 616.03 135.25 616.02L90 616L90 744.5ZM912 638.26L895.52 654.52L896 873L929 873C929 678.48 928.88 622 928.74 622C928.59 622 921.06 629.32 912 638.26Z" /><path class="shp1" d="M127.58 649.58C127.05 650.02 126.74 666.82 126.83 689.67L127 729C166.36 729 179.02 728.54 181.75 727.92C184.36 727.32 187.4 726.48 188.5 726.04C189.6 725.61 192.69 724.18 195.37 722.88C198.06 721.57 202.08 718.48 204.32 716C206.56 713.52 209.49 709.02 210.83 706C212.59 702.01 213.39 698.04 213.75 691.5C214.1 685.05 213.78 680.73 212.62 676.25C211.73 672.81 209.65 667.98 208 665.5C206.35 663.02 203.54 659.9 201.75 658.56C199.96 657.22 196.7 655.37 194.5 654.44C192.3 653.52 188.25 652.08 185.5 651.26C181.82 650.15 173.61 649.63 154.5 649.3C140.2 649.04 128.09 649.17 127.58 649.58Z" /><path class="shp0" d="M619.8 675.75C616.76 678.91 602.94 692.52 589.09 706C574.61 720.09 563.93 731.24 563.95 732.25C564 733.82 565.46 734.03 578.25 734.25L592.5 734.5C593.5 816.27 594.14 836.23 594.86 839.25C595.49 841.86 597.46 847.01 599.25 850.68C601.42 855.15 604.22 858.88 607.67 861.93C610.52 864.44 615.47 867.8 618.67 869.38C621.88 870.97 625.4 872.6 626.5 873.02C627.6 873.43 630.3 874.3 632.5 874.95C635.05 875.71 641.03 875.98 649 875.7C655.88 875.46 663.52 874.8 666 874.23C668.48 873.67 671.85 872.76 673.5 872.23C675.15 871.69 678.87 870.18 681.77 868.87C684.67 867.57 687.03 866.16 687.02 865.75C687.01 865.34 687.67 865 688.5 865C689.77 865 690 862.67 690 850C690 841.75 689.66 834.8 689.25 834.55C688.84 834.31 687.15 834.91 685.5 835.9C683.85 836.89 678 839.4 672.5 841.49C663.48 844.9 661.52 845.28 652.5 845.36C643.07 845.45 642.22 845.29 637.67 842.48C635.01 840.84 632.31 838.26 631.67 836.75C631.03 835.23 630.16 834 629.75 834C629.34 834 628.7 832.54 628.33 830.75C627.96 828.96 627.62 806.58 627.58 781L627.5 734.5C667.02 734.04 679.06 733.71 679.75 733.46C680.67 733.12 681 729.19 681 718.5L681 704L627 704C627 677.65 626.63 670 626.17 670C625.71 670 622.85 672.59 619.8 675.75ZM312.5 701.6C310.3 701.82 306.7 702.51 304.5 703.12C302.3 703.73 299.15 704.68 297.5 705.22C295.85 705.77 291.63 707.63 288.12 709.36C284.6 711.08 279.09 714.86 275.87 717.75L270 723C270 750.9 270.23 759 270.5 759C270.77 759 273.18 756.86 275.85 754.25C278.52 751.64 284.49 746.96 289.1 743.86C293.72 740.76 300.43 737.24 304 736.03C307.57 734.82 311.18 733.49 312 733.07C312.82 732.66 318 732.37 323.5 732.44C332.47 732.55 334.12 732.87 339.5 735.55C343.78 737.69 346.37 739.83 348.54 743.02C350.21 745.49 352.15 750.2 352.86 753.5C353.56 756.8 354 762.2 353.82 765.5L353.5 771.5C337.23 777.08 327.55 780.36 321.5 782.39C315.45 784.42 309.38 786.57 308 787.17C306.63 787.77 304.38 788.71 303 789.25C301.63 789.79 299.6 790.71 298.5 791.29C297.4 791.87 294.75 793.28 292.61 794.42C290.47 795.57 285.75 799.26 282.11 802.64C278.47 806.01 274.05 811.19 272.27 814.14C270.49 817.09 268.35 822.09 267.52 825.25C266.68 828.41 266 832.8 266 835C266 837.2 266.51 841.14 267.14 843.75C267.76 846.36 269.22 850.52 270.37 853C271.53 855.48 275.18 860.22 278.49 863.55C281.79 866.88 286.64 870.59 289.25 871.8C291.86 873.01 294.9 874 296 874C297.1 874 298.23 874.45 298.5 875C298.78 875.57 303.33 876 309 876C314.67 876 319.22 875.57 319.5 875C319.77 874.45 321.01 873.99 322.25 873.99C323.49 873.98 327.2 873.01 330.5 871.84C333.8 870.66 338.98 868.39 342 866.78C345.02 865.18 348.18 863.11 349 862.19C349.82 861.26 351.18 860.39 352 860.26C352.87 860.12 354.09 861.39 354.89 863.26C355.66 865.04 357.23 867.56 358.39 868.85C359.55 870.15 362.75 872.3 365.5 873.63C369.77 875.7 371.82 876.03 379.5 875.9C384.45 875.81 389.18 875.43 390 875.04C390.82 874.66 395.06 872.58 399.41 870.43C403.77 868.27 408.38 865.71 409.66 864.75C411.83 863.13 412 862.29 412 853.5C412 848.27 411.89 843.99 411.75 843.98C411.61 843.97 407.9 845.81 403.5 848.07C397.3 851.25 394.82 852.03 392.5 851.55C390.85 851.21 389.05 850.48 388.5 849.92C387.87 849.28 387.3 828.9 386.95 795.2C386.42 743.04 386.35 741.34 384.23 736C383.03 732.98 380.57 728.04 378.77 725.04C376.91 721.92 372.92 717.5 369.5 714.77C366.2 712.12 362.04 709.29 360.25 708.48C358.46 707.67 355.54 706.39 353.75 705.65C351.96 704.91 348.93 703.79 347 703.17C345.07 702.54 337.43 701.84 330 701.61C322.57 701.38 314.7 701.38 312.5 701.6ZM481.79 701.56C481.49 701.87 479.28 702.13 476.87 702.14C474.47 702.14 469.8 703.09 466.5 704.24C463.2 705.39 458.02 707.77 455 709.54C451.98 711.3 447.48 714.96 445 717.67C442.52 720.37 439.55 724.59 438.39 727.04C437.23 729.49 435.68 734.42 434.95 738C433.86 743.36 433.86 745.73 434.94 751.5C435.65 755.35 437.63 761.2 439.33 764.5C441.14 768.01 445.34 773.4 449.46 777.5C453.33 781.35 461 787.47 466.5 791.11C472 794.74 480.33 799.87 485 802.51C489.67 805.15 496.42 809.21 500 811.53C503.58 813.85 507.83 817.27 509.45 819.13C512.05 822.11 512.4 823.26 512.45 829.07C512.5 835.07 512.24 835.91 509.5 838.65C507.85 840.31 505.38 842.28 504 843.05C502.63 843.81 499.92 845.01 498 845.71C496.08 846.4 491.35 846.97 487.5 846.97C482.08 846.97 478.13 846.16 470 843.38C464.23 841.41 459.05 839.46 458.5 839.05C457.95 838.64 456.6 838.02 455.5 837.65C453.91 837.13 451.51 838.98 443.73 846.75C437.97 852.5 433.95 857.32 433.93 858.5C433.92 859.6 434.49 860.99 435.21 861.58C435.92 862.17 438.98 863.68 442 864.93C445.02 866.18 448.85 867.81 450.5 868.54C452.15 869.27 455.75 870.6 458.5 871.51C461.25 872.41 465.52 873.63 468 874.21C470.48 874.8 479.81 875.44 488.75 875.64C499.16 875.87 505 875.64 505 875C505 874.45 506.01 874.01 507.25 874.02C508.49 874.04 512.65 872.87 516.5 871.43C520.35 869.98 525.75 867.32 528.5 865.5C531.25 863.68 535.46 860.02 537.85 857.35C540.25 854.68 543.29 850.14 544.6 847.25C545.92 844.36 547.53 839.19 548.17 835.75C549.09 830.87 549.07 827.96 548.09 822.5C547.39 818.65 545.4 812.8 543.66 809.5C541.92 806.18 537.14 800.07 533 795.84C528.6 791.35 521.36 785.52 515.5 781.73C510 778.19 503.02 773.95 500 772.31C496.98 770.67 493.38 768.7 492 767.92C490.63 767.14 489.27 766.25 489 765.95C488.73 765.65 486.48 764.23 484 762.8C481.52 761.37 478.37 759.14 476.98 757.85C475.6 756.56 473.46 754.04 472.23 752.25C470.84 750.22 470 747.5 470 745C470 742.67 470.83 739.75 472 738C473.1 736.35 475.91 733.99 478.25 732.75C481.81 730.86 484.04 730.5 492 730.53C499.85 730.55 503.02 731.07 510.27 733.53L519.04 736.5C537.84 717.59 539.68 715.24 538.71 714.2C538.05 713.48 533.79 711.34 529.25 709.45C524.71 707.55 520.1 706 519 706C517.9 706 516.66 705.44 516.25 704.75C515.84 704.06 514.15 703.43 512.5 703.33C510.85 703.24 506.13 702.7 502 702.13C497.88 701.56 491.76 701.07 488.42 701.04C485.07 701.02 482.09 701.25 481.79 701.56ZM770.5 701.99C767.2 702.44 763.15 703.14 761.5 703.53C759.85 703.92 754.67 706.02 750 708.19C745.33 710.36 739.02 714.24 736 716.82C732.98 719.39 729.58 722.4 728.46 723.5C727.34 724.6 724.59 727.98 722.34 731C720.09 734.02 717.14 738.52 715.78 741C714.42 743.48 712.4 748.2 711.29 751.5C710.18 754.8 708.78 759.3 708.19 761.5C707.6 763.7 706.59 768.88 705.94 773C705.23 777.53 705 784.86 705.36 791.5C705.69 797.55 706.38 804.75 706.9 807.5C707.41 810.25 708.3 814.3 708.87 816.5C709.44 818.7 710.38 820.61 710.96 820.75C711.53 820.89 711.77 821.56 711.48 822.25C711.19 822.94 712.44 826.42 714.25 830C716.05 833.58 719.38 839.2 721.65 842.5C723.91 845.8 728.4 851.07 731.63 854.2C734.86 857.34 739.41 861.28 741.75 862.95C744.09 864.63 747.91 866.89 750.25 867.97C752.59 869.06 756.52 870.67 759 871.56C761.48 872.44 765.98 873.65 769 874.24C772.02 874.83 781.48 875.33 790 875.34C798.52 875.36 808.2 874.86 811.5 874.25C814.8 873.63 819.3 872.7 821.5 872.18C823.7 871.66 828.65 870.03 832.5 868.55C836.35 867.07 842.42 864.25 846 862.29C849.58 860.33 853.3 858 854.28 857.11C855.84 855.7 856.06 853.63 856.06 840.5C856.06 832.25 855.71 825.18 855.28 824.79C854.85 824.39 852.7 825.36 850.5 826.93C848.3 828.5 842.9 831.6 838.5 833.81C834.1 836.02 828.48 838.5 826 839.33C823.52 840.15 817.45 841.54 812.5 842.41C807.55 843.28 799.45 843.99 794.5 843.98C788.8 843.97 782.56 843.23 777.5 841.94C773.1 840.83 767.7 838.86 765.5 837.55C763.3 836.25 760.15 834.05 758.5 832.65C756.85 831.25 755.16 830.31 754.75 830.55C754.34 830.8 753.55 830.44 753.01 829.75C752.46 829.06 752.22 828.27 752.47 828C752.72 827.73 751.75 826.15 750.33 824.5C748.9 822.85 746.45 818.8 744.88 815.5C743.31 812.2 741.34 806.01 740.51 801.75C739.68 797.49 739.23 793.55 739.5 793C739.82 792.35 760.67 792 799 792L858 792C858.03 774.56 857.63 768.15 857.14 766.5C856.65 764.85 855.71 761.02 855.05 758C854.39 754.98 852.9 750.02 851.74 747C850.58 743.98 848.59 739.81 847.32 737.75C846.04 735.69 845 733.77 845 733.5C845 733.23 843.05 730.41 840.66 727.25C838.27 724.09 833.43 719.09 829.91 716.14C826.38 713.19 821.48 709.88 819 708.79C816.52 707.69 813.15 706.23 811.5 705.55C809.85 704.87 806.92 703.79 805 703.16C803.08 702.53 795.88 701.82 789 701.59C782.13 701.36 773.8 701.54 770.5 701.99Z" /><path class="shp1" d="M774 731.03C771.52 731.55 766.8 733.3 763.5 734.92C760.2 736.53 755.65 739.8 753.39 742.18C751.13 744.55 747.91 749.2 746.24 752.5C744.57 755.8 742.37 761.08 741.35 764.24C740.13 768.02 739.84 770.29 740.5 770.87C741.08 771.39 759.12 771.5 783.25 771.13L825.01 770.5C824.01 762.75 822.82 758.02 821.72 755C820.61 751.98 818.42 747.59 816.85 745.25C815.28 742.91 811.86 739.44 809.25 737.53C806.64 735.62 802.48 733.35 800 732.48C797.52 731.61 791.67 730.71 787 730.49C782.33 730.27 776.48 730.51 774 731.03ZM350 790.97C349.18 791.44 343.1 793.94 336.5 796.54C329.9 799.13 321.8 802.65 318.5 804.37C315.2 806.08 310.23 809.73 307.44 812.49C303.69 816.21 302.04 818.79 301.04 822.5C300.3 825.25 299.94 829.52 300.24 832C300.53 834.48 301.55 838.08 302.5 840C303.45 841.92 305.41 844.75 306.86 846.27C308.31 847.8 310.06 849.03 310.75 849.02C311.44 849.01 312.23 849.56 312.51 850.25C312.79 850.94 314.26 851.58 315.76 851.67C317.27 851.76 318.62 852.21 318.76 852.67C318.9 853.13 322.05 853.11 325.76 852.64C329.47 852.17 333.49 851.72 334.69 851.64C335.9 851.56 337.45 850.94 338.14 850.25C338.83 849.56 339.87 848.98 340.45 848.96C341.03 848.94 344.31 846.92 347.75 844.46L354 840C354 795.64 353.72 790.01 352.75 790.06C352.06 790.09 350.82 790.5 350 790.97Z" /></g></svg>