<svg width="12" height="12" viewBox="0 0 12 12" fill="none" xmlns="http://www.w3.org/2000/svg">
<path d="M11.7452 11.7452C11.4056 12.0849 10.8568 12.0849 10.5171 11.7452L5.99999 7.22809L1.48284 11.7452C1.14316 12.0849 0.594436 12.0849 0.254751 11.7452C0.0916566 11.5825 0 11.3616 0 11.1312C0 10.9008 0.0916566 10.6799 0.254751 10.5171L4.7719 6L0.254751 1.48285C0.0916565 1.32012 0 1.0992 0 0.868808C0 0.638417 0.0916565 0.417491 0.254751 0.254763C0.594436 -0.084921 1.14316 -0.084921 1.48284 0.254763L5.99999 4.77191L10.5171 0.254763C10.8568 -0.0849211 11.4056 -0.0849211 11.7452 0.254763C12.0849 0.594447 12.0849 1.14317 11.7452 1.48285L7.22809 6L11.7452 10.5171C12.0762 10.8481 12.0762 11.4056 11.7452 11.7452Z" fill="#FE634C"/>
</svg>
