<svg width="20" height="20" viewBox="0 0 20 20" fill="none" xmlns="http://www.w3.org/2000/svg">
<path d="M9.78125 0.4375C4.63208 0.4375 0.4375 4.63208 0.4375 9.78125C0.4375 14.9304 4.63208 19.125 9.78125 19.125C14.9304 19.125 19.125 14.9304 19.125 9.78125C19.125 4.63208 14.9304 0.4375 9.78125 0.4375ZM9.78125 1.875C14.1555 1.875 17.6875 5.40698 17.6875 9.78125C17.6875 14.1555 14.1555 17.6875 9.78125 17.6875C5.40698 17.6875 1.875 14.1555 1.875 9.78125C1.875 5.40698 5.40698 1.875 9.78125 1.875ZM9.86548 4.75C8.12476 4.85108 6.7041 6.31104 6.7041 8.08545H8.1416C8.1416 6.91748 9.15234 6.0022 10.3877 6.21558C11.2693 6.36719 11.9656 7.23193 11.9375 8.1416C11.915 8.93897 11.449 9.44434 10.7639 9.74756C10.3372 9.93848 9.93286 10.1182 9.59033 10.4775C9.2478 10.8369 9.0625 11.3704 9.0625 11.9375H10.5C10.5 11.6118 10.5449 11.5613 10.6348 11.4658C10.719 11.376 10.9548 11.2356 11.3423 11.0615C12.4148 10.5955 13.3357 9.56787 13.375 8.18652C13.4255 6.55249 12.252 5.07568 10.6292 4.79492C10.3708 4.75561 10.1125 4.73877 9.86548 4.75ZM9.0625 13.375V14.8125H10.5V13.375H9.0625Z" fill="#334D6E"/>
</svg>
