<svg width="6" height="6" viewBox="0 0 6 6" fill="none" xmlns="http://www.w3.org/2000/svg">
<path fill-rule="evenodd" clip-rule="evenodd" d="M4.89333 0.149589C5.08686 -0.0473933 5.40343 -0.0501945 5.60041 0.143332C5.79739 0.336859 5.80019 0.653429 5.60667 0.850411L3.57593 2.91741L5.60667 4.9844C5.80019 5.18138 5.79739 5.49795 5.60041 5.69148C5.40343 5.88501 5.08686 5.8822 4.89333 5.68522L2.875 3.63085L0.856668 5.68522C0.663141 5.8822 0.346571 5.88501 0.149589 5.69148C-0.0473932 5.49795 -0.0501946 5.18138 0.143332 4.9844L2.17407 2.91741L0.143332 0.850411C-0.0501944 0.653429 -0.0473932 0.336859 0.149589 0.143332C0.346571 -0.0501945 0.663141 -0.0473933 0.856668 0.149589L2.875 2.20396L4.89333 0.149589Z" fill="#8E98A3"/>
</svg>
