<svg width="22" height="22" viewBox="0 0 22 22" fill="none" xmlns="http://www.w3.org/2000/svg">
  <path fill-rule="evenodd" clip-rule="evenodd"
    d="M10.2643 15.1163V1.625C10.2643 1.27982 10.5546 1 10.9127 1C11.2707 1 11.561 1.27982 11.561 1.625V15.1163L15.6402 11.1825C15.8937 10.9381 16.3047 10.9381 16.5582 11.1825C16.8118 11.4269 16.8118 11.8231 16.5582 12.0675L11.3717 17.0675C11.25 17.1851 11.0849 17.2511 10.9127 17.2511C10.7404 17.2511 10.5753 17.1851 10.4537 17.0675L5.26709 12.0675C5.01358 11.8231 5.01358 11.4269 5.26709 11.1825C5.52059 10.9381 5.9316 10.9381 6.18511 11.1825L10.2643 15.1163ZM1.83582 21C1.47776 21 1.1875 20.7202 1.1875 20.375C1.1875 20.0298 1.47776 19.75 1.83582 19.75H19.9888C20.3469 19.75 20.6371 20.0298 20.6371 20.375C20.6371 20.7202 20.3469 21 19.9888 21H1.83582Z"
    fill="#3F9AF7" />
  <path
    d="M10.2643 15.1163L9.98668 15.4042L10.6643 16.0577V15.1163H10.2643ZM11.561 15.1163H11.161V16.0577L11.8386 15.4042L11.561 15.1163ZM15.6402 11.1825L15.3626 10.8945L15.3626 10.8946L15.6402 11.1825ZM16.5582 12.0675L16.8359 12.3555L16.5582 12.0675ZM11.3717 17.0675L11.0941 16.7795L11.0937 16.7799L11.3717 17.0675ZM10.4537 17.0675L10.7316 16.7799L10.7313 16.7795L10.4537 17.0675ZM5.26709 12.0675L4.98947 12.3555L5.26709 12.0675ZM6.18511 11.1825L6.46277 10.8946L6.46272 10.8945L6.18511 11.1825ZM10.6643 15.1163V1.625H9.86435V15.1163H10.6643ZM10.6643 1.625C10.6643 1.51442 10.7616 1.4 10.9127 1.4V0.6C10.3476 0.6 9.86435 1.04522 9.86435 1.625H10.6643ZM10.9127 1.4C11.0637 1.4 11.161 1.51442 11.161 1.625H11.961C11.961 1.04522 11.4777 0.6 10.9127 0.6V1.4ZM11.161 1.625V15.1163H11.961V1.625H11.161ZM11.8386 15.4042L15.9179 11.4704L15.3626 10.8946L11.2833 14.8283L11.8386 15.4042ZM15.9178 11.4705C16.0164 11.3755 16.1821 11.3755 16.2806 11.4705L16.8359 10.8945C16.4274 10.5008 15.7711 10.5008 15.3626 10.8945L15.9178 11.4705ZM16.2806 11.4705C16.371 11.5576 16.371 11.6925 16.2806 11.7795L16.8359 12.3555C17.2525 11.9538 17.2525 11.2962 16.8359 10.8945L16.2806 11.4705ZM16.2806 11.7795L11.0941 16.7795L11.6493 17.3555L16.8359 12.3555L16.2806 11.7795ZM11.0937 16.7799C11.0482 16.8239 10.9833 16.8511 10.9127 16.8511V17.6511C11.1865 17.6511 11.4519 17.5462 11.6497 17.3551L11.0937 16.7799ZM10.9127 16.8511C10.8421 16.8511 10.7772 16.8239 10.7316 16.7799L10.1757 17.3551C10.3734 17.5462 10.6388 17.6511 10.9127 17.6511V16.8511ZM10.7313 16.7795L5.5447 11.7795L4.98947 12.3555L10.176 17.3555L10.7313 16.7795ZM5.5447 11.7795C5.45437 11.6925 5.45437 11.5576 5.5447 11.4705L4.98947 10.8945C4.57279 11.2962 4.57279 11.9538 4.98947 12.3555L5.5447 11.7795ZM5.5447 11.4705C5.64327 11.3755 5.80893 11.3755 5.90749 11.4705L6.46272 10.8945C6.05428 10.5008 5.39791 10.5008 4.98947 10.8945L5.5447 11.4705ZM5.90745 11.4704L9.98668 15.4042L10.542 14.8283L6.46277 10.8946L5.90745 11.4704ZM1.83582 20.6C1.68474 20.6 1.5875 20.4856 1.5875 20.375H0.7875C0.7875 20.9548 1.27079 21.4 1.83582 21.4V20.6ZM1.5875 20.375C1.5875 20.2644 1.68474 20.15 1.83582 20.15V19.35C1.27079 19.35 0.7875 19.7952 0.7875 20.375H1.5875ZM1.83582 20.15H19.9888V19.35H1.83582V20.15ZM19.9888 20.15C20.1399 20.15 20.2371 20.2644 20.2371 20.375H21.0371C21.0371 19.7952 20.5538 19.35 19.9888 19.35V20.15ZM20.2371 20.375C20.2371 20.4856 20.1399 20.6 19.9888 20.6V21.4C20.5538 21.4 21.0371 20.9548 21.0371 20.375H20.2371ZM19.9888 20.6H1.83582V21.4H19.9888V20.6Z"
    fill="#3F9AF7" />
</svg>