<svg width="28" height="21" viewBox="0 0 28 21" fill="none" xmlns="http://www.w3.org/2000/svg">
  <path fill-rule="evenodd" clip-rule="evenodd"
    d="M14.5196 12.7676C15.1897 13.3983 15.7237 14.1461 16.0916 14.9694C16.4544 15.7783 16.6474 16.6351 16.6669 17.5159C16.668 17.5556 16.652 17.5941 16.6226 17.6225C16.5933 17.651 16.553 17.667 16.5109 17.667H15.3407C15.2549 17.667 15.1866 17.6043 15.1847 17.5233C15.1456 16.1008 14.541 14.7686 13.4722 13.7589C12.3663 12.7141 10.8977 12.1392 9.3335 12.1392C7.76929 12.1392 6.30065 12.7141 5.19478 13.7589C4.12597 14.7686 3.52135 16.1008 3.48234 17.5233C3.48039 17.6025 3.41213 17.667 3.32631 17.667H2.15608C2.11401 17.667 2.07372 17.651 2.04435 17.6225C2.01497 17.5941 1.999 17.5556 2.00005 17.5159C2.01796 16.6408 2.21327 15.777 2.57541 14.9713C2.94404 14.1483 3.47787 13.4006 4.14742 12.7694C4.82031 12.1319 5.60436 11.6325 6.47813 11.2843C6.48203 11.2824 6.48594 11.281 6.48984 11.2797C6.49374 11.2783 6.49764 11.2769 6.50154 11.2751C5.28645 10.4441 4.49654 9.09344 4.49654 7.56962C4.49654 5.04527 6.66147 3 9.3335 3C12.0055 3 14.1705 5.04527 14.1705 7.56962C14.1705 9.09344 13.3805 10.4441 12.1655 11.2732C12.1694 11.2751 12.1733 11.2764 12.1772 11.2778C12.1811 11.2792 12.185 11.2806 12.1889 11.2824C13.06 11.6307 13.8514 12.135 14.5196 12.7676ZM6.95745 9.83838C7.59256 10.4361 8.43677 10.7653 9.33373 10.7653C10.2307 10.7653 11.0749 10.4361 11.71 9.83838C12.3451 9.24063 12.6949 8.44609 12.6949 7.60188C12.6949 6.75768 12.3451 5.96313 11.71 5.36538C11.0749 4.76763 10.2307 4.43841 9.33373 4.43841C8.43677 4.43841 7.59256 4.76763 6.95745 5.36538C6.32235 5.96313 5.97255 6.75768 5.97255 7.60188C5.97255 8.44609 6.32235 9.24063 6.95745 9.83838Z"
    fill="#718096" />
  <path
    d="M23.8 9.5C23.8 11.3225 22.3225 12.8 20.5 12.8C18.6775 12.8 17.2 11.3225 17.2 9.5C17.2 7.67746 18.6775 6.2 20.5 6.2C22.3225 6.2 23.8 7.67746 23.8 9.5Z"
    stroke="#718096" stroke-width="1.4" />
  <path d="M25 17.5C25 15.0147 22.9853 13 20.5 13" stroke="#718096" stroke-width="1.4" />
</svg>