<svg width="19" height="17" viewBox="0 0 19 17" fill="none" xmlns="http://www.w3.org/2000/svg">
<path d="M2.15918 0.279297L1.28027 1.1582L4.15625 4.03906C1.37305 5.57715 0.274414 7.97949 0.210938 8.12598L0.103516 8.375L0.210938 8.62402C0.303712 8.84375 2.62793 14 9.37598 14C9.60547 14 9.81055 13.9707 10.0303 13.9609C10.0352 13.9609 10.04 13.9609 10.04 13.9609C11.3242 13.8877 12.4424 13.6484 13.3945 13.2773L16.5879 16.4756L17.4766 15.5869L14.6055 12.7207L13.751 11.8662L13.6729 11.793L11.0654 9.17578L8.5752 6.68555L6.76856 4.88379L6.33887 4.4541L5.35254 3.47266L2.15918 0.279297ZM9.37598 2.75C8.68262 2.75 8.05273 2.81836 7.45215 2.91602L8.61426 4.07812C8.86328 4.03418 9.11231 4 9.37598 4C11.7881 4 13.751 5.96289 13.751 8.375C13.751 8.63867 13.7168 8.88769 13.6729 9.13672L14.6885 10.1523C14.874 9.59082 15.001 9 15.001 8.375C15.001 7.14453 14.5908 6.01172 13.917 5.08398C15.9287 6.16797 16.9395 7.75977 17.2715 8.375C17.0273 8.8291 16.4023 9.82519 15.2842 10.748L16.1729 11.6367C17.8037 10.2451 18.4922 8.74121 18.541 8.62402L18.6533 8.375L18.541 8.12598C18.4482 7.90625 16.124 2.75 9.37598 2.75ZM4.83496 5.10352C4.16113 6.02637 3.75098 7.14941 3.75098 8.375C3.75098 9.60547 4.16113 10.7383 4.83496 11.6611C2.82324 10.582 1.8125 8.99023 1.48047 8.375C1.8125 7.75977 2.83301 6.1875 4.83496 5.10352ZM5.89941 5.77734L7.69629 7.58398C7.58398 7.82324 7.50098 8.08691 7.50098 8.375C7.50098 9.41016 8.34082 10.25 9.37598 10.25C9.66406 10.25 9.92773 10.167 10.167 10.0547L11.9736 11.8516C11.2461 12.4033 10.3574 12.75 9.37598 12.75C6.96387 12.75 5.00098 10.7871 5.00098 8.375C5.00098 7.39355 5.34766 6.50488 5.89941 5.77734Z" fill="#8E98A3"/>
</svg>
