<svg width="45" height="46" viewBox="0 0 45 46" fill="none" xmlns="http://www.w3.org/2000/svg">
<rect y="0.5" width="45" height="45" rx="22.5" fill="#E6E8EC"/>
<path d="M16.75 13C15.5095 13 14.5 14.0095 14.5 15.25V30.75C14.5 31.9905 15.5095 33 16.75 33H28.25C29.4905 33 30.5 31.9905 30.5 30.75V21H24.75C23.5095 21 22.5 19.9905 22.5 18.75V13H16.75ZM24 13.4395V18.75C24 19.1635 24.3365 19.5 24.75 19.5H30.0605L24 13.4395ZM22.499 22.5C22.913 22.5 23.249 22.8355 23.249 23.25V26.4395L23.9687 25.7197C24.2617 25.4267 24.7363 25.4267 25.0293 25.7197C25.3223 26.0122 25.3223 26.4878 25.0293 26.7803L23.0293 28.7803C22.8838 28.9268 22.692 29 22.5 29H25.75C26.164 29 26.5 29.3355 26.5 29.75C26.5 30.1645 26.164 30.5 25.75 30.5H19.25C18.836 30.5 18.5 30.1645 18.5 29.75C18.5 29.3355 18.836 29 19.25 29H22.5C22.308 29 22.1162 28.9268 21.9697 28.7803L19.9697 26.7803C19.6767 26.4878 19.6767 26.0122 19.9697 25.7197C20.2627 25.4267 20.7373 25.4267 21.0303 25.7197L21.749 26.4395V23.25C21.749 22.8355 22.085 22.5 22.499 22.5Z" fill="#A6B0C2"/>
</svg>
