<svg width="19" height="19" viewBox="0 0 19 19" fill="none" xmlns="http://www.w3.org/2000/svg">
<path d="M9.3125 0.375C4.3846 0.375 0.375 4.3846 0.375 9.3125C0.375 14.2404 4.3846 18.25 9.3125 18.25C14.2404 18.25 18.25 14.2404 18.25 9.3125C18.25 4.3846 14.2404 0.375 9.3125 0.375ZM9.3125 1.75C13.4973 1.75 16.875 5.1277 16.875 9.3125C16.875 13.4973 13.4973 16.875 9.3125 16.875C5.1277 16.875 1.75 13.4973 1.75 9.3125C1.75 5.1277 5.1277 1.75 9.3125 1.75ZM11.5281 5.53394C10.369 5.53394 9.42529 6.4736 9.42529 7.63135C9.42529 7.84722 9.50049 7.99186 9.50049 8.13623C7.76249 8.06473 6.31904 7.10563 5.30566 5.875C5.08841 6.16512 5.01562 6.52583 5.01562 6.88745C5.01562 7.6107 5.29744 8.40766 5.87769 8.91504C5.49269 8.86279 5.30575 8.76937 5.01562 8.625C5.01562 9.63838 5.66091 10.3091 6.60278 10.5264C6.60278 10.5264 6.23995 10.5989 6.02271 10.5989C5.85771 10.5989 5.66016 10.5264 5.66016 10.5264C5.95028 11.3225 6.67336 11.9712 7.61523 11.9712C6.89198 12.4786 5.94944 12.75 5.00757 12.75H4.5C5.01562 13.4375 6.21793 13.7826 7.68506 13.7839C11.5227 13.7839 13.6255 10.5989 13.6255 7.84888V7.55884C13.9885 7.26871 14.3491 6.907 14.6406 6.47388C14.2061 6.69113 13.8451 6.76087 13.4106 6.83374C13.8451 6.54499 14.2062 6.18227 14.3506 5.67627C13.989 5.89214 13.5555 6.11096 13.0481 6.18384C12.6851 5.75071 12.1083 5.53394 11.5281 5.53394Z" fill="#8E98A3"/>
</svg>
