<svg width="16" height="16" viewBox="0 0 16 16" fill="none" xmlns="http://www.w3.org/2000/svg">
<path d="M12.9996 0.0878906C12.2518 0.0878906 11.5041 0.371379 10.9375 0.938314L1.71463 10.1603C1.53964 10.3353 1.41148 10.5529 1.34354 10.7918L0.107374 15.1204C0.0768873 15.2276 0.0755705 15.3409 0.103559 15.4486C0.131548 15.5564 0.187827 15.6548 0.266573 15.7335C0.345319 15.8123 0.443674 15.8686 0.551463 15.8966C0.659252 15.9245 0.772562 15.9232 0.879672 15.8927L5.2091 14.6566C5.20937 14.6563 5.20964 14.656 5.20991 14.6558C5.44721 14.5875 5.6643 14.461 5.8398 14.2855L15.0618 5.06266C16.1956 3.92886 16.1956 2.07212 15.0618 0.938314C14.4951 0.371379 13.7474 0.0878906 12.9996 0.0878906ZM12.9996 1.33057C13.425 1.33057 13.8497 1.49445 14.1772 1.8221C14.1775 1.8221 14.1777 1.8221 14.178 1.8221C14.8342 2.4783 14.8342 3.52268 14.178 4.17887L13.3699 4.98698L11.0131 2.63021L11.8212 1.8221C12.1487 1.49445 12.5743 1.33057 12.9996 1.33057ZM10.1293 3.514L12.4861 5.87077L4.95519 13.4017C4.93076 13.426 4.89982 13.4445 4.86486 13.4546L1.61779 14.3823L2.54552 11.1344C2.54552 11.1342 2.54552 11.1339 2.54552 11.1336C2.55508 11.1 2.57258 11.0699 2.59842 11.0441L10.1293 3.514Z" fill="#8E98A3"/>
</svg>
