<svg width="31" height="28" viewBox="0 0 31 28" fill="none" xmlns="http://www.w3.org/2000/svg">
  <path fill-rule="evenodd" clip-rule="evenodd"
    d="M12.2923 10.1391C12.093 9.94798 11.7765 9.95463 11.5854 10.154C11.3943 10.3533 11.4009 10.6698 11.6002 10.8609L14.9395 14.0627L11.6007 17.2641C11.4014 17.4552 11.3947 17.7717 11.5858 17.971C11.777 18.1704 12.0935 18.177 12.2928 17.9859L15.6619 14.7554L19.031 17.9859C19.2303 18.177 19.5468 18.1704 19.738 17.971C19.9291 17.7717 19.9224 17.4552 19.7231 17.2641L16.3843 14.0627L19.7236 10.8609C19.9229 10.6698 19.9295 10.3533 19.7384 10.154C19.5473 9.95463 19.2308 9.94798 19.0315 10.1391L15.6619 13.37L12.2923 10.1391Z"
    fill="#B0B7C3" />
  <rect opacity="0.3" x="1.30078" y="0.5" width="28.7231" height="27" rx="7.5" stroke="#8E98A3" />
</svg>