<svg width="45" height="46" viewBox="0 0 45 46" fill="none" xmlns="http://www.w3.org/2000/svg">
<rect y="0.5" width="45" height="45" rx="22.5" fill="#E6E8EC"/>
<g clip-path="url(#clip0)">
<path d="M23.3125 12L23.1875 14C23.7891 14 24.3125 14.0859 24.8125 14.1875L25.1875 12.1875C24.5859 12.0859 23.9141 12 23.3125 12ZM21.0938 12.0938C20.3945 12.1953 19.6992 12.3867 19 12.6875L19.6875 14.5938C20.2891 14.3945 20.9062 14.1953 21.4062 14.0938L21.0938 12.0938ZM27 13L28 18.9062L29.8125 17.0938C31.1797 18.6758 32 20.75 32 23C32 25.5156 30.8828 27.8008 29.1875 29.5C28.7891 29.8984 28.3125 30.293 27.8125 30.5938L28.9062 32.3125C29.3086 32.082 29.6289 31.8086 29.9375 31.5312L29.9688 31.5625C32.3672 29.4922 34 26.4219 34 23C34 20.2188 32.9531 17.6406 31.2188 15.6875L32.9062 14L27 13ZM17 13.6875C16.3984 14.0859 15.8125 14.5938 15.3125 15.0938L15.3438 15.125C13.3125 17.1406 12 19.8789 12 23C12 25.7656 13.0234 28.3555 14.7812 30.3125L13.0938 32L19 33L18 27.0938L16.2188 28.875C14.8281 27.2969 14 25.2344 14 23C14 20.0234 15.4297 17.5195 17.625 15.7812C17.7773 15.6602 17.9258 15.543 18.0938 15.4062L17 13.6875ZM26.3125 31.3125C25.8125 31.5117 25.1953 31.7109 24.5938 31.8125L24.9062 33.8125C25.6055 33.7109 26.3008 33.4883 27 33.1875L26.3125 31.3125ZM21.3125 31.8125L20.9062 33.8125C21.5078 33.9141 22.0859 34 22.6875 34L22.8125 32C22.3125 32 21.8125 31.9141 21.3125 31.8125Z" fill="#8E98A3"/>
</g>
<defs>
<clipPath id="clip0">
<rect width="24" height="24" fill="white" transform="translate(10.5 11)"/>
</clipPath>
</defs>
</svg>
