<svg width="17" height="17" viewBox="0 0 17 17" fill="none" xmlns="http://www.w3.org/2000/svg">
  <path d="M6.97953 0.140625C3.41555 0.140625 0.519531 3.03664 0.519531 6.60063C0.519531 10.1646 3.41555 13.0606 6.97953 13.0606C8.38969 13.0606 9.69297 12.6064 10.7558 11.8375L15.7552 16.825L16.8239 15.7563L11.8839 10.8044C12.8547 9.67328 13.4395 8.20523 13.4395 6.60063C13.4395 3.03664 10.5435 0.140625 6.97953 0.140625ZM6.97953 0.900625C10.1323 0.900625 12.6795 3.44781 12.6795 6.60063C12.6795 9.75344 10.1323 12.3006 6.97953 12.3006C3.82672 12.3006 1.27953 9.75344 1.27953 6.60063C1.27953 3.44781 3.82672 0.900625 6.97953 0.900625ZM6.59953 3.56063V6.22063H3.93953V6.98063H6.59953V9.64063H7.35953V6.98063H10.0195V6.22063H7.35953V3.56063H6.59953Z" fill="#F8F8FA"/>
</svg>
