<svg width="14" height="14" viewBox="0 0 14 14" fill="none" xmlns="http://www.w3.org/2000/svg">
<path d="M2.6875 0.25C1.34802 0.25 0.25 1.34802 0.25 2.6875V11.3125C0.25 12.652 1.34802 13.75 2.6875 13.75H11.3125C12.652 13.75 13.75 12.652 13.75 11.3125V2.6875C13.75 1.34802 12.652 0.25 11.3125 0.25H2.6875ZM2.6875 1.375H11.3125C12.0438 1.375 12.625 1.95623 12.625 2.6875V3.25H1.375V2.6875C1.375 1.95623 1.95623 1.375 2.6875 1.375ZM1.375 4.375H12.625V11.3125C12.625 12.0438 12.0438 12.625 11.3125 12.625H2.6875C1.95623 12.625 1.375 12.0438 1.375 11.3125V4.375ZM3.8125 5.875C3.56386 5.875 3.3254 5.97377 3.14959 6.14959C2.97377 6.3254 2.875 6.56386 2.875 6.8125C2.875 7.06114 2.97377 7.2996 3.14959 7.47541C3.3254 7.65123 3.56386 7.75 3.8125 7.75C4.06114 7.75 4.2996 7.65123 4.47541 7.47541C4.65123 7.2996 4.75 7.06114 4.75 6.8125C4.75 6.56386 4.65123 6.3254 4.47541 6.14959C4.2996 5.97377 4.06114 5.875 3.8125 5.875ZM7 5.875C6.75136 5.875 6.5129 5.97377 6.33709 6.14959C6.16127 6.3254 6.0625 6.56386 6.0625 6.8125C6.0625 7.06114 6.16127 7.2996 6.33709 7.47541C6.5129 7.65123 6.75136 7.75 7 7.75C7.24864 7.75 7.4871 7.65123 7.66291 7.47541C7.83873 7.2996 7.9375 7.06114 7.9375 6.8125C7.9375 6.56386 7.83873 6.3254 7.66291 6.14959C7.4871 5.97377 7.24864 5.875 7 5.875ZM10.1875 5.875C9.93886 5.875 9.7004 5.97377 9.52459 6.14959C9.34877 6.3254 9.25 6.56386 9.25 6.8125C9.25 7.06114 9.34877 7.2996 9.52459 7.47541C9.7004 7.65123 9.93886 7.75 10.1875 7.75C10.4361 7.75 10.6746 7.65123 10.8504 7.47541C11.0262 7.2996 11.125 7.06114 11.125 6.8125C11.125 6.56386 11.0262 6.3254 10.8504 6.14959C10.6746 5.97377 10.4361 5.875 10.1875 5.875ZM3.8125 9.25C3.56386 9.25 3.3254 9.34877 3.14959 9.52459C2.97377 9.7004 2.875 9.93886 2.875 10.1875C2.875 10.4361 2.97377 10.6746 3.14959 10.8504C3.3254 11.0262 3.56386 11.125 3.8125 11.125C4.06114 11.125 4.2996 11.0262 4.47541 10.8504C4.65123 10.6746 4.75 10.4361 4.75 10.1875C4.75 9.93886 4.65123 9.7004 4.47541 9.52459C4.2996 9.34877 4.06114 9.25 3.8125 9.25ZM7 9.25C6.75136 9.25 6.5129 9.34877 6.33709 9.52459C6.16127 9.7004 6.0625 9.93886 6.0625 10.1875C6.0625 10.4361 6.16127 10.6746 6.33709 10.8504C6.5129 11.0262 6.75136 11.125 7 11.125C7.24864 11.125 7.4871 11.0262 7.66291 10.8504C7.83873 10.6746 7.9375 10.4361 7.9375 10.1875C7.9375 9.93886 7.83873 9.7004 7.66291 9.52459C7.4871 9.34877 7.24864 9.25 7 9.25Z" fill="#334D6E"/>
</svg>
