<svg width="92" height="87" viewBox="0 0 92 87" fill="none" xmlns="http://www.w3.org/2000/svg">
<rect opacity="0.2" width="92" height="87" rx="8" fill="#B0B7C3"/>
<path opacity="0.6" d="M33.6931 34.336H34.7011V40H33.6931V34.336ZM40.8316 35.664C40.6236 35.44 40.421 35.2907 40.2236 35.216C40.0316 35.1413 39.837 35.104 39.6396 35.104C39.3463 35.104 39.0796 35.1573 38.8396 35.264C38.605 35.3653 38.4023 35.5093 38.2316 35.696C38.061 35.8773 37.9276 36.0907 37.8316 36.336C37.741 36.5813 37.6956 36.8453 37.6956 37.128C37.6956 37.432 37.741 37.712 37.8316 37.968C37.9276 38.224 38.061 38.4453 38.2316 38.632C38.4023 38.8187 38.605 38.9653 38.8396 39.072C39.0796 39.1787 39.3463 39.232 39.6396 39.232C39.869 39.232 40.0903 39.1787 40.3036 39.072C40.5223 38.96 40.725 38.784 40.9116 38.544L41.7436 39.136C41.4876 39.488 41.1756 39.744 40.8076 39.904C40.4396 40.064 40.0476 40.144 39.6316 40.144C39.1943 40.144 38.7916 40.0747 38.4236 39.936C38.061 39.792 37.7463 39.592 37.4796 39.336C37.2183 39.0747 37.013 38.7627 36.8636 38.4C36.7143 38.0373 36.6396 37.6347 36.6396 37.192C36.6396 36.7387 36.7143 36.328 36.8636 35.96C37.013 35.5867 37.2183 35.2693 37.4796 35.008C37.7463 34.7467 38.061 34.5467 38.4236 34.408C38.7916 34.264 39.1943 34.192 39.6316 34.192C40.0156 34.192 40.3703 34.2613 40.6956 34.4C41.0263 34.5333 41.333 34.7627 41.6156 35.088L40.8316 35.664ZM43.1162 37.192C43.1162 36.7387 43.1909 36.328 43.3402 35.96C43.4895 35.5867 43.6949 35.2693 43.9562 35.008C44.2229 34.7467 44.5375 34.5467 44.9002 34.408C45.2682 34.264 45.6709 34.192 46.1082 34.192C46.5509 34.1867 46.9562 34.2533 47.3242 34.392C47.6922 34.5253 48.0095 34.7227 48.2762 34.984C48.5429 35.2453 48.7509 35.56 48.9002 35.928C49.0495 36.296 49.1242 36.7067 49.1242 37.16C49.1242 37.6027 49.0495 38.0053 48.9002 38.368C48.7509 38.7307 48.5429 39.0427 48.2762 39.304C48.0095 39.5653 47.6922 39.7707 47.3242 39.92C46.9562 40.064 46.5509 40.1387 46.1082 40.144C45.6709 40.144 45.2682 40.0747 44.9002 39.936C44.5375 39.792 44.2229 39.592 43.9562 39.336C43.6949 39.0747 43.4895 38.7627 43.3402 38.4C43.1909 38.0373 43.1162 37.6347 43.1162 37.192ZM44.1722 37.128C44.1722 37.432 44.2175 37.712 44.3082 37.968C44.4042 38.224 44.5375 38.4453 44.7082 38.632C44.8789 38.8187 45.0815 38.9653 45.3162 39.072C45.5562 39.1787 45.8229 39.232 46.1162 39.232C46.4095 39.232 46.6762 39.1787 46.9162 39.072C47.1562 38.9653 47.3615 38.8187 47.5322 38.632C47.7029 38.4453 47.8335 38.224 47.9242 37.968C48.0202 37.712 48.0682 37.432 48.0682 37.128C48.0682 36.8453 48.0202 36.5813 47.9242 36.336C47.8335 36.0907 47.7029 35.8773 47.5322 35.696C47.3615 35.5093 47.1562 35.3653 46.9162 35.264C46.6762 35.1573 46.4095 35.104 46.1162 35.104C45.8229 35.104 45.5562 35.1573 45.3162 35.264C45.0815 35.3653 44.8789 35.5093 44.7082 35.696C44.5375 35.8773 44.4042 36.0907 44.3082 36.336C44.2175 36.5813 44.1722 36.8453 44.1722 37.128ZM51.0843 34.336H52.4203L55.1643 38.544H55.1803V34.336H56.1883V40H54.9083L52.1083 35.656H52.0923V40H51.0843V34.336ZM12.1233 46.336H14.0273C14.2993 46.336 14.5607 46.3627 14.8113 46.416C15.0673 46.4693 15.2913 46.56 15.4833 46.688C15.6753 46.8107 15.8273 46.9787 15.9393 47.192C16.0567 47.4 16.1153 47.6613 16.1153 47.976C16.1153 48.3333 16.054 48.6213 15.9313 48.84C15.8087 49.0587 15.6433 49.2293 15.4353 49.352C15.2273 49.4693 14.9847 49.5493 14.7073 49.592C14.4353 49.6347 14.15 49.656 13.8513 49.656H13.1313V52H12.1233V46.336ZM13.7393 48.792C13.8833 48.792 14.0327 48.7867 14.1873 48.776C14.342 48.7653 14.4833 48.7333 14.6113 48.68C14.7447 48.6267 14.8513 48.5467 14.9313 48.44C15.0167 48.3333 15.0593 48.184 15.0593 47.992C15.0593 47.816 15.022 47.6773 14.9473 47.576C14.8727 47.4693 14.7767 47.3893 14.6593 47.336C14.542 47.2773 14.4113 47.24 14.2673 47.224C14.1233 47.208 13.9847 47.2 13.8513 47.2H13.1313V48.792H13.7393ZM18.014 46.336H19.022V51.088H21.43V52H18.014V46.336ZM24.9944 46.336H25.8664L28.3064 52H27.1544L26.6264 50.704H24.1704L23.6584 52H22.5304L24.9944 46.336ZM26.2744 49.84L25.4024 47.536L24.5144 49.84H26.2744ZM33.8238 47.664C33.6158 47.44 33.4132 47.2907 33.2158 47.216C33.0238 47.1413 32.8292 47.104 32.6318 47.104C32.3385 47.104 32.0718 47.1573 31.8318 47.264C31.5972 47.3653 31.3945 47.5093 31.2238 47.696C31.0532 47.8773 30.9198 48.0907 30.8238 48.336C30.7332 48.5813 30.6878 48.8453 30.6878 49.128C30.6878 49.432 30.7332 49.712 30.8238 49.968C30.9198 50.224 31.0532 50.4453 31.2238 50.632C31.3945 50.8187 31.5972 50.9653 31.8318 51.072C32.0718 51.1787 32.3385 51.232 32.6318 51.232C32.8612 51.232 33.0825 51.1787 33.2958 51.072C33.5145 50.96 33.7172 50.784 33.9038 50.544L34.7358 51.136C34.4798 51.488 34.1678 51.744 33.7998 51.904C33.4318 52.064 33.0398 52.144 32.6238 52.144C32.1865 52.144 31.7838 52.0747 31.4158 51.936C31.0532 51.792 30.7385 51.592 30.4718 51.336C30.2105 51.0747 30.0052 50.7627 29.8558 50.4C29.7065 50.0373 29.6318 49.6347 29.6318 49.192C29.6318 48.7387 29.7065 48.328 29.8558 47.96C30.0052 47.5867 30.2105 47.2693 30.4718 47.008C30.7385 46.7467 31.0532 46.5467 31.4158 46.408C31.7838 46.264 32.1865 46.192 32.6238 46.192C33.0078 46.192 33.3625 46.2613 33.6878 46.4C34.0185 46.5333 34.3252 46.7627 34.6078 47.088L33.8238 47.664ZM36.4124 46.336H40.1644V47.248H37.4204V48.64H40.0204V49.552H37.4204V51.088H40.3084V52H36.4124V46.336ZM42.303 46.336H43.311V48.592H45.959V46.336H46.967V52H45.959V49.504H43.311V52H42.303V46.336ZM48.9287 49.192C48.9287 48.7387 49.0034 48.328 49.1527 47.96C49.302 47.5867 49.5074 47.2693 49.7687 47.008C50.0354 46.7467 50.35 46.5467 50.7127 46.408C51.0807 46.264 51.4834 46.192 51.9207 46.192C52.3634 46.1867 52.7687 46.2533 53.1367 46.392C53.5047 46.5253 53.822 46.7227 54.0887 46.984C54.3554 47.2453 54.5634 47.56 54.7127 47.928C54.862 48.296 54.9367 48.7067 54.9367 49.16C54.9367 49.6027 54.862 50.0053 54.7127 50.368C54.5634 50.7307 54.3554 51.0427 54.0887 51.304C53.822 51.5653 53.5047 51.7707 53.1367 51.92C52.7687 52.064 52.3634 52.1387 51.9207 52.144C51.4834 52.144 51.0807 52.0747 50.7127 51.936C50.35 51.792 50.0354 51.592 49.7687 51.336C49.5074 51.0747 49.302 50.7627 49.1527 50.4C49.0034 50.0373 48.9287 49.6347 48.9287 49.192ZM49.9847 49.128C49.9847 49.432 50.03 49.712 50.1207 49.968C50.2167 50.224 50.35 50.4453 50.5207 50.632C50.6914 50.8187 50.894 50.9653 51.1287 51.072C51.3687 51.1787 51.6354 51.232 51.9287 51.232C52.222 51.232 52.4887 51.1787 52.7287 51.072C52.9687 50.9653 53.174 50.8187 53.3447 50.632C53.5154 50.4453 53.646 50.224 53.7367 49.968C53.8327 49.712 53.8807 49.432 53.8807 49.128C53.8807 48.8453 53.8327 48.5813 53.7367 48.336C53.646 48.0907 53.5154 47.8773 53.3447 47.696C53.174 47.5093 52.9687 47.3653 52.7287 47.264C52.4887 47.1573 52.222 47.104 51.9287 47.104C51.6354 47.104 51.3687 47.1573 51.1287 47.264C50.894 47.3653 50.6914 47.5093 50.5207 47.696C50.35 47.8773 50.2167 48.0907 50.1207 48.336C50.03 48.5813 49.9847 48.8453 49.9847 49.128ZM56.8968 46.336H57.9048V51.088H60.3128V52H56.8968V46.336ZM62.0452 46.336H64.2772C64.6505 46.336 65.0105 46.3947 65.3572 46.512C65.7039 46.624 66.0105 46.7973 66.2772 47.032C66.5439 47.2667 66.7572 47.5627 66.9172 47.92C67.0772 48.272 67.1572 48.688 67.1572 49.168C67.1572 49.6533 67.0639 50.0747 66.8772 50.432C66.6959 50.784 66.4585 51.0773 66.1652 51.312C65.8772 51.5413 65.5545 51.7147 65.1972 51.832C64.8452 51.944 64.4985 52 64.1572 52H62.0452V46.336ZM63.8052 51.088C64.1199 51.088 64.4159 51.0533 64.6932 50.984C64.9759 50.9093 65.2212 50.7973 65.4292 50.648C65.6372 50.4933 65.7999 50.296 65.9172 50.056C66.0399 49.8107 66.1012 49.5147 66.1012 49.168C66.1012 48.8267 66.0479 48.5333 65.9412 48.288C65.8345 48.0427 65.6852 47.8453 65.4932 47.696C65.3065 47.5413 65.0825 47.4293 64.8212 47.36C64.5652 47.2853 64.2825 47.248 63.9732 47.248H63.0532V51.088H63.8052ZM69.1155 46.336H72.8675V47.248H70.1235V48.64H72.7235V49.552H70.1235V51.088H73.0115V52H69.1155V46.336ZM75.0061 46.336H76.9741C77.2461 46.336 77.5075 46.3627 77.7581 46.416C78.0141 46.464 78.2408 46.5493 78.4381 46.672C78.6355 46.7947 78.7928 46.96 78.9101 47.168C79.0275 47.376 79.0861 47.64 79.0861 47.96C79.0861 48.3707 78.9715 48.7147 78.7421 48.992C78.5181 49.2693 78.1955 49.4373 77.7741 49.496L79.2781 52H78.0621L76.7501 49.6H76.0141V52H75.0061V46.336ZM76.7981 48.736C76.9421 48.736 77.0861 48.7307 77.2301 48.72C77.3741 48.704 77.5048 48.672 77.6221 48.624C77.7448 48.5707 77.8435 48.4933 77.9181 48.392C77.9928 48.2853 78.0301 48.1387 78.0301 47.952C78.0301 47.7867 77.9955 47.6533 77.9261 47.552C77.8568 47.4507 77.7661 47.376 77.6541 47.328C77.5421 47.2747 77.4168 47.24 77.2781 47.224C77.1448 47.208 77.0141 47.2 76.8861 47.2H76.0141V48.736H76.7981Z" fill="#4E5D78"/>
</svg>
