<svg width="44" height="44" viewBox="0 0 44 44" fill="none" xmlns="http://www.w3.org/2000/svg">
<path d="M21.6014 4C20.1082 4 18.615 4.70898 17.7664 6.12695L1.59941 33.1436C-0.119343 36.001 2.08281 39.7285 5.42363 39.7285H37.7684C41.1199 39.7285 43.3221 36.001 41.6141 33.1436L25.4363 6.12695C24.5877 4.70898 23.0945 4 21.6014 4ZM21.6014 6.70703C22.1707 6.70703 22.74 6.98633 23.0838 7.54492L39.2508 34.5508C39.9275 35.6787 39.1756 36.9785 37.7684 36.9785H5.42363C4.02714 36.9785 3.27519 35.6787 3.95195 34.5508L20.1189 7.54492C20.4627 6.98633 21.032 6.70703 21.6014 6.70703ZM20.2049 14.9785V28.7285H22.9549V14.9785H20.2049ZM20.2049 31.4785V34.2285H22.9549V31.4785H20.2049Z" fill="#FE634C"/>
</svg>
