<svg width="12" height="14" viewBox="0 0 12 14" fill="none" xmlns="http://www.w3.org/2000/svg">
<path d="M6.65 1.02887C6.24778 0.796645 5.75222 0.796645 5.35 1.02887L1.15385 3.45152C0.751626 3.68374 0.503848 4.11291 0.503848 4.57735V9.42265C0.503848 9.88709 0.751626 10.3163 1.15385 10.5485L5.35 12.9711C5.75222 13.2034 6.24778 13.2034 6.65 12.9711L10.8462 10.5485C11.2484 10.3163 11.4962 9.8871 11.4962 9.42265V4.57735C11.4962 4.11291 11.2484 3.68374 10.8462 3.45152L6.65 1.02887Z" fill="#45B36B" stroke="#FCFCFD" stroke-width="0.6"/>
<path d="M5.55109 4.78086C5.60337 4.68938 5.52597 4.57823 5.42202 4.59555L4.93617 4.67652C4.8619 4.6889 4.81535 4.76363 4.83699 4.83574L4.98832 5.34018C5.01988 5.4454 5.16208 5.46166 5.21658 5.36628L5.55109 4.78086Z" fill="#FCFCFD"/>
<path d="M4.40838 5.14701C4.38051 5.05411 4.2625 5.02738 4.19921 5.10086C4.00293 5.32874 3.81754 5.56816 3.62557 5.79853C3.61489 5.81135 3.6047 5.82444 3.59499 5.83778C3.54293 5.90935 3.60208 5.99913 3.69058 5.99913H4.49601C4.57975 5.99913 4.6398 5.91841 4.61574 5.83821L4.40838 5.14701Z" fill="#FCFCFD"/>
<path d="M3.65397 6.5C3.56989 6.5 3.51019 6.58196 3.55229 6.65474C3.5658 6.67809 3.58068 6.70091 3.59693 6.72306L5.39523 9.17528C5.4253 9.21631 5.45849 9.25319 5.49419 9.28596C5.57185 9.35726 5.66917 9.27508 5.63812 9.17434L4.84118 6.58819C4.82503 6.53576 4.77658 6.5 4.72173 6.5H3.65397Z" fill="#FCFCFD"/>
<path d="M6.36188 9.17439C6.33083 9.27514 6.42813 9.35734 6.50581 9.28604C6.54153 9.25324 6.57476 9.21633 6.60486 9.17528L8.40316 6.72306C8.41941 6.70091 8.43428 6.67809 8.44778 6.65474C8.48988 6.58196 8.43018 6.5 8.34611 6.5H7.27833C7.22346 6.5 7.17501 6.53576 7.15886 6.58819L6.36188 9.17439Z" fill="#FCFCFD"/>
<path d="M8.30952 5.99917C8.39802 5.99917 8.45717 5.90938 8.40512 5.83781C8.39539 5.82447 8.38522 5.81138 8.37452 5.79856C8.18254 5.56818 7.99717 5.32875 7.80087 5.10086C7.73757 5.02738 7.61957 5.05411 7.59169 5.14701L7.38432 5.83825C7.36027 5.91845 7.42032 5.99917 7.50407 5.99917H8.30952Z" fill="#FCFCFD"/>
<path d="M7.06387 4.67653C7.13812 4.68891 7.18467 4.76364 7.16305 4.83575L7.0117 5.34023C6.98015 5.44545 6.83795 5.4617 6.78345 5.36633L6.4489 4.78087C6.39662 4.68938 6.47405 4.57823 6.57797 4.59555L7.06387 4.67653Z" fill="#FCFCFD"/>
<path d="M5.99998 5.00391L6.46233 5.813C6.50995 5.89633 6.44978 6.00002 6.3538 6.00002H5.64618C5.5502 6.00002 5.49003 5.89633 5.53765 5.813L5.99998 5.00391Z" fill="#FCFCFD"/>
<path d="M6.11945 8.26161C6.08325 8.37928 5.9167 8.37928 5.8805 8.26161L5.38824 6.66176C5.36351 6.58139 5.42361 6.5 5.50772 6.5H6.49225C6.57635 6.5 6.63645 6.58139 6.61172 6.66176L6.11945 8.26161Z" fill="#FCFCFD"/>
</svg>
