<svg width="16" height="20" viewBox="0 0 16 20" fill="none" xmlns="http://www.w3.org/2000/svg">
<path d="M2.729 0.833984C1.59807 0.833984 0.666504 1.76555 0.666504 2.89648V17.1048C0.666504 18.2358 1.59807 19.1673 2.729 19.1673H13.2707C14.4016 19.1673 15.3332 18.2358 15.3332 17.1048V7.47982C15.3331 7.29749 15.2607 7.12265 15.1318 6.99373L15.1246 6.98657L9.17342 1.0354C9.04451 0.906469 8.86966 0.834019 8.68734 0.833984H2.729ZM2.729 2.20898H7.99984V6.10482C7.99984 7.23576 8.9314 8.16732 10.0623 8.16732H13.9582V17.1048C13.9582 17.4928 13.6586 17.7923 13.2707 17.7923H2.729C2.34102 17.7923 2.0415 17.4928 2.0415 17.1048V2.89648C2.0415 2.50851 2.34102 2.20898 2.729 2.20898ZM9.37484 3.18115L12.986 6.79232H10.0623C9.67436 6.79232 9.37484 6.4928 9.37484 6.10482V3.18115Z" fill="#8E98A3"/>
</svg>
