<svg width="10" height="12" viewBox="0 0 10 12" fill="none" xmlns="http://www.w3.org/2000/svg">
  <path fill-rule="evenodd" clip-rule="evenodd"
    d="M5.22671 11.9113C5.09886 12.0299 4.90123 12.0299 4.77337 11.9113C1.82404 9.188 0.333374 6.78133 0.333374 4.66667C0.333374 2.99943 1.22284 1.45883 2.66671 0.625215C4.11058 -0.208405 5.8895 -0.208405 7.33337 0.625215C8.77725 1.45883 9.66671 2.99943 9.66671 4.66667C9.66671 6.78133 8.17671 9.188 5.22671 11.9113ZM5.00004 7.33333C3.52728 7.33333 2.33337 6.13943 2.33337 4.66667C2.33337 3.19391 3.52728 2 5.00004 2C6.4728 2 7.66671 3.19391 7.66671 4.66667C7.66671 6.13943 6.4728 7.33333 5.00004 7.33333Z"
    fill="#8E98A3" />
</svg>