<svg width="17" height="16" viewBox="0 0 17 16" fill="none" xmlns="http://www.w3.org/2000/svg">
  <path fill-rule="evenodd" clip-rule="evenodd"
    d="M9.02485 7.47594L15.1813 7.4752C15.4716 7.4752 15.7069 7.71051 15.7069 8.00079C15.7069 8.29107 15.4716 8.52639 15.1813 8.52639L9.02485 8.52565L9.0256 14.6821C9.0256 14.9724 8.79028 15.2077 8.5 15.2077C8.20972 15.2077 7.9744 14.9724 7.9744 14.6821L7.97515 8.52565L1.81868 8.52639C1.52841 8.52639 1.29309 8.29107 1.29309 8.00079C1.29309 7.71051 1.52841 7.4752 1.81868 7.4752L7.97515 7.47594L7.9744 1.31948C7.9744 1.0292 8.20972 0.793881 8.5 0.793881C8.79028 0.793881 9.0256 1.0292 9.0256 1.31948L9.02485 7.47594Z"
    fill="white" stroke="white" stroke-width="0.6" />
</svg>