<svg width="18" height="18" viewBox="0 0 18 18" fill="none" xmlns="http://www.w3.org/2000/svg">
<path d="M14.3532 0.853516C13.6444 0.853516 12.9355 1.12858 12.3854 1.67871L1.67904 12.3851L1.63672 12.5967L0.896159 16.3206L0.68457 17.3151L1.67904 17.1035L5.40299 16.363L5.61458 16.3206L16.321 5.61426C17.4212 4.514 17.4212 2.77897 16.321 1.67871C15.7708 1.12858 15.062 0.853516 14.3532 0.853516ZM14.3532 2.14421C14.6944 2.14421 15.0382 2.30025 15.3688 2.63086C16.0274 3.28943 16.0274 4.00354 15.3688 4.66211L14.8822 5.1276L12.8721 3.11751L13.3376 2.63086C13.6682 2.30025 14.012 2.14421 14.3532 2.14421ZM11.9199 4.06966L13.93 6.07975L5.74154 14.2682C5.2972 13.4007 4.59896 12.7025 3.73145 12.2581L11.9199 4.06966ZM2.86393 13.3584C3.6759 13.6864 4.31331 14.3238 4.64128 15.1357L2.4196 15.5801L2.86393 13.3584Z" fill="#3F9AF7"/>
</svg>