<svg width="15" height="3" viewBox="0 0 15 3" fill="none" xmlns="http://www.w3.org/2000/svg">
<path d="M1.02344 0.476562C1.25781 0.242188 1.52734 0.125 1.83203 0.125C2.13672 0.125 2.39453 0.242188 2.60547 0.476562C2.83984 0.6875 2.95703 0.945312 2.95703 1.25C2.95703 1.55469 2.83984 1.82422 2.60547 2.05859C2.39453 2.26953 2.13672 2.375 1.83203 2.375C1.52734 2.375 1.25781 2.26953 1.02344 2.05859C0.8125 1.82422 0.707031 1.55469 0.707031 1.25C0.707031 0.945312 0.8125 0.6875 1.02344 0.476562ZM6.64844 0.476562C6.88281 0.242188 7.15234 0.125 7.45703 0.125C7.76172 0.125 8.01953 0.242188 8.23047 0.476562C8.46484 0.6875 8.58203 0.945312 8.58203 1.25C8.58203 1.55469 8.46484 1.82422 8.23047 2.05859C8.01953 2.26953 7.76172 2.375 7.45703 2.375C7.15234 2.375 6.88281 2.26953 6.64844 2.05859C6.4375 1.82422 6.33203 1.55469 6.33203 1.25C6.33203 0.945312 6.4375 0.6875 6.64844 0.476562ZM12.2734 0.476562C12.5078 0.242188 12.7773 0.125 13.082 0.125C13.3867 0.125 13.6445 0.242188 13.8555 0.476562C14.0898 0.6875 14.207 0.945312 14.207 1.25C14.207 1.55469 14.0898 1.82422 13.8555 2.05859C13.6445 2.26953 13.3867 2.375 13.082 2.375C12.7773 2.375 12.5078 2.26953 12.2734 2.05859C12.0625 1.82422 11.957 1.55469 11.957 1.25C11.957 0.945312 12.0625 0.6875 12.2734 0.476562Z" fill="#778CA2"/>
</svg>
