<svg width="16" height="16" viewBox="0 0 16 16" fill="none" xmlns="http://www.w3.org/2000/svg">
<path d="M2.375 0.5C1.34687 0.5 0.5 1.34687 0.5 2.375V5.29167C0.5 6.31979 1.34687 7.16667 2.375 7.16667H5.29167C6.31979 7.16667 7.16667 6.31979 7.16667 5.29167V2.375C7.16667 1.34687 6.31979 0.5 5.29167 0.5H2.375ZM10.7083 0.5C9.68021 0.5 8.83333 1.34687 8.83333 2.375V5.29167C8.83333 6.31979 9.68021 7.16667 10.7083 7.16667H13.625C14.6531 7.16667 15.5 6.31979 15.5 5.29167V2.375C15.5 1.34687 14.6531 0.5 13.625 0.5H10.7083ZM2.375 1.75H5.29167C5.64437 1.75 5.91667 2.02229 5.91667 2.375V5.29167C5.91667 5.64437 5.64437 5.91667 5.29167 5.91667H2.375C2.02229 5.91667 1.75 5.64437 1.75 5.29167V2.375C1.75 2.02229 2.02229 1.75 2.375 1.75ZM10.7083 1.75H13.625C13.9777 1.75 14.25 2.02229 14.25 2.375V5.29167C14.25 5.64437 13.9777 5.91667 13.625 5.91667H10.7083C10.3556 5.91667 10.0833 5.64437 10.0833 5.29167V2.375C10.0833 2.02229 10.3556 1.75 10.7083 1.75ZM3 3V4.66667H4.66667V3H3ZM11.3333 3V4.66667H13V3H11.3333ZM2.375 8.83333C1.34687 8.83333 0.5 9.68021 0.5 10.7083V13.625C0.5 14.6531 1.34687 15.5 2.375 15.5H5.29167C6.31979 15.5 7.16667 14.6531 7.16667 13.625V10.7083C7.16667 9.68021 6.31979 8.83333 5.29167 8.83333H2.375ZM8.83333 8.83333V11.125H11.125V8.83333H8.83333ZM11.125 11.125V13.2083H13.2083V11.125H11.125ZM13.2083 11.125H15.5V8.83333H13.2083V11.125ZM13.2083 13.2083V15.5H15.5V13.2083H13.2083ZM11.125 13.2083H8.83333V15.5H11.125V13.2083ZM2.375 10.0833H5.29167C5.64437 10.0833 5.91667 10.3556 5.91667 10.7083V13.625C5.91667 13.9777 5.64437 14.25 5.29167 14.25H2.375C2.02229 14.25 1.75 13.9777 1.75 13.625V10.7083C1.75 10.3556 2.02229 10.0833 2.375 10.0833ZM3 11.3333V13H4.66667V11.3333H3Z" fill="#8E98A3"/>
</svg>
