<svg width="36" height="36" viewBox="0 0 36 36" fill="none" xmlns="http://www.w3.org/2000/svg">
<path d="M19.2881 11.4985V11.5606C20.4892 11.7522 21.41 12.7954 21.41 14.0498C21.41 15.3039 20.4892 16.3471 19.2881 16.5387V16.617H15.3064V27.636L18.4983 30.8281L18.4956 19.7904L18.8939 19.7898C22.0567 19.7876 24.6299 17.2125 24.6299 14.0498C24.6299 10.9132 22.0783 8.3385 18.9423 8.30996L18.8654 8.30948H11.9355L15.1247 11.4985H19.2881Z" fill="#231F20"/>
<path d="M18 2.45377C26.5721 2.45377 33.5462 9.42765 33.5462 17.9999C33.5462 26.5722 26.5721 33.5463 18 33.5463C9.42765 33.5463 2.45374 26.5722 2.45374 17.9999C2.45374 9.42765 9.42765 2.45377 18 2.45377ZM18 36C27.9252 36 36 27.9251 36 17.9999C36 8.07477 27.9252 0 18 0C8.07477 0 0 8.07477 0 17.9999C0 27.9251 8.07477 36 18 36Z" fill="#231F20"/>
</svg>
