<svg width="16" height="14" viewBox="0 0 16 14" fill="none" xmlns="http://www.w3.org/2000/svg">
<mask id="path-1-outside-1" maskUnits="userSpaceOnUse" x="-0.333008" y="-0.666016" width="16" height="15" fill="black">
<rect fill="white" x="-0.333008" y="-0.666016" width="16" height="15"/>
<path fill-rule="evenodd" clip-rule="evenodd" d="M7.3622 9.74482V0.750651C7.3622 0.520532 7.57631 0.333984 7.84042 0.333984C8.10454 0.333984 8.31864 0.520532 8.31864 0.750651V9.74482L11.3276 7.12232C11.5146 6.95939 11.8178 6.95939 12.0048 7.12232C12.1918 7.28524 12.1918 7.5494 12.0048 7.71232L8.179 11.0457C8.08929 11.124 7.96747 11.1681 7.84042 11.1681C7.71338 11.1681 7.59156 11.124 7.50184 11.0457L3.67609 7.71232C3.48909 7.5494 3.48909 7.28524 3.67609 7.12232C3.86308 6.95939 4.16625 6.95939 4.35325 7.12232L7.3622 9.74482ZM1.14521 13.6673C0.881098 13.6673 0.666992 13.4808 0.666992 13.2507C0.666992 13.0205 0.881098 12.834 1.14521 12.834H14.5354C14.7995 12.834 15.0136 13.0205 15.0136 13.2507C15.0136 13.4808 14.7995 13.6673 14.5354 13.6673H1.14521Z"/>
</mask>
<path fill-rule="evenodd" clip-rule="evenodd" d="M7.3622 9.74482V0.750651C7.3622 0.520532 7.57631 0.333984 7.84042 0.333984C8.10454 0.333984 8.31864 0.520532 8.31864 0.750651V9.74482L11.3276 7.12232C11.5146 6.95939 11.8178 6.95939 12.0048 7.12232C12.1918 7.28524 12.1918 7.5494 12.0048 7.71232L8.179 11.0457C8.08929 11.124 7.96747 11.1681 7.84042 11.1681C7.71338 11.1681 7.59156 11.124 7.50184 11.0457L3.67609 7.71232C3.48909 7.5494 3.48909 7.28524 3.67609 7.12232C3.86308 6.95939 4.16625 6.95939 4.35325 7.12232L7.3622 9.74482ZM1.14521 13.6673C0.881098 13.6673 0.666992 13.4808 0.666992 13.2507C0.666992 13.0205 0.881098 12.834 1.14521 12.834H14.5354C14.7995 12.834 15.0136 13.0205 15.0136 13.2507C15.0136 13.4808 14.7995 13.6673 14.5354 13.6673H1.14521Z" fill="#3F9AF7"/>
<path d="M7.3622 9.74482L7.2308 9.89559L7.5622 10.1844V9.74482H7.3622ZM8.31864 9.74482H8.11864V10.1844L8.45005 9.89559L8.31864 9.74482ZM11.3276 7.12232L11.1962 6.97153L11.1962 6.97155L11.3276 7.12232ZM12.0048 7.71232L12.1361 7.86311L12.0048 7.71232ZM8.179 11.0457L8.04762 10.8949L8.04743 10.895L8.179 11.0457ZM7.50184 11.0457L7.63342 10.895L7.63323 10.8949L7.50184 11.0457ZM3.67609 7.71232L3.5447 7.86311L3.67609 7.71232ZM4.35325 7.12232L4.48465 6.97155L4.48463 6.97153L4.35325 7.12232ZM7.5622 9.74482V0.750651H7.1622V9.74482H7.5622ZM7.5622 0.750651C7.5622 0.655979 7.66 0.533984 7.84042 0.533984V0.133984C7.49262 0.133984 7.1622 0.385086 7.1622 0.750651H7.5622ZM7.84042 0.533984C8.02085 0.533984 8.11864 0.655979 8.11864 0.750651H8.51864C8.51864 0.385086 8.18823 0.133984 7.84042 0.133984V0.533984ZM8.11864 0.750651V9.74482H8.51864V0.750651H8.11864ZM8.45005 9.89559L11.459 7.27309L11.1962 6.97155L8.18724 9.59405L8.45005 9.89559ZM11.459 7.27311C11.5707 7.1758 11.7617 7.1758 11.8734 7.27311L12.1361 6.97153C11.8739 6.74299 11.4585 6.74299 11.1962 6.97153L11.459 7.27311ZM11.8734 7.27311C11.9689 7.35632 11.9689 7.47832 11.8734 7.56153L12.1361 7.86311C12.4146 7.62047 12.4146 7.21416 12.1361 6.97153L11.8734 7.27311ZM11.8734 7.56153L8.04762 10.8949L8.31039 11.1964L12.1361 7.86311L11.8734 7.56153ZM8.04743 10.895C7.9967 10.9393 7.92257 10.9681 7.84042 10.9681V11.3681C8.01236 11.3681 8.18187 11.3087 8.31058 11.1963L8.04743 10.895ZM7.84042 10.9681C7.75828 10.9681 7.68415 10.9393 7.63342 10.895L7.37027 11.1963C7.49898 11.3087 7.66849 11.3681 7.84042 11.3681V10.9681ZM7.63323 10.8949L3.80747 7.56153L3.5447 7.86311L7.37046 11.1964L7.63323 10.8949ZM3.80747 7.56153C3.71197 7.47832 3.71197 7.35632 3.80747 7.27311L3.5447 6.97153C3.26622 7.21416 3.26622 7.62047 3.5447 7.86311L3.80747 7.56153ZM3.80747 7.27311C3.91916 7.1758 4.11017 7.1758 4.22186 7.27311L4.48463 6.97153C4.22233 6.74299 3.807 6.74299 3.5447 6.97153L3.80747 7.27311ZM4.22184 7.27309L7.2308 9.89559L7.49361 9.59405L4.48465 6.97155L4.22184 7.27309ZM1.14521 13.4673C0.964788 13.4673 0.866992 13.3453 0.866992 13.2507H0.466992C0.466992 13.6162 0.797409 13.8673 1.14521 13.8673V13.4673ZM0.866992 13.2507C0.866992 13.156 0.964788 13.034 1.14521 13.034V12.634C0.797409 12.634 0.466992 12.8851 0.466992 13.2507H0.866992ZM1.14521 13.034H14.5354V12.634H1.14521V13.034ZM14.5354 13.034C14.7158 13.034 14.8136 13.156 14.8136 13.2507H15.2136C15.2136 12.8851 14.8832 12.634 14.5354 12.634V13.034ZM14.8136 13.2507C14.8136 13.3453 14.7158 13.4673 14.5354 13.4673V13.8673C14.8832 13.8673 15.2136 13.6162 15.2136 13.2507H14.8136ZM14.5354 13.4673H1.14521V13.8673H14.5354V13.4673Z" fill="#3F9AF7" mask="url(#path-1-outside-1)"/>
</svg>
