<svg width="12" height="14" viewBox="0 0 12 14" fill="none" xmlns="http://www.w3.org/2000/svg">
<path d="M4.1665 0.666016C3.15991 0.666016 2.33317 1.49276 2.33317 2.49935V9.83268C2.33317 10.8393 3.15991 11.666 4.1665 11.666H9.49984C10.5064 11.666 11.3332 10.8393 11.3332 9.83268V2.49935C11.3332 1.49276 10.5064 0.666016 9.49984 0.666016H4.1665ZM4.1665 1.66602H9.49984C9.96591 1.66602 10.3332 2.03327 10.3332 2.49935V9.83268C10.3332 10.2988 9.96591 10.666 9.49984 10.666H4.1665C3.70043 10.666 3.33317 10.2988 3.33317 9.83268V2.49935C3.33317 2.03327 3.70043 1.66602 4.1665 1.66602ZM1.6665 2.33268L1.26025 2.60352C0.889254 2.85085 0.666504 3.26722 0.666504 3.71289V10.166C0.666504 11.915 2.08417 13.3327 3.83317 13.3327H8.28629C8.73229 13.3327 9.14867 13.1099 9.39567 12.7389L9.6665 12.3327H3.83317C2.6365 12.3327 1.6665 11.3627 1.6665 10.166V2.33268Z" fill="#8E98A3"/>
</svg>
