<svg width="45" height="45" viewBox="0 0 45 45" fill="none" xmlns="http://www.w3.org/2000/svg">
<rect width="45" height="45" rx="22.5" fill="#353945"/>
<path d="M14.5 14.5C13.395 14.5 12.5 15.395 12.5 16.5C12.5 17.052 12.948 17.5 13.5 17.5H31.5C32.052 17.5 32.5 17.052 32.5 16.5C32.5 15.395 31.605 14.5 30.5 14.5H14.5ZM13.5 20.5C12.948 20.5 12.5 20.948 12.5 21.5V28.5C12.5 29.605 13.395 30.5 14.5 30.5H30.5C31.605 30.5 32.5 29.605 32.5 28.5V21.5C32.5 20.948 32.052 20.5 31.5 20.5H13.5Z" fill="white"/>
</svg>
