<svg width="14" height="13" viewBox="0 0 14 13" fill="none" xmlns="http://www.w3.org/2000/svg">
<path d="M8.99886 0.332031L4.99886 0.335937L3.7762 1.66667H1.66683C0.933496 1.66667 0.333496 2.26667 0.333496 3V11C0.333496 11.7333 0.933496 12.3333 1.66683 12.3333H12.3335C13.0668 12.3333 13.6668 11.7333 13.6668 11V3C13.6668 2.26667 13.0668 1.66667 12.3335 1.66667H10.2293L8.99886 0.332031ZM8.41423 1.66536L9.64469 3H12.3335V11H1.66683V3H4.36214L5.5861 1.66797L8.41423 1.66536ZM7.00016 3.66667C5.1595 3.66667 3.66683 5.15933 3.66683 7C3.66683 8.84067 5.1595 10.3333 7.00016 10.3333C8.84083 10.3333 10.3335 8.84067 10.3335 7C10.3335 5.15933 8.84083 3.66667 7.00016 3.66667ZM7.00016 5C8.10483 5 9.00016 5.89533 9.00016 7C9.00016 8.10467 8.10483 9 7.00016 9C5.8955 9 5.00016 8.10467 5.00016 7C5.00016 5.89533 5.8955 5 7.00016 5Z" fill="white"/>
</svg>
