<svg width="18" height="18" viewBox="0 0 18 18" fill="none" xmlns="http://www.w3.org/2000/svg">
<path d="M8.99996 0.666016C4.39746 0.666016 0.666626 4.39685 0.666626 8.99935C0.666626 13.6018 4.39746 17.3327 8.99996 17.3327C13.6025 17.3327 17.3333 13.6018 17.3333 8.99935C17.3333 4.39685 13.6025 0.666016 8.99996 0.666016ZM8.99996 2.33268C12.6816 2.33268 15.6666 5.31768 15.6666 8.99935C15.6666 12.278 13.2968 14.9978 10.1783 15.5553V11.5286H12.1494L12.4423 9.25814H10.1914V7.8112C10.1914 7.15453 10.3744 6.71094 11.316 6.71094H12.5058V4.68457C11.9267 4.6254 11.3452 4.59664 10.7627 4.59831C9.03432 4.59831 7.85087 5.65318 7.85087 7.58984V9.26139H5.89775V11.5319H7.85087V15.5602C4.71804 15.0145 2.33329 12.2882 2.33329 8.99935C2.33329 5.31768 5.31829 2.33268 8.99996 2.33268Z" fill="#8E98A3"/>
</svg>
