<svg width="12" height="12" viewBox="0 0 12 12" fill="none" xmlns="http://www.w3.org/2000/svg">
<path d="M11.6178 11.6179C11.1083 12.1274 10.2852 12.1274 9.7757 11.6179L5.99998 7.84213L2.22426 11.6179C1.71473 12.1274 0.891652 12.1274 0.382126 11.6179C0.137484 11.3738 0 11.0424 0 10.6968C0 10.3512 0.137484 10.0198 0.382126 9.77572L4.15785 6L0.382126 2.22428C0.137484 1.98019 0 1.6488 0 1.30321C0 0.957625 0.137484 0.626236 0.382126 0.382145C0.891652 -0.127382 1.71473 -0.127382 2.22426 0.382145L5.99998 4.15787L9.7757 0.382145C10.2852 -0.127382 11.1083 -0.127382 11.6178 0.382145C12.1274 0.891671 12.1274 1.71475 11.6178 2.22428L7.84211 6L11.6178 9.77572C12.1143 10.2722 12.1143 11.1083 11.6178 11.6179Z" fill="#FE634C"/>
</svg>
