<svg width="16" height="16" viewBox="0 0 16 16" fill="none" xmlns="http://www.w3.org/2000/svg">
<path d="M5.11994 0.0839844C3.67582 0.0839844 2.48973 1.11741 2.48973 2.37565V11.5423C2.48973 12.8006 3.67582 13.834 5.11994 13.834H12.7715C14.2156 13.834 15.4017 12.8006 15.4017 11.5423V2.37565C15.4017 1.11741 14.2156 0.0839844 12.7715 0.0839844H5.11994ZM5.11994 1.33398H12.7715C13.4401 1.33398 13.967 1.79306 13.967 2.37565V11.5423C13.967 12.1249 13.4401 12.584 12.7715 12.584H5.11994C4.45128 12.584 3.92439 12.1249 3.92439 11.5423V2.37565C3.92439 1.79306 4.45128 1.33398 5.11994 1.33398ZM1.53329 2.16732L0.950462 2.50586C0.418203 2.81503 0.0986328 3.33549 0.0986328 3.89258V11.959C0.0986328 14.1452 2.1325 15.9173 4.64172 15.9173H11.0304C11.6703 15.9173 12.2676 15.6389 12.622 15.1751L13.0106 14.6673H4.64172C2.92491 14.6673 1.53329 13.4548 1.53329 11.959V2.16732Z" fill="#8E98A3"/>
</svg>
