<svg width="22" height="22" viewBox="0 0 22 22" fill="none" xmlns="http://www.w3.org/2000/svg">
  <mask id="path-1-outside-1" maskUnits="userSpaceOnUse" x="2.6665" y="2.66602" width="15" height="16" fill="black">
    <rect fill="white" x="2.6665" y="2.66602" width="15" height="16" />
    <path fill-rule="evenodd" clip-rule="evenodd"
      d="M10.0833 14.0179V4.12435C10.0833 3.87122 10.2885 3.66602 10.5416 3.66602C10.7947 3.66602 10.9999 3.87122 10.9999 4.12435V14.0179L13.8838 11.1332C14.063 10.954 14.3536 10.954 14.5328 11.1332C14.712 11.3124 14.712 11.603 14.5328 11.7822L10.8661 15.4489C10.7801 15.5351 10.6634 15.5835 10.5416 15.5835C10.4199 15.5835 10.3031 15.5351 10.2171 15.4489L6.55045 11.7822C6.37123 11.603 6.37123 11.3124 6.55045 11.1332C6.72966 10.954 7.02023 10.954 7.19945 11.1332L10.0833 14.0179ZM4.12484 18.3327C3.87171 18.3327 3.6665 18.1275 3.6665 17.8743C3.6665 17.6212 3.87171 17.416 4.12484 17.416H16.9582C17.2113 17.416 17.4165 17.6212 17.4165 17.8743C17.4165 18.1275 17.2113 18.3327 16.9582 18.3327H4.12484Z" />
  </mask>
  <path fill-rule="evenodd" clip-rule="evenodd"
    d="M10.0833 14.0179V4.12435C10.0833 3.87122 10.2885 3.66602 10.5416 3.66602C10.7947 3.66602 10.9999 3.87122 10.9999 4.12435V14.0179L13.8838 11.1332C14.063 10.954 14.3536 10.954 14.5328 11.1332C14.712 11.3124 14.712 11.603 14.5328 11.7822L10.8661 15.4489C10.7801 15.5351 10.6634 15.5835 10.5416 15.5835C10.4199 15.5835 10.3031 15.5351 10.2171 15.4489L6.55045 11.7822C6.37123 11.603 6.37123 11.3124 6.55045 11.1332C6.72966 10.954 7.02023 10.954 7.19945 11.1332L10.0833 14.0179ZM4.12484 18.3327C3.87171 18.3327 3.6665 18.1275 3.6665 17.8743C3.6665 17.6212 3.87171 17.416 4.12484 17.416H16.9582C17.2113 17.416 17.4165 17.6212 17.4165 17.8743C17.4165 18.1275 17.2113 18.3327 16.9582 18.3327H4.12484Z"
    fill="white" />
  <path
    d="M10.0833 14.0179L9.94184 14.1593L10.2833 14.5009V14.0179H10.0833ZM10.9999 14.0179H10.7999V14.5009L11.1414 14.1593L10.9999 14.0179ZM13.8838 11.1332L13.7424 10.9918L13.7423 10.9918L13.8838 11.1332ZM14.5328 11.7822L14.6742 11.9236L14.5328 11.7822ZM10.8661 15.4489L10.7247 15.3074L10.7245 15.3076L10.8661 15.4489ZM10.2171 15.4489L10.3587 15.3076L10.3585 15.3074L10.2171 15.4489ZM6.55045 11.7822L6.40903 11.9236L6.55045 11.7822ZM7.19945 11.1332L7.34089 10.9918L7.34087 10.9918L7.19945 11.1332ZM10.2833 14.0179V4.12435H9.88328V14.0179H10.2833ZM10.2833 4.12435C10.2833 3.98168 10.3989 3.86602 10.5416 3.86602V3.46602C10.178 3.46602 9.88328 3.76076 9.88328 4.12435H10.2833ZM10.5416 3.86602C10.6843 3.86602 10.7999 3.98168 10.7999 4.12435H11.1999C11.1999 3.76076 10.9052 3.46602 10.5416 3.46602V3.86602ZM10.7999 4.12435V14.0179H11.1999V4.12435H10.7999ZM11.1414 14.1593L14.0252 11.2746L13.7423 10.9918L10.8585 13.8765L11.1414 14.1593ZM14.0252 11.2746C14.1263 11.1735 14.2902 11.1735 14.3914 11.2746L14.6742 10.9918C14.4169 10.7344 13.9997 10.7344 13.7424 10.9918L14.0252 11.2746ZM14.3914 11.2746C14.4925 11.3757 14.4925 11.5397 14.3914 11.6408L14.6742 11.9236C14.9315 11.6663 14.9315 11.2491 14.6742 10.9918L14.3914 11.2746ZM14.3914 11.6408L10.7247 15.3074L11.0075 15.5903L14.6742 11.9236L14.3914 11.6408ZM10.7245 15.3076C10.676 15.3562 10.6102 15.3835 10.5416 15.3835V15.7835C10.7165 15.7835 10.8842 15.7139 11.0077 15.5901L10.7245 15.3076ZM10.5416 15.3835C10.473 15.3835 10.4072 15.3562 10.3587 15.3076L10.0755 15.5901C10.199 15.7139 10.3667 15.7835 10.5416 15.7835V15.3835ZM10.3585 15.3074L6.69187 11.6408L6.40903 11.9236L10.0757 15.5903L10.3585 15.3074ZM6.69187 11.6408C6.59076 11.5397 6.59076 11.3757 6.69187 11.2746L6.40903 10.9918C6.15171 11.2491 6.15171 11.6663 6.40903 11.9236L6.69187 11.6408ZM6.69187 11.2746C6.79298 11.1735 6.95692 11.1735 7.05803 11.2746L7.34087 10.9918C7.08355 10.7344 6.66635 10.7344 6.40903 10.9918L6.69187 11.2746ZM7.058 11.2746L9.94184 14.1593L10.2247 13.8765L7.34089 10.9918L7.058 11.2746ZM4.12484 18.1327C3.98216 18.1327 3.8665 18.017 3.8665 17.8743H3.4665C3.4665 18.2379 3.76125 18.5327 4.12484 18.5327V18.1327ZM3.8665 17.8743C3.8665 17.7317 3.98216 17.616 4.12484 17.616V17.216C3.76125 17.216 3.4665 17.5108 3.4665 17.8743H3.8665ZM4.12484 17.616H16.9582V17.216H4.12484V17.616ZM16.9582 17.616C17.1008 17.616 17.2165 17.7317 17.2165 17.8743H17.6165C17.6165 17.5108 17.3218 17.216 16.9582 17.216V17.616ZM17.2165 17.8743C17.2165 18.017 17.1008 18.1327 16.9582 18.1327V18.5327C17.3218 18.5327 17.6165 18.2379 17.6165 17.8743H17.2165ZM16.9582 18.1327H4.12484V18.5327H16.9582V18.1327Z"
    fill="white" mask="url(#path-1-outside-1)" />
</svg>