<svg width="45" height="45" viewBox="0 0 45 45" fill="none" xmlns="http://www.w3.org/2000/svg">
<rect width="45" height="45" rx="22.5" fill="#353945"/>
<g clip-path="url(#clip0)">
<path d="M23.3125 11.5L23.1875 13.5C23.7891 13.5 24.3125 13.5859 24.8125 13.6875L25.1875 11.6875C24.5859 11.5859 23.9141 11.5 23.3125 11.5ZM21.0938 11.5938C20.3945 11.6953 19.6992 11.8867 19 12.1875L19.6875 14.0938C20.2891 13.8945 20.9062 13.6953 21.4062 13.5938L21.0938 11.5938ZM27 12.5L28 18.4062L29.8125 16.5938C31.1797 18.1758 32 20.25 32 22.5C32 25.0156 30.8828 27.3008 29.1875 29C28.7891 29.3984 28.3125 29.793 27.8125 30.0938L28.9062 31.8125C29.3086 31.582 29.6289 31.3086 29.9375 31.0312L29.9688 31.0625C32.3672 28.9922 34 25.9219 34 22.5C34 19.7188 32.9531 17.1406 31.2188 15.1875L32.9062 13.5L27 12.5ZM17 13.1875C16.3984 13.5859 15.8125 14.0938 15.3125 14.5938L15.3438 14.625C13.3125 16.6406 12 19.3789 12 22.5C12 25.2656 13.0234 27.8555 14.7812 29.8125L13.0938 31.5L19 32.5L18 26.5938L16.2188 28.375C14.8281 26.7969 14 24.7344 14 22.5C14 19.5234 15.4297 17.0195 17.625 15.2812C17.7773 15.1602 17.9258 15.043 18.0938 14.9062L17 13.1875ZM26.3125 30.8125C25.8125 31.0117 25.1953 31.2109 24.5938 31.3125L24.9062 33.3125C25.6055 33.2109 26.3008 32.9883 27 32.6875L26.3125 30.8125ZM21.3125 31.3125L20.9062 33.3125C21.5078 33.4141 22.0859 33.5 22.6875 33.5L22.8125 31.5C22.3125 31.5 21.8125 31.4141 21.3125 31.3125Z" fill="white"/>
</g>
<defs>
<clipPath id="clip0">
<rect width="24" height="24" fill="white" transform="translate(10.5 10.5)"/>
</clipPath>
</defs>
</svg>
