<svg width="16" height="16" viewBox="0 0 16 16" fill="none" xmlns="http://www.w3.org/2000/svg">
<path d="M1.16404 10.3634L1.89194 10.1827L1.16404 10.3634ZM1.16404 5.63656L0.43615 5.45582L1.16404 5.63656ZM14.836 5.63657L15.5639 5.45582L14.836 5.63657ZM14.836 10.3634L15.5639 10.5442L14.836 10.3634ZM10.3367 14.4942L10.1744 13.762L10.3367 14.4942ZM5.66332 14.4942L5.82557 13.762H5.82557L5.66332 14.4942ZM5.66332 1.50579L5.50107 0.773547L5.50107 0.773547L5.66332 1.50579ZM10.3367 1.50579L10.1744 2.23803V2.23803L10.3367 1.50579ZM5.32292 14.4188L5.16066 15.151L5.32292 14.4188ZM10.6771 14.4188L10.8393 15.151H10.8393L10.6771 14.4188ZM10.6771 1.58121L10.8393 0.848975V0.848975L10.6771 1.58121ZM5.32292 1.58121L5.48517 2.31345L5.32292 1.58121ZM2.66268 3.26505C2.32565 3.02425 1.85723 3.10227 1.61644 3.43931C1.37564 3.77634 1.45366 4.24476 1.7907 4.48556L2.66268 3.26505ZM6.56185 6.97253L6.12586 7.58278L6.56185 6.97253ZM9.43814 6.97253L9.87413 7.58278L9.43814 6.97253ZM14.2093 4.48556C14.5463 4.24476 14.6244 3.77634 14.3836 3.43931C14.1428 3.10227 13.6743 3.02425 13.3373 3.26505L14.2093 4.48556ZM5.48517 2.31345L5.82558 2.23802L5.50107 0.773547L5.16067 0.848975L5.48517 2.31345ZM10.1744 2.23803L10.5148 2.31345L10.8393 0.848975L10.4989 0.773547L10.1744 2.23803ZM10.5148 13.6865L10.1744 13.762L10.4989 15.2265L10.8393 15.151L10.5148 13.6865ZM5.82557 13.762L5.48517 13.6865L5.16066 15.151L5.50107 15.2265L5.82557 13.762ZM1.89194 10.1827C1.53602 8.74934 1.53602 7.25066 1.89194 5.81731L0.43615 5.45582C0.0212835 7.12656 0.0212834 8.87344 0.43615 10.5442L1.89194 10.1827ZM14.1081 5.81731C14.464 7.25066 14.464 8.74934 14.1081 10.1827L15.5639 10.5442C15.9787 8.87344 15.9787 7.12656 15.5639 5.45582L14.1081 5.81731ZM10.1744 13.762C8.74217 14.0793 7.25783 14.0793 5.82557 13.762L5.50107 15.2265C7.14707 15.5912 8.85293 15.5912 10.4989 15.2265L10.1744 13.762ZM5.82558 2.23802C7.25783 1.92066 8.74217 1.92066 10.1744 2.23803L10.4989 0.773547C8.85293 0.408818 7.14707 0.408817 5.50107 0.773547L5.82558 2.23802ZM5.48517 13.6865C3.71976 13.2954 2.32784 11.9382 1.89194 10.1827L0.43615 10.5442C1.00923 12.8521 2.83926 14.6366 5.16066 15.151L5.48517 13.6865ZM10.8393 15.151C13.1607 14.6366 14.9908 12.8521 15.5639 10.5442L14.1081 10.1827C13.6722 11.9382 12.2802 13.2954 10.5148 13.6865L10.8393 15.151ZM10.5148 2.31345C12.2802 2.70464 13.6722 4.06184 14.1081 5.81731L15.5639 5.45582C14.9908 3.14792 13.1607 1.36337 10.8393 0.848975L10.5148 2.31345ZM5.16067 0.848975C2.83926 1.36337 1.00923 3.14792 0.43615 5.45582L1.89194 5.81731C2.32784 4.06183 3.71977 2.70464 5.48517 2.31345L5.16067 0.848975ZM1.7907 4.48556L6.12586 7.58278L6.99785 6.36227L2.66268 3.26505L1.7907 4.48556ZM9.87413 7.58278L14.2093 4.48556L13.3373 3.26505L9.00215 6.36227L9.87413 7.58278ZM6.12586 7.58278C7.24696 8.38375 8.75303 8.38375 9.87413 7.58278L9.00215 6.36227C8.40265 6.79058 7.59735 6.79058 6.99785 6.36227L6.12586 7.58278Z" fill="#3F9AF7"/>
</svg>
