<svg width="14" height="16" viewBox="0 0 14 16" fill="none" xmlns="http://www.w3.org/2000/svg">
<path d="M4.7085 0.0839844C3.45026 0.0839844 2.41683 1.11741 2.41683 2.37565V11.5423C2.41683 12.8006 3.45026 13.834 4.7085 13.834H11.3752C12.6334 13.834 13.6668 12.8006 13.6668 11.5423V2.37565C13.6668 1.11741 12.6334 0.0839844 11.3752 0.0839844H4.7085ZM4.7085 1.33398H11.3752C11.9578 1.33398 12.4168 1.79306 12.4168 2.37565V11.5423C12.4168 12.1249 11.9578 12.584 11.3752 12.584H4.7085C4.1259 12.584 3.66683 12.1249 3.66683 11.5423V2.37565C3.66683 1.79306 4.1259 1.33398 4.7085 1.33398ZM1.5835 2.16732L1.07568 2.50586C0.611934 2.81503 0.333496 3.33549 0.333496 3.89258V11.959C0.333496 14.1452 2.10558 15.9173 4.29183 15.9173H9.85823C10.4157 15.9173 10.9362 15.6389 11.245 15.1751L11.5835 14.6673H4.29183C2.796 14.6673 1.5835 13.4548 1.5835 11.959V2.16732Z" fill="#8E98A3"/>
</svg>
