<svg width="20" height="12" viewBox="0 0 20 12" fill="none" xmlns="http://www.w3.org/2000/svg">
<path d="M10.375 0C3.63184 0 1.05859 5.36133 1.05859 5.36133L0.931641 5.625L1.05859 5.88867C1.05859 5.88867 3.63184 11.25 10.375 11.25C17.1182 11.25 19.6914 5.88867 19.6914 5.88867L19.8135 5.625L19.6914 5.36133C19.6914 5.36133 17.1182 0 10.375 0ZM10.375 1.25C12.7969 1.25 14.75 3.20312 14.75 5.625C14.75 8.04688 12.7969 10 10.375 10C7.95312 10 6 8.04688 6 5.625C6 3.20312 7.95312 1.25 10.375 1.25ZM5.92676 2.22168C5.19922 3.16895 4.75 4.34082 4.75 5.625C4.75 6.90918 5.19922 8.08106 5.92676 9.02832C3.5293 7.83691 2.55273 5.94238 2.39648 5.625C2.55273 5.30762 3.5293 3.41309 5.92676 2.22168ZM14.8232 2.22168C17.2207 3.41309 18.1973 5.30762 18.3535 5.625C18.1973 5.94238 17.2207 7.83691 14.8232 9.02832C15.5508 8.08106 16 6.90918 16 5.625C16 4.34082 15.5508 3.16895 14.8232 2.22168ZM10.375 3.75C9.33984 3.75 8.5 4.58984 8.5 5.625C8.5 6.66016 9.33984 7.5 10.375 7.5C11.4102 7.5 12.25 6.66016 12.25 5.625C12.25 4.58984 11.4102 3.75 10.375 3.75Z" fill="#8E98A3"/>
</svg>
