<svg width="12" height="13" viewBox="0 0 12 13" fill="none" xmlns="http://www.w3.org/2000/svg">
  <path fill-rule="evenodd" clip-rule="evenodd"
    d="M8.33333 2.33268H3.66667V2.62435C3.66667 2.78543 3.53608 2.91602 3.375 2.91602C3.21392 2.91602 3.08333 2.78543 3.08333 2.62435V2.33268H2.20833C1.72508 2.33268 1.33333 2.72443 1.33333 3.20768V4.66602H10.6667V3.20768C10.6667 2.72443 10.2749 2.33268 9.79167 2.33268H8.91667V2.62435C8.91667 2.78543 8.78608 2.91602 8.625 2.91602C8.46392 2.91602 8.33333 2.78543 8.33333 2.62435V2.33268ZM8.91667 1.74935H9.79167C10.5971 1.74935 11.25 2.40227 11.25 3.20768V10.7951C11.25 11.6005 10.5971 12.2534 9.79167 12.2534H2.20833C1.40292 12.2534 0.75 11.6005 0.75 10.7951V3.20768C0.75 2.40227 1.40292 1.74935 2.20833 1.74935H3.08333V1.45768C3.08333 1.2966 3.21392 1.16602 3.375 1.16602C3.53608 1.16602 3.66667 1.2966 3.66667 1.45768V1.74935H8.33333V1.45768C8.33333 1.2966 8.46392 1.16602 8.625 1.16602C8.78608 1.16602 8.91667 1.2966 8.91667 1.45768V1.74935ZM10.6667 5.24935H1.33333V10.7951C1.33333 11.2783 1.72508 11.6701 2.20833 11.6701H9.79167C10.2749 11.6701 10.6667 11.2783 10.6667 10.7951V5.24935Z"
    fill="#718096" />
  <path
    d="M8.33333 2.33268H8.53333V2.13268H8.33333V2.33268ZM3.66667 2.33268V2.13268H3.46667V2.33268H3.66667ZM3.08333 2.33268H3.28333V2.13268H3.08333V2.33268ZM1.33333 4.66602H1.13333V4.86602H1.33333V4.66602ZM10.6667 4.66602V4.86602H10.8667V4.66602H10.6667ZM8.91667 2.33268V2.13268H8.71667V2.33268H8.91667ZM8.91667 1.74935H8.71667V1.94935H8.91667V1.74935ZM3.08333 1.74935V1.94935H3.28333V1.74935H3.08333ZM3.66667 1.74935H3.46667V1.94935H3.66667V1.74935ZM8.33333 1.74935V1.94935H8.53333V1.74935H8.33333ZM10.6667 5.24935H10.8667V5.04935H10.6667V5.24935ZM1.33333 5.24935V5.04935H1.13333V5.24935H1.33333ZM8.33333 2.13268H3.66667V2.53268H8.33333V2.13268ZM3.46667 2.33268V2.62435H3.86667V2.33268H3.46667ZM3.46667 2.62435C3.46667 2.67498 3.42563 2.71602 3.375 2.71602V3.11602C3.64654 3.11602 3.86667 2.89589 3.86667 2.62435H3.46667ZM3.375 2.71602C3.32437 2.71602 3.28333 2.67498 3.28333 2.62435H2.88333C2.88333 2.89589 3.10346 3.11602 3.375 3.11602V2.71602ZM3.28333 2.62435V2.33268H2.88333V2.62435H3.28333ZM3.08333 2.13268H2.20833V2.53268H3.08333V2.13268ZM2.20833 2.13268C1.61463 2.13268 1.13333 2.61398 1.13333 3.20768H1.53333C1.53333 2.83489 1.83554 2.53268 2.20833 2.53268V2.13268ZM1.13333 3.20768V4.66602H1.53333V3.20768H1.13333ZM1.33333 4.86602H10.6667V4.46602H1.33333V4.86602ZM10.8667 4.66602V3.20768H10.4667V4.66602H10.8667ZM10.8667 3.20768C10.8667 2.61398 10.3854 2.13268 9.79167 2.13268V2.53268C10.1645 2.53268 10.4667 2.83489 10.4667 3.20768H10.8667ZM9.79167 2.13268H8.91667V2.53268H9.79167V2.13268ZM8.71667 2.33268V2.62435H9.11667V2.33268H8.71667ZM8.71667 2.62435C8.71667 2.67498 8.67563 2.71602 8.625 2.71602V3.11602C8.89654 3.11602 9.11667 2.89589 9.11667 2.62435H8.71667ZM8.625 2.71602C8.57437 2.71602 8.53333 2.67498 8.53333 2.62435H8.13333C8.13333 2.89589 8.35346 3.11602 8.625 3.11602V2.71602ZM8.53333 2.62435V2.33268H8.13333V2.62435H8.53333ZM8.91667 1.94935H9.79167V1.54935H8.91667V1.94935ZM9.79167 1.94935C10.4866 1.94935 11.05 2.51272 11.05 3.20768H11.45C11.45 2.29181 10.7075 1.54935 9.79167 1.54935V1.94935ZM11.05 3.20768V10.7951H11.45V3.20768H11.05ZM11.05 10.7951C11.05 11.4901 10.4866 12.0534 9.79167 12.0534V12.4534C10.7075 12.4534 11.45 11.711 11.45 10.7951H11.05ZM9.79167 12.0534H2.20833V12.4534H9.79167V12.0534ZM2.20833 12.0534C1.51337 12.0534 0.95 11.4901 0.95 10.7951H0.55C0.55 11.711 1.29246 12.4534 2.20833 12.4534V12.0534ZM0.95 10.7951V3.20768H0.55V10.7951H0.95ZM0.95 3.20768C0.95 2.51272 1.51337 1.94935 2.20833 1.94935V1.54935C1.29246 1.54935 0.55 2.29181 0.55 3.20768H0.95ZM2.20833 1.94935H3.08333V1.54935H2.20833V1.94935ZM3.28333 1.74935V1.45768H2.88333V1.74935H3.28333ZM3.28333 1.45768C3.28333 1.40706 3.32437 1.36602 3.375 1.36602V0.966016C3.10346 0.966016 2.88333 1.18614 2.88333 1.45768H3.28333ZM3.375 1.36602C3.42563 1.36602 3.46667 1.40706 3.46667 1.45768H3.86667C3.86667 1.18614 3.64654 0.966016 3.375 0.966016V1.36602ZM3.46667 1.45768V1.74935H3.86667V1.45768H3.46667ZM3.66667 1.94935H8.33333V1.54935H3.66667V1.94935ZM8.53333 1.74935V1.45768H8.13333V1.74935H8.53333ZM8.53333 1.45768C8.53333 1.40706 8.57437 1.36602 8.625 1.36602V0.966016C8.35346 0.966016 8.13333 1.18614 8.13333 1.45768H8.53333ZM8.625 1.36602C8.67563 1.36602 8.71667 1.40706 8.71667 1.45768H9.11667C9.11667 1.18614 8.89654 0.966016 8.625 0.966016V1.36602ZM8.71667 1.45768V1.74935H9.11667V1.45768H8.71667ZM10.6667 5.04935H1.33333V5.44935H10.6667V5.04935ZM1.13333 5.24935V10.7951H1.53333V5.24935H1.13333ZM1.13333 10.7951C1.13333 11.3888 1.61463 11.8701 2.20833 11.8701V11.4701C1.83554 11.4701 1.53333 11.1679 1.53333 10.7951H1.13333ZM2.20833 11.8701H9.79167V11.4701H2.20833V11.8701ZM9.79167 11.8701C10.3854 11.8701 10.8667 11.3888 10.8667 10.7951H10.4667C10.4667 11.1679 10.1645 11.4701 9.79167 11.4701V11.8701ZM10.8667 10.7951V5.24935H10.4667V10.7951H10.8667Z"
    fill="#718096" />
</svg>