<svg width="16" height="13" viewBox="0 0 16 13" fill="none" xmlns="http://www.w3.org/2000/svg">
<path d="M5.75 0.25C3.89111 0.25 2.375 1.76611 2.375 3.625C2.375 5.48389 3.89111 7 5.75 7C7.60889 7 9.125 5.48389 9.125 3.625C9.125 1.76611 7.60889 0.25 5.75 0.25ZM5.75 7C2.65186 7 0.125 9.52686 0.125 12.625H1.25C1.25 10.1333 3.2583 8.125 5.75 8.125C8.2417 8.125 10.25 10.1333 10.25 12.625H11.375C11.375 9.52686 8.84814 7 5.75 7ZM5.75 1.375C6.99805 1.375 8 2.37695 8 3.625C8 4.87305 6.99805 5.875 5.75 5.875C4.50195 5.875 3.5 4.87305 3.5 3.625C3.5 2.37695 4.50195 1.375 5.75 1.375ZM10.25 2.5V3.625H15.875V2.5H10.25ZM10.25 4.75V5.875H15.875V4.75H10.25ZM10.25 7V8.125H15.875V7H10.25Z" fill="#334D6E"/>
</svg>
