<svg width="21" height="18" viewBox="0 0 21 18" fill="none" xmlns="http://www.w3.org/2000/svg">
  <path fill-rule="evenodd" clip-rule="evenodd"
    d="M2.02362 1.16779e-05C1.0119 0.00391768 0.00799256 1.00001 0.0236176 2.00001V16C0.0158046 17.0078 1.0158 18 2.02362 18C7.04315 17.9961 12.7619 18 18.0197 18C19.0119 18 20.0275 16.9922 20.0197 16C20.0002 11.543 20.0158 6.85548 20.0197 2.00001C20.0236 0.972668 19.0158 -0.00389432 18.0197 1.16779e-05H2.02362ZM2.02362 4.00001H18.0197C18.0314 7.92579 18.09 15.9844 18.0197 16C18.0041 16.0039 2.02362 16 2.02362 16V4.00001ZM9.9533 6.02345C9.66424 6.02345 9.37909 6.03907 9.09784 6.07814H9.0744C9.06268 6.08204 9.05096 6.08204 9.03924 6.08595H9.0158L9.00409 6.08986H9.00018L8.99237 6.09376H8.95721L8.9533 6.09767L8.92596 6.10157H8.92205L8.8869 6.10939H8.85955L8.85174 6.11329H8.84393L8.8283 6.1172H8.81268V6.12111C8.57049 6.16407 8.33612 6.21876 8.10565 6.28517L8.09002 6.28907L8.07049 6.29689H8.06659C8.04705 6.3047 8.01971 6.30861 8.00018 6.32032H7.99237L7.97284 6.32423L7.96502 6.32814H7.9533L7.94549 6.33595L7.92987 6.33986L7.92205 6.34376H7.91424L7.8908 6.35157C7.87909 6.35548 7.86737 6.35939 7.85955 6.36329C6.65643 6.76954 5.62909 7.51954 4.88299 8.48829L4.86737 8.51173L4.85174 8.52736C4.5119 8.97657 4.23455 9.46876 4.02362 10C4.12127 10.2461 4.23065 10.4844 4.35955 10.7149L4.37127 10.7383C4.37518 10.7461 4.38299 10.7539 4.3869 10.7617V10.7656L4.3908 10.7695L4.39862 10.7852L4.41424 10.8086V10.8125L4.42205 10.8242L4.42596 10.832H4.42987V10.8399L4.43768 10.8477V10.8555L4.44549 10.8633L4.4533 10.875V10.8789L4.46893 10.9024V10.9063L4.47674 10.9141L4.48065 10.9219V10.9258H4.48455C4.70721 11.2969 4.96893 11.6445 5.2658 11.9649L5.27362 11.9727L5.28143 11.9844H5.28534L5.30487 12.0039L5.31268 12.0156L5.32049 12.0195V12.0234L5.3283 12.0274L5.33612 12.0352L5.34002 12.043L5.34784 12.0469L5.35565 12.0586L5.37518 12.0781H5.37909L5.3908 12.0938L5.39862 12.0977V12.1016L5.41424 12.1211C5.42596 12.125 5.42987 12.1328 5.43768 12.1406L5.46112 12.1641V12.168L5.46893 12.1719L5.47674 12.1836L5.49237 12.1914L5.50018 12.2031L5.50799 12.2109V12.2149H5.5119C5.94159 12.625 6.43377 12.9805 6.96893 13.2578V13.2617H6.97284L6.99627 13.2695L7.00409 13.2774L7.0119 13.2813L7.02362 13.2852L7.05487 13.3008L7.05877 13.3047H7.06268V13.3086L7.0783 13.3125L7.08612 13.3164H7.09002L7.09393 13.3203L7.11737 13.332C7.12518 13.3359 7.13299 13.3399 7.1408 13.3438H7.14471L7.14862 13.3477L7.17205 13.3594H7.17987C8.01581 13.7578 8.93377 13.9219 9.93768 13.9219C10.8127 13.9219 11.6642 13.8086 12.4221 13.5039H12.4338L12.4377 13.5H12.4416L12.4533 13.4961L12.4572 13.4922L12.465 13.4883H12.4689C12.4767 13.4844 12.4846 13.4805 12.4924 13.4805C12.5002 13.4766 12.508 13.4727 12.5158 13.4688H12.5236L12.5471 13.457V13.4531C12.5549 13.4531 12.5627 13.4492 12.5705 13.4453L12.5744 13.4414H12.5783L12.5861 13.4375H12.5939L12.6017 13.4336L12.6135 13.4258L12.6252 13.4219H12.6291L12.6408 13.418V13.4141C13.3439 13.1016 13.9806 12.6719 14.5197 12.1524H14.5236L14.5314 12.1406L14.5471 12.1289L14.5549 12.1211L14.5588 12.1133L14.5744 12.0977H14.5783C14.5822 12.0899 14.5861 12.0859 14.5939 12.0781L14.5978 12.0742L14.6096 12.0664L14.6135 12.0625V12.0586H14.6174C14.6252 12.0508 14.6291 12.043 14.6369 12.0352L14.6603 12.0117L14.6721 12.0039V12L14.6994 11.9727V11.9688H14.7033L14.7111 11.957L14.7189 11.9531L14.7346 11.9375V11.9336L14.7658 11.9024L14.7697 11.8945L14.7775 11.8906L14.7814 11.8867V11.8828L14.7853 11.8789C15.008 11.6367 15.2111 11.375 15.3947 11.0977C15.4103 11.0742 15.426 11.0508 15.4416 11.0274L15.4494 11.0195V11.0156L15.4533 11.0117L15.4572 11.0039V11L15.465 10.9961L15.4689 10.9883V10.9844L15.4728 10.9805L15.4767 10.9727L15.4846 10.9649V10.9609C15.4885 10.9531 15.4924 10.9453 15.4963 10.9375H15.5002V10.9336L15.5119 10.9219V10.918L15.5158 10.9141V10.9063L15.5197 10.9024L15.5275 10.8906L15.5314 10.8867V10.8789L15.5392 10.8711L15.5431 10.8633L15.5471 10.8594C15.551 10.8516 15.5549 10.8477 15.5588 10.8399L15.5705 10.8164C15.7228 10.5586 15.8596 10.2813 15.9689 10C15.801 9.57814 15.59 9.1797 15.3322 8.80861L15.3088 8.76954L15.2892 8.74611L15.2736 8.72267L15.2541 8.69923L15.2306 8.66017C14.4689 7.6172 13.3791 6.80861 12.1056 6.37501L12.0744 6.3672L12.0392 6.35157L12.0197 6.34767L11.9533 6.32814L11.8986 6.30861L11.8166 6.28126C11.5549 6.20704 11.2853 6.14845 11.0119 6.10548L10.9533 6.09376H10.9338L10.8869 6.08595L10.8244 6.07814L10.7814 6.07032H10.7619L10.7189 6.06251C10.7111 6.06251 10.7033 6.06251 10.6916 6.06251C10.4533 6.03517 10.2033 6.02345 9.9533 6.02345ZM9.92205 7.01564C9.99627 7.01564 9.99627 7.01564 10.0744 7.01564C10.1994 7.02345 10.3244 7.03126 10.4494 7.05079H10.4689L10.4728 7.0547L10.4846 7.05861H10.5002L10.508 7.06251H10.5353L10.5392 7.06642H10.5549C10.8127 7.1172 11.0627 7.19923 11.2971 7.31251L11.301 7.31642L11.3127 7.32032L11.3166 7.32423L11.3283 7.32814L11.3361 7.33204L11.34 7.33595L11.3556 7.34376L11.3752 7.35157L11.3791 7.35548L11.3908 7.35939L11.3947 7.36329C12.1838 7.78126 12.758 8.55079 12.926 9.42579V9.43361L12.9338 9.44923V9.45314L12.9377 9.47267V9.49611L12.9416 9.50392V9.51564L12.9455 9.52345V9.53126L12.9494 9.53907V9.54689L12.9533 9.56251V9.59767L12.9572 9.60548V9.62501L12.9611 9.63673V9.64064L12.965 9.65626V9.67189L12.9689 9.6797V9.71486C12.9767 9.80861 12.9846 9.90236 12.9846 10C12.9846 10.1016 12.9806 10.2031 12.9689 10.3047V10.3203L12.965 10.3281V10.3594H12.9611L12.9572 10.3789V10.3945L12.9533 10.4024V10.4375L12.9455 10.4688V10.4727L12.9416 10.4883V10.4922L12.9377 10.5117V10.5313L12.9338 10.5391C12.8908 10.7734 12.8205 11 12.7228 11.2188L12.7189 11.2305V11.2344L12.715 11.2422L12.7072 11.25L12.7033 11.2578V11.2656L12.6994 11.2734L12.6955 11.2774L12.6877 11.293L12.6838 11.3086L12.676 11.3125L12.6721 11.3242V11.332L12.6642 11.3399L12.6525 11.3633V11.3711L12.6447 11.3789L12.6408 11.3867L12.6369 11.3984C12.5002 11.6524 12.3283 11.8828 12.1291 12.0899H12.1252L12.1017 12.1133L12.0939 12.125L12.09 12.1289L12.0783 12.1367L12.0744 12.1406L12.0666 12.1445L12.0588 12.1563L12.0471 12.1719L12.0353 12.1758L12.0314 12.1836L12.0236 12.1875L12.0197 12.1953L12.0119 12.2031H12.0041L11.9963 12.2149V12.2188L11.9846 12.2305C11.7658 12.418 11.5275 12.5781 11.2658 12.7031L11.2502 12.707L11.2346 12.7149V12.7188H11.2189L11.215 12.7227L11.2033 12.7305L11.1994 12.7344H11.1877L11.1564 12.75C10.7971 12.9024 10.4064 12.9805 10.0158 12.9844H9.97674C9.58612 12.9805 9.19549 12.9024 8.83221 12.75L8.81659 12.7422L8.79705 12.7344L8.7619 12.7188L8.72284 12.7031C8.46502 12.5781 8.22284 12.418 8.0119 12.2305L7.98455 12.2031L7.96112 12.1836L7.93768 12.1563L7.91034 12.1367L7.8908 12.1133L7.86346 12.0899C7.66424 11.8828 7.49237 11.6524 7.35955 11.3984L7.34393 11.3711L7.3283 11.3399L7.31268 11.3125L7.29705 11.2774L7.28143 11.25L7.2658 11.2188C7.17205 11 7.10174 10.7734 7.05487 10.5391V10.5313L7.04705 10.4922L7.04315 10.4531L7.03924 10.4219L7.03143 10.3867L7.02752 10.3438L7.02362 10.3047C7.0119 10.2031 7.00799 10.1016 7.00799 10C7.00799 9.90236 7.0119 9.80861 7.02362 9.71486V9.67189L7.02752 9.66017V9.65626L7.03143 9.64064V9.61329L7.03534 9.60548V9.59767L7.03924 9.58986V9.56251L7.04315 9.54689L7.04705 9.53907V9.50392L7.05487 9.48829V9.47267L7.05877 9.45314L7.06268 9.44923V9.42579C7.23455 8.55079 7.80877 7.78126 8.59393 7.36329L8.59784 7.35939L8.61346 7.35548L8.61737 7.35157L8.6369 7.34376L8.65252 7.33595L8.65643 7.33204L8.66815 7.32814L8.67205 7.32423L8.68768 7.31642L8.69159 7.31251C8.92987 7.19923 9.17987 7.1172 9.43768 7.06642H9.4533V7.06251H9.48455L9.48846 7.05861H9.50799L9.51971 7.0547L9.52362 7.05079H9.54315C9.66815 7.03126 9.79315 7.02345 9.92205 7.01564ZM9.99627 8.01173C9.96112 8.01173 9.92596 8.01173 9.8908 8.01564C9.59393 8.03126 9.31268 8.10939 9.06268 8.24611H9.05877L9.04705 8.25001L9.03534 8.25782L9.02752 8.26564H9.01971L9.0158 8.26954H9.0119C8.5158 8.5547 8.15252 9.04298 8.04315 9.62111L8.03924 9.62501L8.03534 9.63282V9.64845L8.03143 9.66017V9.68751H8.02752C8.02362 9.70314 8.02752 9.71486 8.02362 9.73048H8.01971C8.01971 9.73829 8.01971 9.7422 8.01971 9.75001V9.76173L8.0158 9.76954C8.0158 9.77736 8.0158 9.78126 8.0158 9.78517V9.79298C8.0158 9.79689 8.0158 9.8047 8.0158 9.81251L8.0119 9.82423V9.83204C8.0119 9.83986 8.0119 9.84376 8.0119 9.84767V9.86329L8.00799 9.87111V9.88673C8.00799 9.89845 8.00409 9.91017 8.00409 9.92189C8.00409 9.98048 8.00409 10.0313 8.00409 10.0899V10.0938C8.00799 10.1016 8.00799 10.1133 8.00799 10.125V10.1289L8.0119 10.1328V10.1602C8.0119 10.168 8.0119 10.1758 8.0119 10.1797L8.0158 10.1836V10.2031C8.0158 10.207 8.0158 10.2149 8.0158 10.2188V10.2227C8.0158 10.2305 8.01971 10.2344 8.01971 10.2383V10.2656C8.01971 10.2695 8.02362 10.2734 8.02362 10.2813H8.02752C8.02752 10.2969 8.02752 10.3047 8.03143 10.3164V10.3399C8.03534 10.3477 8.03534 10.3477 8.03534 10.3555V10.3594C8.06659 10.5156 8.11346 10.668 8.17596 10.8125C8.18377 10.8242 8.18768 10.832 8.19159 10.8438V10.8477C8.19549 10.8516 8.1994 10.8555 8.2033 10.8594V10.875H8.20721L8.21112 10.8828V10.8867L8.21502 10.8906H8.21893V10.9024L8.22284 10.9063V10.9102H8.22674L8.23065 10.918V10.9219H8.23455V10.9336C8.3283 11.1016 8.44158 11.2578 8.5744 11.3906L8.5783 11.3984V11.4024H8.58221L8.59002 11.4063L8.59393 11.4102V11.4141L8.60174 11.4219H8.60565L8.60955 11.4258L8.61346 11.4336L8.62909 11.4492L8.6369 11.4531H8.6408L8.64471 11.4609V11.4649H8.64862L8.65252 11.4688H8.65643V11.4727L8.66034 11.4766V11.4805H8.66815L8.67205 11.4844C8.81268 11.6133 8.97284 11.7188 9.14862 11.8008H9.15643V11.8047L9.16034 11.8086H9.16815V11.8125H9.17987L9.18377 11.8164H9.18768L9.19159 11.8203L9.1994 11.8242L9.2033 11.8281H9.21112C9.21502 11.832 9.21502 11.8281 9.21893 11.832C9.45721 11.9297 9.71112 11.9844 9.98455 11.9883H10.008C10.2775 11.9844 10.5353 11.9297 10.7697 11.832C10.7736 11.8281 10.7775 11.832 10.7814 11.8281H10.7853L10.7931 11.8242L10.801 11.8164H10.8088L10.8127 11.8125H10.8244L10.8322 11.8047L10.84 11.8008H10.8439C11.0197 11.7188 11.176 11.6133 11.3205 11.4844L11.3283 11.4805V11.4766L11.3361 11.4688H11.34L11.3478 11.4609L11.3517 11.4531H11.3596V11.4492L11.3791 11.4336V11.4258L11.3869 11.4219H11.3908L11.3947 11.418V11.4141L11.4025 11.4102V11.4063H11.4064V11.4024H11.4103V11.3984L11.4181 11.3906C11.551 11.2578 11.6642 11.1016 11.7541 10.9336L11.758 10.9258L11.7658 10.918V10.9102L11.7697 10.9063V10.8984L11.7775 10.8945V10.8906L11.7814 10.8867V10.875H11.7853C11.7853 10.8672 11.7892 10.8672 11.7931 10.8594L11.7971 10.8516V10.8438C11.8049 10.832 11.8088 10.8242 11.8127 10.8125C11.8791 10.668 11.926 10.5156 11.9533 10.3594V10.3555C11.9572 10.3477 11.9572 10.3477 11.9572 10.3399L11.9611 10.3281V10.3203L11.965 10.3164C11.965 10.3047 11.965 10.2969 11.9689 10.2813V10.2539L11.9728 10.2422V10.2383C11.9728 10.2344 11.9728 10.2305 11.9728 10.2227V10.2188C11.9767 10.2149 11.9767 10.207 11.9767 10.2031V10.1992L11.9806 10.1914V10.1797C11.9806 10.1758 11.9806 10.168 11.9806 10.1602V10.1524L11.9846 10.1445V10.125C11.9846 10.1133 11.9846 10.1016 11.9846 10.0938V10.0899C11.9885 10.0313 11.9885 9.98048 11.9846 9.92189V9.87111L11.9767 9.79298L11.9689 9.73048L11.965 9.68751L11.9611 9.67189L11.9533 9.64845V9.62111C11.8361 9.02345 11.4494 8.51954 10.9299 8.2422L10.9181 8.23439L10.8908 8.22267C10.633 8.09376 10.3478 8.01954 10.0471 8.01173C10.0314 8.01173 10.0119 8.01173 9.99627 8.01173Z"
    fill="white" />
</svg>