<svg width="19" height="20" viewBox="0 0 19 20" fill="none" xmlns="http://www.w3.org/2000/svg">
<path d="M9.66602 0.943359C4.66602 0.943359 0.603516 5.03004 0.603516 10.0598C0.603516 15.0896 4.66602 19.1762 9.66602 19.1762C14.666 19.1762 18.7285 15.0896 18.7285 10.0598C18.7285 5.03004 14.666 0.943359 9.66602 0.943359ZM9.66602 1.88644C14.1504 1.88644 17.791 5.54873 17.791 10.0598C17.791 14.5709 14.1504 18.2332 9.66602 18.2332C5.18164 18.2332 1.54102 14.5709 1.54102 10.0598C1.54102 5.54873 5.18164 1.88644 9.66602 1.88644ZM9.66602 5.97312C9.40039 5.97312 9.19727 6.17745 9.19727 6.44466V7.23056C9.19727 7.49777 9.40039 7.7021 9.66602 7.7021C9.93164 7.7021 10.1348 7.49777 10.1348 7.23056V6.44466C10.1348 6.17745 9.93164 5.97312 9.66602 5.97312ZM9.66602 9.11672C9.40039 9.11672 9.19727 9.32106 9.19727 9.58826V13.6749C9.19727 13.9421 9.40039 14.1465 9.66602 14.1465C9.93164 14.1465 10.1348 13.9421 10.1348 13.6749V9.58826C10.1348 9.32106 9.93164 9.11672 9.66602 9.11672Z" fill="#8E98A3"/>
</svg>
