<svg width="20" height="20" viewBox="0 0 20 20" fill="none" xmlns="http://www.w3.org/2000/svg">
  <path fill-rule="evenodd" clip-rule="evenodd"
    d="M5.42417 4.57613C5.18985 4.34181 4.80995 4.34181 4.57564 4.57613C4.34132 4.81044 4.34132 5.19034 4.57564 5.42465L9.15137 10.0004L4.57564 14.5761C4.34132 14.8104 4.34132 15.1903 4.57564 15.4247C4.80995 15.659 5.18985 15.659 5.42417 15.4247L9.9999 10.8489L14.5756 15.4247C14.81 15.659 15.1899 15.659 15.4242 15.4247C15.6585 15.1903 15.6585 14.8104 15.4242 14.5761L10.8484 10.0004L15.4242 5.42465C15.6585 5.19034 15.6585 4.81044 15.4242 4.57613C15.1899 4.34181 14.81 4.34181 14.5756 4.57613L9.9999 9.15186L5.42417 4.57613Z"
    fill="#8E98A3" />
</svg>