<svg width="20" height="18" viewBox="0 0 20 18" fill="none" xmlns="http://www.w3.org/2000/svg">
<path d="M13.8965 0.75C13.1135 0.75 12.4392 1.06837 12.0077 1.55387C11.7399 1.85513 11.5901 2.21259 11.4929 2.58333H1.52151C1.43041 2.58204 1.33996 2.59888 1.25542 2.63285C1.17088 2.66682 1.09393 2.71726 1.02905 2.78122C0.964174 2.84519 0.912655 2.92142 0.877491 3.00547C0.842327 3.08952 0.824219 3.17972 0.824219 3.27083C0.824219 3.36194 0.842327 3.45215 0.877491 3.5362C0.912655 3.62025 0.964174 3.69648 1.02905 3.76044C1.09393 3.82441 1.17088 3.87485 1.25542 3.90882C1.33996 3.94279 1.43041 3.95962 1.52151 3.95833H11.4929C11.5901 4.32907 11.7399 4.68653 12.0077 4.98779C12.4392 5.47329 13.1135 5.79167 13.8965 5.79167C14.6795 5.79167 15.3538 5.47329 15.7853 4.98779C16.0531 4.68653 16.2029 4.32907 16.3001 3.95833H18.4798C18.5709 3.95962 18.6614 3.94279 18.7459 3.90882C18.8305 3.87485 18.9074 3.82441 18.9723 3.76044C19.0372 3.69648 19.0887 3.62025 19.1239 3.5362C19.159 3.45215 19.1771 3.36194 19.1771 3.27083C19.1771 3.17972 19.159 3.08952 19.1239 3.00547C19.0887 2.92142 19.0372 2.84519 18.9723 2.78122C18.9074 2.71726 18.8305 2.66682 18.7459 2.63285C18.6614 2.59888 18.5709 2.58204 18.4798 2.58333H16.3001C16.2029 2.21259 16.0531 1.85513 15.7853 1.55387C15.3538 1.06837 14.6795 0.75 13.8965 0.75ZM13.8965 2.125C14.3357 2.125 14.5781 2.26496 14.7577 2.46696C14.9372 2.66896 15.0423 2.96528 15.0423 3.27083C15.0423 3.57639 14.9372 3.87271 14.7577 4.07471C14.5781 4.27671 14.3357 4.41667 13.8965 4.41667C13.4573 4.41667 13.2149 4.27671 13.0353 4.07471C12.8558 3.87271 12.7507 3.57639 12.7507 3.27083C12.7507 2.96528 12.8558 2.66896 13.0353 2.46696C13.2149 2.26496 13.4573 2.125 13.8965 2.125ZM6.10484 6.47917C5.32186 6.47917 4.64756 6.79754 4.21601 7.28304C3.94822 7.5843 3.79842 7.94176 3.70128 8.3125H1.52151C1.43041 8.31121 1.33996 8.32804 1.25542 8.36201C1.17088 8.39599 1.09393 8.44642 1.02905 8.51039C0.964174 8.57436 0.912655 8.65058 0.877491 8.73463C0.842327 8.81869 0.824219 8.90889 0.824219 9C0.824219 9.09111 0.842327 9.18131 0.877491 9.26537C0.912655 9.34942 0.964174 9.42564 1.02905 9.48961C1.09393 9.55358 1.17088 9.60401 1.25542 9.63799C1.33996 9.67196 1.43041 9.68879 1.52151 9.6875H3.70128C3.79842 10.0582 3.94822 10.4157 4.21601 10.717C4.64756 11.2025 5.32186 11.5208 6.10484 11.5208C6.88783 11.5208 7.56212 11.2025 7.99368 10.717C8.26146 10.4157 8.41127 10.0582 8.50841 9.6875H18.4798C18.5709 9.68879 18.6614 9.67196 18.7459 9.63799C18.8305 9.60401 18.9074 9.55358 18.9723 9.48961C19.0372 9.42564 19.0887 9.34942 19.1239 9.26537C19.159 9.18131 19.1771 9.09111 19.1771 9C19.1771 8.90889 19.159 8.81869 19.1239 8.73463C19.0887 8.65058 19.0372 8.57436 18.9723 8.51039C18.9074 8.44642 18.8305 8.39599 18.7459 8.36201C18.6614 8.32804 18.5709 8.31121 18.4798 8.3125H8.50841C8.41127 7.94176 8.26146 7.5843 7.99368 7.28304C7.56212 6.79754 6.88783 6.47917 6.10484 6.47917ZM6.10484 7.85417C6.54408 7.85417 6.78645 7.99413 6.96601 8.19613C7.14557 8.39813 7.25068 8.69444 7.25068 9C7.25068 9.30556 7.14557 9.60187 6.96601 9.80387C6.78645 10.0059 6.54408 10.1458 6.10484 10.1458C5.66561 10.1458 5.42323 10.0059 5.24368 9.80387C5.06412 9.60187 4.95901 9.30556 4.95901 9C4.95901 8.69444 5.06412 8.39813 5.24368 8.19613C5.42323 7.99413 5.66561 7.85417 6.10484 7.85417ZM12.9798 12.2083C12.1969 12.2083 11.5226 12.5267 11.091 13.0122C10.8232 13.3135 10.6734 13.6709 10.5763 14.0417H1.52151C1.43041 14.0404 1.33996 14.0572 1.25542 14.0912C1.17088 14.1252 1.09393 14.1756 1.02905 14.2396C0.964174 14.3035 0.912655 14.3797 0.877491 14.4638C0.842327 14.5479 0.824219 14.6381 0.824219 14.7292C0.824219 14.8203 0.842327 14.9105 0.877491 14.9945C0.912655 15.0786 0.964174 15.1548 1.02905 15.2188C1.09393 15.2827 1.17088 15.3332 1.25542 15.3672C1.33996 15.4011 1.43041 15.418 1.52151 15.4167H10.5763C10.6734 15.7874 10.8232 16.1449 11.091 16.4461C11.5226 16.9316 12.1969 17.25 12.9798 17.25C13.7628 17.25 14.4371 16.9316 14.8687 16.4461C15.1365 16.1449 15.2863 15.7874 15.3834 15.4167H18.4798C18.5709 15.418 18.6614 15.4011 18.7459 15.3672C18.8305 15.3332 18.9074 15.2827 18.9723 15.2188C19.0372 15.1548 19.0887 15.0786 19.1239 14.9945C19.159 14.9105 19.1771 14.8203 19.1771 14.7292C19.1771 14.6381 19.159 14.5479 19.1239 14.4638C19.0887 14.3797 19.0372 14.3035 18.9723 14.2396C18.9074 14.1756 18.8305 14.1252 18.7459 14.0912C18.6614 14.0572 18.5709 14.0404 18.4798 14.0417H15.3834C15.2863 13.6709 15.1365 13.3135 14.8687 13.0122C14.4371 12.5267 13.7628 12.2083 12.9798 12.2083ZM12.9798 13.5833C13.4191 13.5833 13.6615 13.7233 13.841 13.9253C14.0206 14.1273 14.1257 14.4236 14.1257 14.7292C14.1257 15.0347 14.0206 15.331 13.841 15.533C13.6615 15.735 13.4191 15.875 12.9798 15.875C12.5406 15.875 12.2982 15.735 12.1187 15.533C11.9391 15.331 11.834 15.0347 11.834 14.7292C11.834 14.4236 11.9391 14.1273 12.1187 13.9253C12.2982 13.7233 12.5406 13.5833 12.9798 13.5833Z" fill="#334D6E"/>
</svg>
