<svg width="20" height="20" viewBox="0 0 20 20" fill="none" xmlns="http://www.w3.org/2000/svg">
  <circle cx="10" cy="10" r="9" fill="#3F8CFF" stroke="white" stroke-width="2" />
  <path fill-rule="evenodd" clip-rule="evenodd"
    d="M10.0003 5.83398C11.104 5.83398 12.1665 6.27148 12.9457 7.05482C13.729 7.83857 14.167 8.89648 14.167 10.0048C14.167 11.4632 13.3999 12.8173 12.1499 13.5715C10.8999 14.3257 9.3457 14.3673 8.05445 13.6798H8.04153C7.97022 13.6512 7.90682 13.6103 7.84375 13.5696C7.79666 13.5392 7.74975 13.5089 7.69987 13.484C7.57112 13.4298 7.42487 13.4215 7.29195 13.4636C6.9832 13.5715 6.6707 13.659 6.34987 13.734C6.1832 13.7382 6.1332 13.6382 6.1332 13.4757C6.2082 13.1465 6.3082 12.8211 6.42528 12.5048C6.4707 12.3673 6.45862 12.2215 6.38778 12.0919L6.30445 11.9298C5.9957 11.3423 5.83362 10.6882 5.83362 10.0261V10.0007C5.83362 8.89648 6.2707 7.83398 7.05403 7.05482C7.83737 6.27148 8.8957 5.83398 10.0003 5.83398ZM8.07903 10.5381C7.7832 10.5381 7.5457 10.2965 7.5457 10.0048C7.5457 9.70898 7.7832 9.47148 8.07903 9.47148C8.3707 9.47148 8.61278 9.70898 8.61278 10.0048C8.61278 10.2965 8.3707 10.5381 8.07903 10.5381ZM9.46654 10.0048C9.46654 10.2965 9.70445 10.5381 10.0003 10.5381C10.2961 10.5381 10.5332 10.2965 10.5332 10.0048C10.5332 9.70898 10.2961 9.47148 10.0003 9.47148C9.70445 9.47148 9.46654 9.70898 9.46654 10.0048ZM11.3878 10.0048C11.3878 10.2965 11.629 10.5381 11.9207 10.5381C12.2165 10.5381 12.454 10.2965 12.454 10.0048C12.454 9.70898 12.2165 9.47148 11.9207 9.47148C11.629 9.47148 11.3878 9.70898 11.3878 10.0048Z"
    fill="white" />
</svg>