<svg width="19" height="12" viewBox="0 0 19 12" fill="none" xmlns="http://www.w3.org/2000/svg">
<path d="M9.375 0C2.63184 0 0.0585938 5.36133 0.0585938 5.36133L-0.0683594 5.625L0.0585938 5.88867C0.0585938 5.88867 2.63184 11.25 9.375 11.25C16.1182 11.25 18.6914 5.88867 18.6914 5.88867L18.8135 5.625L18.6914 5.36133C18.6914 5.36133 16.1182 0 9.375 0ZM9.375 1.25C11.7969 1.25 13.75 3.20312 13.75 5.625C13.75 8.04688 11.7969 10 9.375 10C6.95312 10 5 8.04688 5 5.625C5 3.20312 6.95312 1.25 9.375 1.25ZM4.92676 2.22168C4.19922 3.16895 3.75 4.34082 3.75 5.625C3.75 6.90918 4.19922 8.08106 4.92676 9.02832C2.5293 7.83691 1.55273 5.94238 1.39648 5.625C1.55273 5.30762 2.5293 3.41309 4.92676 2.22168ZM13.8232 2.22168C16.2207 3.41309 17.1973 5.30762 17.3535 5.625C17.1973 5.94238 16.2207 7.83691 13.8232 9.02832C14.5508 8.08106 15 6.90918 15 5.625C15 4.34082 14.5508 3.16895 13.8232 2.22168ZM9.375 3.75C8.33984 3.75 7.5 4.58984 7.5 5.625C7.5 6.66016 8.33984 7.5 9.375 7.5C10.4102 7.5 11.25 6.66016 11.25 5.625C11.25 4.58984 10.4102 3.75 9.375 3.75Z" fill="#8E98A3"/>
</svg>
