<svg width="20" height="20" viewBox="0 0 20 20" fill="none" xmlns="http://www.w3.org/2000/svg">
  <circle cx="10" cy="10" r="9" fill="#FF754C" stroke="white" stroke-width="2" />
  <path fill-rule="evenodd" clip-rule="evenodd"
    d="M11.6041 6.04108C11.867 6.04108 12.1295 6.07817 12.3791 6.16192C13.917 6.66192 14.4712 8.34942 14.0083 9.82442C13.7458 10.5782 13.3166 11.2661 12.7545 11.8282C11.9499 12.6073 11.067 13.299 10.1166 13.8948L10.0124 13.9577L9.90409 13.8907C8.95034 13.299 8.06243 12.6073 7.25034 11.824C6.69201 11.2619 6.26243 10.5782 5.99576 9.82442C5.52493 8.34942 6.07909 6.66192 7.63368 6.15317C7.75451 6.1115 7.87909 6.08233 8.00409 6.06608H8.05409C8.17118 6.049 8.28743 6.04108 8.40409 6.04108H8.44993C8.71243 6.049 8.96659 6.09483 9.21284 6.17858H9.23743C9.25409 6.1865 9.26659 6.19525 9.27493 6.20317C9.36701 6.23275 9.45409 6.26608 9.53743 6.31192L9.69576 6.38275C9.73402 6.40315 9.77696 6.43433 9.81407 6.46128C9.83759 6.47835 9.85877 6.49372 9.87493 6.50358C9.88173 6.50759 9.88864 6.51163 9.89561 6.5157C9.93133 6.53655 9.96855 6.55827 9.99993 6.58233C10.4628 6.22858 11.0249 6.03692 11.6041 6.04108ZM12.7124 9.04108C12.8833 9.0365 13.0291 8.89942 13.0416 8.724V8.67442C13.0541 8.09067 12.7004 7.56192 12.1624 7.35775C11.9916 7.299 11.8041 7.39108 11.7416 7.56608C11.6833 7.74108 11.7749 7.93275 11.9499 7.99483C12.217 8.09483 12.3958 8.35775 12.3958 8.649V8.66192C12.3879 8.75733 12.4166 8.84942 12.4749 8.92025C12.5333 8.99108 12.6208 9.03233 12.7124 9.04108Z"
    fill="white" />
</svg>