<svg width="26" height="24" viewBox="0 0 26 24" fill="none" xmlns="http://www.w3.org/2000/svg">
  <path fill-rule="evenodd" clip-rule="evenodd"
    d="M13.1647 22C7.52484 22 2.95312 17.523 2.95312 12C2.95312 6.477 7.52484 2 13.1647 2C18.8045 2 23.3763 6.477 23.3763 12C23.3763 17.523 18.8045 22 13.1647 22ZM13.1647 21C16.4481 21 19.4821 19.2846 21.1238 16.5C22.7655 13.7154 22.7655 10.2846 21.1238 7.5C19.4821 4.71539 16.4481 3 13.1647 3C8.08897 3 3.97428 7.02944 3.97428 12C3.97428 16.9706 8.08897 21 13.1647 21ZM16.2282 13.5C16.2282 13.2239 16.4568 13 16.7387 13C17.0207 13 17.2493 13.2239 17.2493 13.5C17.2493 15.433 15.6492 17 13.6753 17H12.6541C10.6802 17 9.08006 15.433 9.08006 13.5C9.08006 13.2239 9.30866 13 9.59064 13C9.87263 13 10.1012 13.2239 10.1012 13.5C10.1012 14.8807 11.2442 16 12.6541 16H13.6753C15.0852 16 16.2282 14.8807 16.2282 13.5ZM10.1012 11C9.53725 11 9.08006 10.5523 9.08006 10C9.08006 9.44772 9.53725 9 10.1012 9C10.6652 9 11.1224 9.44772 11.1224 10C11.1224 10.5523 10.6652 11 10.1012 11ZM16.2282 11C15.6642 11 15.207 10.5523 15.207 10C15.207 9.44772 15.6642 9 16.2282 9C16.7921 9 17.2493 9.44772 17.2493 10C17.2493 10.5523 16.7921 11 16.2282 11Z"
    fill="#8E98A3" />
</svg>