<svg width="42" height="36" viewBox="0 0 42 36" fill="none" xmlns="http://www.w3.org/2000/svg">
<path d="M20.6004 0C19.1072 0 17.6141 0.708983 16.7654 2.12695L0.598434 29.1436C-1.12032 32.001 1.08183 35.7285 4.42265 35.7285H36.7674C40.1189 35.7285 42.3211 32.001 40.6131 29.1436L24.4353 2.12695C23.5867 0.708983 22.0935 0 20.6004 0ZM20.6004 2.70703C21.1697 2.70703 21.7391 2.98633 22.0828 3.54492L38.2498 30.5508C38.9266 31.6787 38.1746 32.9785 36.7674 32.9785H4.42265C3.02617 32.9785 2.27421 31.6787 2.95097 30.5508L19.118 3.54492C19.4617 2.98633 20.031 2.70703 20.6004 2.70703ZM19.2039 10.9785V24.7285H21.9539V10.9785H19.2039ZM19.2039 27.4785V30.2285H21.9539V27.4785H19.2039Z" fill="#FE634C"/>
</svg>
