<svg width="15" height="15" viewBox="0 0 15 15" fill="none" xmlns="http://www.w3.org/2000/svg">
  <path fill-rule="evenodd" clip-rule="evenodd"
    d="M12.8516 9.76755C13.5218 10.3983 14.0557 11.1461 14.4236 11.9694C14.7864 12.7783 14.9795 13.6351 14.999 14.5159C15 14.5556 14.9841 14.5941 14.9547 14.6225C14.9253 14.651 14.885 14.667 14.8429 14.667H13.6727C13.5869 14.667 13.5186 14.6043 13.5167 14.5233C13.4777 13.1008 12.8731 11.7686 11.8042 10.7589C10.6984 9.71412 9.22974 9.13923 7.66553 9.13923C6.10132 9.13923 4.63268 9.71412 3.52681 10.7589C2.458 11.7686 1.85338 13.1008 1.81437 14.5233C1.81242 14.6025 1.74416 14.667 1.65834 14.667H0.488111C0.446044 14.667 0.405754 14.651 0.376378 14.6225C0.347002 14.5941 0.331028 14.5556 0.33208 14.5159C0.349988 13.6408 0.5453 12.777 0.907444 11.9713C1.27608 11.1483 1.80991 10.4006 2.47945 9.7694C3.15234 9.13186 3.93639 8.63252 4.81016 8.28427C4.81407 8.28243 4.81797 8.28105 4.82187 8.27966C4.82577 8.27828 4.82967 8.2769 4.83357 8.27506C3.61848 7.44405 2.82857 6.09344 2.82857 4.56962C2.82857 2.04527 4.9935 0 7.66553 0C10.3376 0 12.5025 2.04527 12.5025 4.56962C12.5025 6.09344 11.7126 7.44405 10.4975 8.27322C10.5014 8.27506 10.5053 8.27644 10.5092 8.27782C10.5131 8.2792 10.517 8.28059 10.5209 8.28243C11.392 8.63069 12.1835 9.13501 12.8516 9.76755ZM5.28949 6.83838C5.92459 7.43613 6.7688 7.76535 7.66577 7.76535C8.56273 7.76535 9.40694 7.43613 10.042 6.83838C10.6772 6.24063 11.027 5.44609 11.027 4.60188C11.027 3.75768 10.6772 2.96313 10.042 2.36538C9.40694 1.76763 8.56273 1.43841 7.66577 1.43841C6.7688 1.43841 5.92459 1.76763 5.28949 2.36538C4.65438 2.96313 4.30458 3.75768 4.30458 4.60188C4.30458 5.44609 4.65438 6.24063 5.28949 6.83838Z"
    fill="#334D6E" />
</svg>