<svg width="19" height="17" viewBox="0 0 19 17" fill="none" xmlns="http://www.w3.org/2000/svg">
<path d="M2.1582 0.279297L1.2793 1.1582L4.15527 4.03906C1.37207 5.57715 0.273437 7.97949 0.209961 8.12598L0.102539 8.375L0.209961 8.62402C0.302735 8.84375 2.62695 14 9.375 14C9.60449 14 9.80957 13.9707 10.0293 13.9609C10.0342 13.9609 10.0391 13.9609 10.0391 13.9609C11.3232 13.8877 12.4414 13.6484 13.3936 13.2773L16.5869 16.4756L17.4756 15.5869L14.6045 12.7207L13.75 11.8662L13.6719 11.793L11.0645 9.17578L8.57422 6.68555L6.76758 4.88379L6.33789 4.4541L5.35156 3.47266L2.1582 0.279297ZM9.375 2.75C8.68164 2.75 8.05176 2.81836 7.45117 2.91602L8.61328 4.07812C8.8623 4.03418 9.11133 4 9.375 4C11.7871 4 13.75 5.96289 13.75 8.375C13.75 8.63867 13.7158 8.88769 13.6719 9.13672L14.6875 10.1523C14.873 9.59082 15 9 15 8.375C15 7.14453 14.5898 6.01172 13.916 5.08398C15.9277 6.16797 16.9385 7.75977 17.2705 8.375C17.0264 8.8291 16.4014 9.82519 15.2832 10.748L16.1719 11.6367C17.8027 10.2451 18.4912 8.74121 18.54 8.62402L18.6523 8.375L18.54 8.12598C18.4473 7.90625 16.123 2.75 9.375 2.75ZM4.83398 5.10352C4.16016 6.02637 3.75 7.14941 3.75 8.375C3.75 9.60547 4.16016 10.7383 4.83398 11.6611C2.82227 10.582 1.81152 8.99023 1.47949 8.375C1.81152 7.75977 2.83203 6.1875 4.83398 5.10352ZM5.89844 5.77734L7.69531 7.58398C7.58301 7.82324 7.5 8.08691 7.5 8.375C7.5 9.41016 8.33984 10.25 9.375 10.25C9.66309 10.25 9.92676 10.167 10.166 10.0547L11.9727 11.8516C11.2451 12.4033 10.3564 12.75 9.375 12.75C6.96289 12.75 5 10.7871 5 8.375C5 7.39355 5.34668 6.50488 5.89844 5.77734Z" fill="#8E98A3"/>
</svg>
