<svg width="14" height="14" viewBox="0 0 14 14" fill="none" xmlns="http://www.w3.org/2000/svg">
<path d="M1.93752 0.250056C1.05427 0.250056 0.327431 0.94659 0.262475 1.81451C0.253815 1.85494 0.24964 1.89621 0.250024 1.93756V3.06256V3.62506V12.0626C0.250024 12.9879 1.01221 13.7501 1.93752 13.7501H12.0625C12.9878 13.7501 13.75 12.9879 13.75 12.0626V4.18756C13.75 3.26224 12.9878 2.50006 12.0625 2.50006H1.93752C1.62009 2.50006 1.37502 2.25499 1.37502 1.93756C1.37502 1.62012 1.62009 1.37506 1.93752 1.37506H11.3125C11.3871 1.37611 11.4611 1.36234 11.5302 1.33454C11.5994 1.30675 11.6624 1.26548 11.7154 1.21315C11.7685 1.16081 11.8107 1.09844 11.8394 1.02967C11.8682 0.960904 11.883 0.887102 11.883 0.812556C11.883 0.738011 11.8682 0.664209 11.8394 0.595439C11.8107 0.526669 11.7685 0.464304 11.7154 0.411966C11.6624 0.359629 11.5994 0.318363 11.5302 0.290568C11.4611 0.262773 11.3871 0.249002 11.3125 0.250056H1.93752ZM1.37502 3.62506H1.93752H12.0625C12.38 3.62506 12.625 3.87012 12.625 4.18756V12.0626C12.625 12.38 12.38 12.6251 12.0625 12.6251H1.93752C1.62009 12.6251 1.37502 12.38 1.37502 12.0626V3.62506ZM10.5625 7.00006C10.3139 7.00006 10.0754 7.09883 9.89961 7.27464C9.7238 7.45046 9.62502 7.68892 9.62502 7.93756C9.62502 8.1862 9.7238 8.42465 9.89961 8.60047C10.0754 8.77628 10.3139 8.87506 10.5625 8.87506C10.8112 8.87506 11.0496 8.77628 11.2254 8.60047C11.4013 8.42465 11.5 8.1862 11.5 7.93756C11.5 7.68892 11.4013 7.45046 11.2254 7.27464C11.0496 7.09883 10.8112 7.00006 10.5625 7.00006Z" fill="#334D6E"/>
</svg>
