<svg width="17" height="16" viewBox="0 0 17 16" fill="none" xmlns="http://www.w3.org/2000/svg">
<path d="M5.84699 0.0839844C4.40287 0.0839844 3.21678 1.11741 3.21678 2.37565V11.5423C3.21678 12.8006 4.40287 13.834 5.84699 13.834H13.4985C14.9426 13.834 16.1287 12.8006 16.1287 11.5423V2.37565C16.1287 1.11741 14.9426 0.0839844 13.4985 0.0839844H5.84699ZM5.84699 1.33398H13.4985C14.1672 1.33398 14.6941 1.79306 14.6941 2.37565V11.5423C14.6941 12.1249 14.1672 12.584 13.4985 12.584H5.84699C5.17833 12.584 4.65144 12.1249 4.65144 11.5423V2.37565C4.65144 1.79306 5.17833 1.33398 5.84699 1.33398ZM2.26034 2.16732L1.67751 2.50586C1.14525 2.81503 0.825684 3.33549 0.825684 3.89258V11.959C0.825684 14.1452 2.85955 15.9173 5.36877 15.9173H11.7575C12.3973 15.9173 12.9947 15.6389 13.3491 15.1751L13.7376 14.6673H5.36877C3.65196 14.6673 2.26034 13.4548 2.26034 11.959V2.16732Z" fill="#8E98A3"/>
</svg>
