<svg width="17" height="18" viewBox="0 0 17 18" fill="none" xmlns="http://www.w3.org/2000/svg">
<path d="M7.75664 0.19902C4.12445 0.3701 1.34132 3.49077 1.34132 7.10229V10.3679L0.150405 12.7637C0.14831 12.7681 0.146263 12.7725 0.144262 12.7769C-0.334845 13.7958 0.44072 15.0192 1.56687 15.0192H5.38534C5.38534 16.5002 6.60041 17.7152 8.08136 17.7152C9.56231 17.7152 10.7774 16.5002 10.7774 15.0192H14.595C15.7211 15.0192 16.4977 13.796 16.0185 12.7769C16.0165 12.7725 16.0144 12.7681 16.0123 12.7637L14.8214 10.3679V6.93116C14.8214 3.10902 11.6146 0.0173924 7.75664 0.19902ZM7.81983 1.54527C10.9293 1.39888 13.4734 3.85869 13.4734 6.93116V10.5258C13.4733 10.63 13.4973 10.7327 13.5436 10.826L14.7986 13.3517C14.8793 13.5247 14.7859 13.6712 14.595 13.6712H1.56687C1.37593 13.6712 1.28331 13.525 1.36414 13.3517V13.3509L2.61912 10.826C2.66539 10.7327 2.68942 10.63 2.68933 10.5258V7.10229C2.68933 4.18137 4.92677 1.68154 7.81983 1.54527ZM6.73335 15.0192H9.42936C9.42936 15.7715 8.83361 16.3672 8.08136 16.3672C7.32911 16.3672 6.73335 15.7715 6.73335 15.0192Z" fill="#334D6E"/>
</svg>
