<svg width="26" height="24" viewBox="0 0 26 24" fill="none" xmlns="http://www.w3.org/2000/svg">
  <path fill-rule="evenodd" clip-rule="evenodd"
    d="M13.2485 11.8478C13.0497 11.6517 13.0508 11.335 13.251 11.1403C13.4512 10.9456 13.7747 10.9467 13.9735 11.1428C15.2972 12.447 15.2954 14.5537 13.9694 15.8558L11.7555 18.0288C10.435 19.3246 8.29399 19.3335 6.96224 18.0488C6.32331 17.4322 5.9607 16.5923 5.95419 15.7138C5.94768 14.8354 6.2978 13.9904 6.92752 13.3648L9.15772 11.1498C9.28505 11.0192 9.47435 10.966 9.65299 11.0106C9.83162 11.0552 9.97186 11.1906 10.0199 11.3649C10.0679 11.5391 10.0163 11.7253 9.88479 11.8518L7.6556 14.0668C6.74051 14.9759 6.75103 16.4393 7.67909 17.3358C8.6114 18.2358 10.1094 18.2288 11.0326 17.3218L13.2464 15.1498C14.1755 14.2376 14.1769 12.7616 13.2495 11.8478H13.2485ZM12.7767 12.1538C12.9053 12.2806 12.9551 12.465 12.9072 12.6375C12.8593 12.8099 12.7211 12.9443 12.5447 12.99C12.3682 13.0356 12.1803 12.9856 12.0517 12.8588C10.7277 11.5542 10.7287 9.44728 12.0537 8.14378L14.1859 6.04378C14.871 5.37012 15.806 4.99779 16.7767 5.01212C17.7474 5.02645 18.6706 5.42621 19.3346 6.11978C19.9404 6.75709 20.263 7.60399 20.2312 8.47416C20.1994 9.34434 19.8159 10.1665 19.1651 10.7598L16.8521 12.8668C16.7202 12.9973 16.5259 13.0466 16.3459 12.995C16.1658 12.9435 16.0292 12.7994 15.9899 12.6198C15.9507 12.4402 16.0151 12.254 16.1578 12.1348L18.4686 10.0278C18.9383 9.5998 19.2071 9.00119 19.2117 8.37295C19.2164 7.74471 18.9564 7.14237 18.4931 6.70778C17.4864 5.76381 15.8933 5.78248 14.9099 6.74978L12.7767 8.84878C11.8475 9.76278 11.8475 11.2388 12.7767 12.1538Z"
    fill="#8E98A3" />
</svg>