<svg width="22" height="22" viewBox="0 0 22 22" fill="none" xmlns="http://www.w3.org/2000/svg">
<path d="M5.729 1.83398C4.59807 1.83398 3.6665 2.76555 3.6665 3.89648V18.1048C3.6665 19.2358 4.59807 20.1673 5.729 20.1673H16.2707C17.4016 20.1673 18.3332 19.2358 18.3332 18.1048V8.47982C18.3331 8.29749 18.2607 8.12265 18.1318 7.99373L18.1246 7.98657L12.1734 2.0354C12.0445 1.90647 11.8697 1.83402 11.6873 1.83398H5.729ZM5.729 3.20898H10.9998V7.10482C10.9998 8.23576 11.9314 9.16732 13.0623 9.16732H16.9582V18.1048C16.9582 18.4928 16.6586 18.7923 16.2707 18.7923H5.729C5.34102 18.7923 5.0415 18.4928 5.0415 18.1048V3.89648C5.0415 3.50851 5.34102 3.20898 5.729 3.20898ZM12.3748 4.18115L15.986 7.79232H13.0623C12.6744 7.79232 12.3748 7.4928 12.3748 7.10482V4.18115Z" fill="#8E98A3"/>
<path d="M8.58375 16.07C8.45375 16.07 8.32542 16.0467 8.19875 16C8.07208 15.95 7.96875 15.8817 7.88875 15.795H7.87875V17.2H6.73375V13.37H7.81875V13.635H7.82875C7.92542 13.525 8.04208 13.4417 8.17875 13.385C8.31542 13.3283 8.44875 13.3 8.57875 13.3C8.77542 13.3 8.94875 13.34 9.09875 13.42C9.24875 13.5 9.37375 13.605 9.47375 13.735C9.57375 13.865 9.64875 14.0117 9.69875 14.175C9.75208 14.3383 9.77875 14.505 9.77875 14.675C9.77875 14.8483 9.75208 15.0183 9.69875 15.185C9.64875 15.3517 9.57375 15.5017 9.47375 15.635C9.37375 15.765 9.24875 15.87 9.09875 15.95C8.95208 16.03 8.78042 16.07 8.58375 16.07ZM8.70875 14.675C8.70875 14.5583 8.67208 14.4567 8.59875 14.37C8.52542 14.2833 8.41875 14.24 8.27875 14.24C8.14208 14.24 8.03208 14.2833 7.94875 14.37C7.86875 14.4567 7.82875 14.5583 7.82875 14.675C7.82875 14.7983 7.86875 14.9033 7.94875 14.99C8.03208 15.0767 8.14208 15.12 8.27875 15.12C8.41875 15.12 8.52542 15.0783 8.59875 14.995C8.67208 14.9083 8.70875 14.8017 8.70875 14.675ZM10.1004 14.675C10.1004 14.505 10.1254 14.3383 10.1754 14.175C10.2288 14.0117 10.3054 13.865 10.4054 13.735C10.5054 13.605 10.6304 13.5 10.7804 13.42C10.9304 13.34 11.1038 13.3 11.3004 13.3C11.4271 13.3 11.5538 13.325 11.6804 13.375C11.8071 13.4217 11.9088 13.49 11.9854 13.58H11.9954V12.22H13.1454V16H12.1104V15.725H12.1004C12.0238 15.8317 11.9121 15.9167 11.7654 15.98C11.6188 16.04 11.4638 16.07 11.3004 16.07C11.1038 16.07 10.9304 16.03 10.7804 15.95C10.6304 15.87 10.5054 15.765 10.4054 15.635C10.3054 15.5017 10.2288 15.3517 10.1754 15.185C10.1254 15.0183 10.1004 14.8483 10.1004 14.675ZM11.1704 14.675C11.1704 14.8017 11.2071 14.9083 11.2804 14.995C11.3538 15.0783 11.4604 15.12 11.6004 15.12C11.7371 15.12 11.8454 15.0767 11.9254 14.99C12.0088 14.9033 12.0504 14.7983 12.0504 14.675C12.0504 14.5583 12.0088 14.4567 11.9254 14.37C11.8454 14.2833 11.7371 14.24 11.6004 14.24C11.4604 14.24 11.3538 14.2833 11.2804 14.37C11.2071 14.4567 11.1704 14.5583 11.1704 14.675ZM15.5421 13.01C15.5121 12.9967 15.4771 12.9867 15.4371 12.98C15.3971 12.97 15.3571 12.965 15.3171 12.965C15.2038 12.965 15.1238 13 15.0771 13.07C15.0338 13.14 15.0121 13.2283 15.0121 13.335V13.37H15.5671V14.195H15.0121V16H13.8621V14.195H13.4121V13.37H13.8621V13.31C13.8621 13.1467 13.8804 12.99 13.9171 12.84C13.9571 12.69 14.0238 12.5583 14.1171 12.445C14.2104 12.3283 14.3354 12.2367 14.4921 12.17C14.6521 12.1033 14.8521 12.07 15.0921 12.07C15.1688 12.07 15.2571 12.0767 15.3571 12.09C15.4604 12.1 15.5471 12.1183 15.6171 12.145L15.5421 13.01Z" fill="#8E98A3"/>
</svg>
