<svg width="18" height="18" viewBox="0 0 18 18" fill="none" xmlns="http://www.w3.org/2000/svg">
<path d="M3.72917 0.75C2.09203 0.75 0.75 2.09203 0.75 3.72917V14.2708C0.75 15.908 2.09203 17.25 3.72917 17.25H14.2708C15.908 17.25 17.25 15.908 17.25 14.2708V3.72917C17.25 2.09203 15.908 0.75 14.2708 0.75H3.72917ZM3.72917 2.125H14.2708C15.1646 2.125 15.875 2.83539 15.875 3.72917V4.41667H2.125V3.72917C2.125 2.83539 2.83539 2.125 3.72917 2.125ZM2.125 5.79167H15.875V14.2708C15.875 15.1646 15.1646 15.875 14.2708 15.875H3.72917C2.83539 15.875 2.125 15.1646 2.125 14.2708V5.79167ZM5.10417 7.625C4.80027 7.625 4.50883 7.74572 4.29394 7.96061C4.07905 8.17549 3.95833 8.46694 3.95833 8.77083C3.95833 9.07473 4.07905 9.36617 4.29394 9.58106C4.50883 9.79595 4.80027 9.91667 5.10417 9.91667C5.40806 9.91667 5.69951 9.79595 5.91439 9.58106C6.12928 9.36617 6.25 9.07473 6.25 8.77083C6.25 8.46694 6.12928 8.17549 5.91439 7.96061C5.69951 7.74572 5.40806 7.625 5.10417 7.625ZM9 7.625C8.69611 7.625 8.40466 7.74572 8.18977 7.96061C7.97489 8.17549 7.85417 8.46694 7.85417 8.77083C7.85417 9.07473 7.97489 9.36617 8.18977 9.58106C8.40466 9.79595 8.69611 9.91667 9 9.91667C9.30389 9.91667 9.59534 9.79595 9.81023 9.58106C10.0251 9.36617 10.1458 9.07473 10.1458 8.77083C10.1458 8.46694 10.0251 8.17549 9.81023 7.96061C9.59534 7.74572 9.30389 7.625 9 7.625ZM12.8958 7.625C12.5919 7.625 12.3005 7.74572 12.0856 7.96061C11.8707 8.17549 11.75 8.46694 11.75 8.77083C11.75 9.07473 11.8707 9.36617 12.0856 9.58106C12.3005 9.79595 12.5919 9.91667 12.8958 9.91667C13.1997 9.91667 13.4912 9.79595 13.7061 9.58106C13.9209 9.36617 14.0417 9.07473 14.0417 8.77083C14.0417 8.46694 13.9209 8.17549 13.7061 7.96061C13.4912 7.74572 13.1997 7.625 12.8958 7.625ZM5.10417 11.75C4.80027 11.75 4.50883 11.8707 4.29394 12.0856C4.07905 12.3005 3.95833 12.5919 3.95833 12.8958C3.95833 13.1997 4.07905 13.4912 4.29394 13.7061C4.50883 13.9209 4.80027 14.0417 5.10417 14.0417C5.40806 14.0417 5.69951 13.9209 5.91439 13.7061C6.12928 13.4912 6.25 13.1997 6.25 12.8958C6.25 12.5919 6.12928 12.3005 5.91439 12.0856C5.69951 11.8707 5.40806 11.75 5.10417 11.75ZM9 11.75C8.69611 11.75 8.40466 11.8707 8.18977 12.0856C7.97489 12.3005 7.85417 12.5919 7.85417 12.8958C7.85417 13.1997 7.97489 13.4912 8.18977 13.7061C8.40466 13.9209 8.69611 14.0417 9 14.0417C9.30389 14.0417 9.59534 13.9209 9.81023 13.7061C10.0251 13.4912 10.1458 13.1997 10.1458 12.8958C10.1458 12.5919 10.0251 12.3005 9.81023 12.0856C9.59534 11.8707 9.30389 11.75 9 11.75Z" fill="#334D6E"/>
</svg>
