<svg width="18" height="18" viewBox="0 0 18 18" fill="none" xmlns="http://www.w3.org/2000/svg">
<path d="M9 0C5.16504 0 1.96289 2.37012 0.65625 5.71875L2.03906 6.28125C3.13184 3.48047 5.7832 1.5 9 1.5C11.4316 1.5 13.5996 2.69238 14.9531 4.5H12V6H17.25V0.75H15.75V3.07031C14.1064 1.18652 11.6777 0 9 0ZM15.9609 11.7188C14.8682 14.5195 12.2168 16.5 9 16.5C6.54199 16.5 4.38281 15.29 3.02344 13.5H6V12H0.75V17.25H2.25V14.9297C3.89062 16.79 6.2959 18 9 18C12.835 18 16.0371 15.6299 17.3438 12.2812L15.9609 11.7188Z" fill="#3F9AF7"/>
</svg>
