<svg width="20" height="20" viewBox="0 0 20 20" fill="none" xmlns="http://www.w3.org/2000/svg">
  <circle cx="10" cy="10" r="9" fill="#7FBA7A" stroke="white" stroke-width="2" />
  <path fill-rule="evenodd" clip-rule="evenodd"
    d="M13.3928 9.38086L13.7137 11.8767C13.9516 13.5059 13.0053 14.1684 11.7345 14.1684H8.28032C7.00573 14.1684 6.03032 13.71 6.29282 11.8767L6.61782 9.38086C6.66782 9.01003 6.84698 8.66419 7.12615 8.41003C7.33907 8.22294 7.61365 8.12253 7.89698 8.12253V8.02669C7.86365 7.25586 8.2599 6.52669 8.92615 6.13086C9.59282 5.73503 10.4262 5.73503 11.0928 6.13086C11.7595 6.52669 12.1512 7.25586 12.122 8.02669V8.12253C12.647 8.12253 13.2012 8.48919 13.3928 9.38086ZM8.53032 8.0267C8.53032 7.21836 9.18865 6.56003 10.0012 6.56003C10.8178 6.56003 11.4762 7.21836 11.4762 8.0267V8.11878H8.53032V8.0267ZM8.41781 9.83086C8.41781 10.0309 8.58448 10.1975 8.78865 10.1975C8.99281 10.1975 9.15531 10.0309 9.15531 9.83086C9.15531 9.6267 8.99281 9.4642 8.78865 9.4642C8.58448 9.4642 8.41781 9.6267 8.41781 9.83086ZM11.2053 10.1975C11.3012 10.1975 11.397 10.16 11.4637 10.0892C11.5345 10.0225 11.572 9.9267 11.572 9.83086C11.572 9.6267 11.4053 9.4642 11.2053 9.4642C11.0016 9.4642 10.8345 9.6267 10.8345 9.83086C10.8345 10.0309 11.0016 10.1975 11.2053 10.1975Z"
    fill="white" />
</svg>