<svg width="55" height="55" viewBox="0 0 55 55" fill="none" xmlns="http://www.w3.org/2000/svg">
<path d="M7.21777 51.9062V3.09375H32.8615L45.0303 15.2625V51.9062H7.21777Z" fill="white"/>
<path d="M32.725 3.43945L44.6875 15.402V51.5645H7.5625V3.43945H32.725ZM33 2.75195H6.875V52.252H45.375V15.127L33 2.75195Z" fill="#FF0000"/>
<path d="M32.6562 15.4688V3.09375H32.8625L45.0312 15.2625V15.4688H32.6562Z" fill="#FFD9D9"/>
<path d="M33.001 3.71445L44.4135 15.127H33.001V3.71445ZM33.001 2.75195H32.3135V15.8145H45.376V15.127L33.001 2.75195ZM16.7072 41.252C15.7447 41.252 15.126 40.4957 15.126 39.8082C15.126 37.952 17.601 36.3707 20.8322 35.2707C22.2072 32.8645 23.5135 29.8395 24.4072 27.0895C23.651 25.0957 23.1697 23.2395 23.1697 21.9332C23.1697 21.177 23.3072 20.5582 23.5822 20.1457C23.926 19.5957 24.476 19.252 25.0947 19.252C25.7135 19.252 26.1947 19.5957 26.4697 20.1457C26.676 20.5582 26.8135 21.1082 26.8135 21.8645C26.8135 23.1707 26.4697 25.027 25.7822 27.1582C26.676 29.427 28.051 31.7645 29.6322 33.4832C32.1072 33.277 34.101 33.3457 35.3385 33.7582C36.7135 34.2395 37.0572 34.9957 37.0572 35.6145C37.0572 36.2332 36.7822 37.6082 34.5135 37.6082C32.5885 37.6082 30.7322 36.5082 29.151 34.927C26.6072 35.202 23.9947 35.752 21.7947 36.5082C20.1447 39.1895 18.3572 41.252 16.7072 41.252ZM16.501 39.8082C16.501 39.8082 16.5697 39.877 16.7072 39.877C17.4635 39.877 18.4947 38.8457 19.5947 37.2645C17.7385 38.0895 16.501 38.9832 16.501 39.8082ZM31.076 34.7207C32.176 35.6145 33.3447 36.1645 34.5822 36.1645C35.751 36.1645 35.751 35.752 35.751 35.5457C35.751 35.2707 35.201 35.0645 34.9947 34.9957C34.3072 34.7895 33.3447 34.652 32.1072 34.652C31.7635 34.7207 31.4197 34.7207 31.076 34.7207ZM25.2322 29.0145C24.5447 30.9395 23.7197 32.9332 22.7572 34.7207C24.476 34.2395 26.3322 33.8957 28.051 33.6895C26.951 32.2457 25.9885 30.5957 25.2322 29.0145ZM25.0947 20.627C24.9572 20.627 24.8885 20.627 24.751 20.8332C24.6822 20.9707 24.5447 21.3145 24.5447 21.9332C24.5447 22.7582 24.6822 23.7207 25.026 24.8207C25.301 23.652 25.4385 22.6207 25.4385 21.7957C25.4385 21.177 25.301 20.8332 25.301 20.6957C25.2322 20.627 25.1635 20.627 25.0947 20.627Z" fill="#FF0000"/>
</svg>
