<svg width="45" height="45" viewBox="0 0 45 45" fill="none" xmlns="http://www.w3.org/2000/svg">
<rect width="45" height="45" rx="22.5" fill="#353945"/>
<path d="M17.709 14.166C16.6752 14.166 15.834 15.0073 15.834 16.041V28.9577C15.834 29.9914 16.6752 30.8327 17.709 30.8327H27.2923C28.3261 30.8327 29.1673 29.9914 29.1673 28.9577V20.8327H24.3757C23.3419 20.8327 22.5007 19.9914 22.5007 18.9577V14.166H17.709ZM23.7507 14.5322V18.9577C23.7507 19.3023 24.0311 19.5827 24.3757 19.5827H28.8011L23.7507 14.5322ZM22.4998 22.0827C22.8448 22.0827 23.1248 22.3623 23.1248 22.7077V25.3656L23.7246 24.7658C23.9688 24.5216 24.3642 24.5216 24.6084 24.7658C24.8526 25.0095 24.8526 25.4058 24.6084 25.6496L22.9417 27.3162C22.8205 27.4383 22.6607 27.4993 22.5007 27.4993H25.209C25.554 27.4993 25.834 27.7789 25.834 28.1243C25.834 28.4698 25.554 28.7493 25.209 28.7493H19.7923C19.4473 28.7493 19.1673 28.4698 19.1673 28.1243C19.1673 27.7789 19.4473 27.4993 19.7923 27.4993H22.5007C22.3407 27.4993 22.1808 27.4383 22.0588 27.3162L20.3921 25.6496C20.1479 25.4058 20.1479 25.0095 20.3921 24.7658C20.6363 24.5216 21.0317 24.5216 21.2759 24.7658L21.8748 25.3656V22.7077C21.8748 22.3623 22.1548 22.0827 22.4998 22.0827Z" fill="white"/>
</svg>
