<svg width="16" height="16" viewBox="0 0 16 16" fill="none" xmlns="http://www.w3.org/2000/svg">
<path d="M2.46154 0C1.10577 0 0 1.10577 0 2.46154V13.5385C0 14.8942 1.10577 16 2.46154 16H10.4615C11.1154 16 12.024 15.0553 13.0769 13.9808C13.2236 13.8317 13.3678 13.6899 13.5192 13.5385C13.6707 13.387 13.8317 13.2236 13.9808 13.0769C15.0553 12.024 16 11.1154 16 10.4615V2.46154C16 1.10577 14.8942 0 13.5385 0H2.46154ZM2.46154 1.23077H13.5385C14.2188 1.23077 14.7692 1.78125 14.7692 2.46154V10.4615C14.7692 11.0745 14.1514 11.0769 13.5385 11.0769H11.6923C11.3534 11.0769 11.0769 11.3534 11.0769 11.6923V13.5769C11.0769 14.1226 11.0793 14.6563 10.6346 14.7692H2.46154C1.78125 14.7692 1.23077 14.2188 1.23077 13.5385V2.46154C1.23077 1.78125 1.78125 1.23077 2.46154 1.23077ZM4.19231 4.92308C3.85337 4.95433 3.60337 5.25721 3.63462 5.59615C3.66587 5.9351 3.96875 6.1851 4.30769 6.15385H11.6923C11.9135 6.15625 12.1202 6.04087 12.2332 5.84856C12.3438 5.65625 12.3438 5.42067 12.2332 5.22837C12.1202 5.03606 11.9135 4.92067 11.6923 4.92308H4.30769C4.28846 4.92308 4.26923 4.92308 4.25 4.92308C4.23077 4.92308 4.21154 4.92308 4.19231 4.92308ZM4.19231 8C3.85337 8.03125 3.60337 8.33414 3.63462 8.67308C3.66587 9.01202 3.96875 9.26202 4.30769 9.23077H10.4615C10.6827 9.23317 10.8894 9.11779 11.0024 8.92548C11.113 8.73317 11.113 8.4976 11.0024 8.30529C10.8894 8.11298 10.6827 7.9976 10.4615 8H4.30769C4.28846 8 4.26923 8 4.25 8C4.23077 8 4.21154 8 4.19231 8Z" fill="#8E98A3"/>
</svg>
