<svg width="17" height="17" viewBox="0 0 17 17" fill="none" xmlns="http://www.w3.org/2000/svg">
<path d="M5.84748 0.203125C4.40336 0.203125 3.21727 1.23655 3.21727 2.49479V11.6615C3.21727 12.9197 4.40336 13.9531 5.84748 13.9531H13.499C14.9431 13.9531 16.1292 12.9197 16.1292 11.6615V2.49479C16.1292 1.23655 14.9431 0.203125 13.499 0.203125H5.84748ZM5.84748 1.45312H13.499C14.1677 1.45312 14.6945 1.9122 14.6945 2.49479V11.6615C14.6945 12.2441 14.1677 12.7031 13.499 12.7031H5.84748C5.17882 12.7031 4.65193 12.2441 4.65193 11.6615V2.49479C4.65193 1.9122 5.17882 1.45312 5.84748 1.45312ZM2.26083 2.28646L1.678 2.625C1.14574 2.93417 0.826172 3.45464 0.826172 4.01172V12.0781C0.826172 14.2644 2.86004 16.0365 5.36926 16.0365H11.758C12.3978 16.0365 12.9952 15.758 13.3496 15.2943L13.7381 14.7865H5.36926C3.65245 14.7865 2.26083 13.574 2.26083 12.0781V2.28646Z" fill="#334D6E"/>
</svg>
