<svg width="16" height="16" viewBox="0 0 16 16" fill="none" xmlns="http://www.w3.org/2000/svg">
<path d="M7.45952 1.12125C7.6777 0.66863 8.3223 0.668629 8.54048 1.12125L10.1782 4.51865C10.2656 4.70009 10.4383 4.82555 10.6379 4.85266L14.3751 5.36032C14.8729 5.42795 15.0721 6.04101 14.7091 6.38838L11.984 8.99575C11.8385 9.135 11.7726 9.33799 11.8084 9.53619L12.4805 13.2473C12.57 13.7418 12.0485 14.1206 11.606 13.8827L8.28412 12.0968C8.10672 12.0014 7.89328 12.0014 7.71588 12.0968L4.39404 13.8827C3.95148 14.1206 3.42998 13.7418 3.51951 13.2473L4.19155 9.53619C4.22744 9.33799 4.16149 9.135 4.01595 8.99575L1.2909 6.38838C0.927856 6.04101 1.12705 5.42795 1.62494 5.36032L5.36213 4.85266C5.56172 4.82555 5.73439 4.70009 5.82185 4.51865L7.45952 1.12125Z" fill="white"/>
<path d="M7.90992 1.33836C7.94628 1.26292 8.05372 1.26293 8.09008 1.33836L9.72775 4.73576C9.88809 5.06841 10.2047 5.2984 10.5706 5.34811L14.3078 5.85577C14.3907 5.86704 14.4239 5.96922 14.3634 6.02711L11.6384 8.63448C11.3716 8.88977 11.2506 9.26191 11.3165 9.62528L11.9885 13.3364C12.0034 13.4188 11.9165 13.482 11.8427 13.4423L8.52089 11.6564C8.19565 11.4815 7.80436 11.4815 7.47911 11.6564L4.15727 13.4423C4.0835 13.482 3.99659 13.4188 4.01151 13.3364L4.68355 9.62528C4.74935 9.26191 4.62844 8.88978 4.36162 8.63448L1.63657 6.02711C1.57606 5.96922 1.60926 5.86704 1.69224 5.85577L5.42943 5.34811C5.79534 5.2984 6.1119 5.06841 6.27225 4.73576L7.90992 1.33836Z" stroke="#8E98A3" stroke-opacity="0.28"/>
<mask id="mask0" mask-type="alpha" maskUnits="userSpaceOnUse" x="1" y="0" width="14" height="14">
<path d="M7.45952 1.12125C7.6777 0.66863 8.3223 0.668629 8.54048 1.12125L10.1782 4.51865C10.2656 4.70009 10.4383 4.82555 10.6379 4.85266L14.3751 5.36032C14.8729 5.42795 15.0721 6.04101 14.7091 6.38838L11.984 8.99575C11.8385 9.135 11.7726 9.33799 11.8084 9.53619L12.4805 13.2473C12.57 13.7418 12.0485 14.1206 11.606 13.8827L8.28412 12.0968C8.10672 12.0014 7.89328 12.0014 7.71588 12.0968L4.39404 13.8827C3.95148 14.1206 3.42998 13.7418 3.51951 13.2473L4.19155 9.53619C4.22744 9.33799 4.16149 9.135 4.01595 8.99575L1.2909 6.38838C0.927856 6.04101 1.12705 5.42795 1.62494 5.36032L5.36213 4.85266C5.56172 4.82555 5.73439 4.70009 5.82185 4.51865L7.45952 1.12125Z" fill="white"/>
<path d="M7.90992 1.33836C7.94628 1.26292 8.05372 1.26293 8.09008 1.33836L9.72775 4.73576C9.88809 5.06841 10.2047 5.2984 10.5706 5.34811L14.3078 5.85577C14.3907 5.86704 14.4239 5.96922 14.3634 6.02711L11.6384 8.63448C11.3716 8.88977 11.2506 9.26191 11.3165 9.62528L11.9885 13.3364C12.0034 13.4188 11.9165 13.482 11.8427 13.4423L8.52089 11.6564C8.19565 11.4815 7.80436 11.4815 7.47911 11.6564L4.15727 13.4423C4.0835 13.482 3.99659 13.4188 4.01151 13.3364L4.68355 9.62528C4.74935 9.26191 4.62844 8.88978 4.36162 8.63448L1.63657 6.02711C1.57606 5.96922 1.60926 5.86704 1.69224 5.85577L5.42943 5.34811C5.79534 5.2984 6.1119 5.06841 6.27225 4.73576L7.90992 1.33836Z" stroke="#8E98A3" stroke-opacity="0.28"/>
</mask>
<g mask="url(#mask0)">
<rect x="-1" y="-1" width="11" height="16" fill="#FF9B00"/>
</g>
</svg>
