<svg width="14" height="14" viewBox="0 0 14 14" fill="none" xmlns="http://www.w3.org/2000/svg">
<path d="M6.45952 1.12125C6.6777 0.66863 7.3223 0.668629 7.54048 1.12125L9.17815 4.51865C9.26561 4.70009 9.43828 4.82555 9.63787 4.85266L13.3751 5.36032C13.8729 5.42795 14.0721 6.04101 13.7091 6.38838L10.984 8.99575C10.8385 9.135 10.7726 9.33799 10.8084 9.53619L11.4805 13.2473C11.57 13.7418 11.0485 14.1206 10.606 13.8827L7.28412 12.0968C7.10672 12.0014 6.89328 12.0014 6.71588 12.0968L3.39404 13.8827C2.95148 14.1206 2.42998 13.7418 2.51951 13.2473L3.19155 9.53619C3.22744 9.33799 3.16149 9.135 3.01595 8.99575L0.290904 6.38838C-0.0721444 6.04101 0.127049 5.42795 0.624941 5.36032L4.36213 4.85266C4.56172 4.82555 4.73439 4.70009 4.82185 4.51865L6.45952 1.12125Z" fill="#FF9B00"/>
</svg>
