<svg width="40" height="40" viewBox="0 0 40 40" fill="none" xmlns="http://www.w3.org/2000/svg">
    <path fill-rule="evenodd" clip-rule="evenodd" d="M17.9091 24.7348C17.5032 25.1094 16.8706 25.0841 16.496 24.6783L13.2652 21.1783C12.9116 20.7953 12.9116 20.2048 13.2652 19.8218L16.496 16.3217C16.8706 15.9159 17.5032 15.8906 17.9091 16.2652C18.3149 16.6398 18.3402 17.2724 17.9656 17.6783L16.284 19.5L26 19.5C26.5523 19.5 27 19.9477 27 20.5C27 21.0523 26.5523 21.5 26 21.5L16.284 21.5L17.9656 23.3217C18.3402 23.7275 18.3149 24.3602 17.9091 24.7348Z" fill="#B0B7C3"/>
    <rect x="39.5" y="39.5" width="39" height="39" rx="19.5" transform="rotate(-180 39.5 39.5)" stroke="#90949B" stroke-opacity="0.3"/>
</svg>