<svg width="64" height="64" viewBox="0 0 64 64" fill="none" xmlns="http://www.w3.org/2000/svg">
    <circle opacity="0.2" cx="32" cy="32" r="32" fill="#8E98A3"/>
    <circle cx="32" cy="32" r="26" fill="white"/>
    <path d="M32 3.19475C32 1.43034 33.4339 -0.0165267 35.1896 0.159332C40.3916 0.680417 45.4043 2.47039 49.7782 5.39297C55.0406 8.90918 59.1421 13.9069 61.5641 19.7541C63.9861 25.6014 64.6199 32.0355 63.3851 38.2429C62.3589 43.4023 60.0801 48.2125 56.7701 52.2594C55.653 53.6252 53.616 53.616 52.3684 52.3684C51.1208 51.1208 51.1392 49.1086 52.2219 47.7154C54.6561 44.5831 56.3388 40.9156 57.1184 36.9964C58.1066 32.0284 57.5994 26.879 55.661 22.1993C53.7226 17.5196 50.4401 13.5198 46.2284 10.7057C42.9058 8.48556 39.1227 7.08209 35.1866 6.5885C33.4359 6.36897 32 4.95917 32 3.19475Z" fill="#6DBD72"/>
    <path d="M19.4116 35.714L24.3616 30.926C24.5056 30.782 24.6556 30.632 24.8116 30.476C24.9676 30.308 25.1056 30.134 25.2256 29.954C25.3576 29.774 25.4656 29.588 25.5496 29.396C25.6336 29.192 25.6756 28.982 25.6756 28.766C25.6756 28.502 25.6216 28.268 25.5136 28.064C25.4176 27.86 25.2856 27.686 25.1176 27.542C24.9496 27.398 24.7516 27.29 24.5236 27.218C24.3076 27.134 24.0736 27.092 23.8216 27.092C23.2816 27.092 22.8376 27.248 22.4896 27.56C22.1416 27.872 21.9316 28.292 21.8596 28.82L19.5916 28.64C19.6396 28.052 19.7776 27.536 20.0056 27.092C20.2456 26.636 20.5516 26.258 20.9236 25.958C21.2956 25.658 21.7276 25.43 22.2196 25.274C22.7116 25.118 23.2456 25.04 23.8216 25.04C24.3976 25.04 24.9316 25.118 25.4236 25.274C25.9276 25.418 26.3656 25.64 26.7376 25.94C27.1096 26.228 27.4036 26.6 27.6196 27.056C27.8356 27.512 27.9436 28.046 27.9436 28.658C27.9436 29.462 27.7576 30.158 27.3856 30.746C27.0256 31.322 26.5576 31.874 25.9816 32.402L22.0396 36.056H27.9436V38H19.4116V35.714ZM30.334 38.864L28.84 38.324L34.456 24.356L35.95 24.932L30.334 38.864ZM42.028 35.408H36.61V33.266L41.74 25.256H44.188V33.464H46.042V35.408H44.188V38H42.028V35.408ZM42.028 28.316H41.992L38.806 33.464H42.028V28.316Z" fill="#11142D"/>
</svg>