<svg width="36" height="36" viewBox="0 0 36 36" fill="none" xmlns="http://www.w3.org/2000/svg">
<path fill-rule="evenodd" clip-rule="evenodd" d="M30.0419 23.5381C31.626 25.0289 32.8879 26.7966 33.7576 28.7426C34.615 30.6545 35.0714 32.6797 35.1175 34.7615C35.12 34.8554 35.0823 34.9463 35.0128 35.0135C34.9434 35.0807 34.8482 35.1186 34.7487 35.1186H31.9827C31.7799 35.1186 31.6185 34.9705 31.6139 34.7789C31.5217 31.4167 30.0926 28.2679 27.5663 25.8812C24.9525 23.4118 21.4811 22.053 17.7839 22.053C14.0867 22.053 10.6154 23.4118 8.00149 25.8812C5.47521 28.2679 4.04611 31.4167 3.95391 34.7789C3.9493 34.9662 3.78795 35.1186 3.58511 35.1186H0.819111C0.71968 35.1186 0.62445 35.0807 0.555015 35.0135C0.48558 34.9463 0.447825 34.8554 0.450311 34.7615C0.492639 32.693 0.954286 30.6513 1.81026 28.747C2.68157 26.8018 3.94335 25.0344 5.52592 23.5425C7.11637 22.0356 8.96959 20.8553 11.0349 20.0322C11.0441 20.0278 11.0533 20.0246 11.0625 20.0213C11.0718 20.018 11.081 20.0148 11.0902 20.0104C8.21816 18.0462 6.35111 14.8538 6.35111 11.2521C6.35111 5.28545 11.4682 0.451172 17.7839 0.451172C24.0996 0.451172 29.2167 5.28545 29.2167 11.2521C29.2167 14.8538 27.3497 18.0462 24.4776 20.006C24.4869 20.0104 24.4961 20.0137 24.5053 20.0169C24.5145 20.0202 24.5237 20.0235 24.533 20.0278C26.5919 20.851 28.4627 22.043 30.0419 23.5381ZM12.168 16.6129C13.6692 18.0258 15.6646 18.804 17.7847 18.804C19.9048 18.804 21.9002 18.0258 23.4014 16.6129C24.9025 15.2001 25.7293 13.3221 25.7293 11.3267C25.7293 9.33127 24.9025 7.45326 23.4014 6.0404C21.9002 4.62754 19.9048 3.84938 17.7847 3.84938C15.6646 3.84938 13.6692 4.62754 12.168 6.0404C10.6669 7.45326 9.84008 9.33127 9.84008 11.3267C9.84008 13.3221 10.6669 15.2001 12.168 16.6129Z" fill="#334D6E"/>
</svg>
