<svg width="48" height="48" viewBox="0 0 48 48" fill="none" xmlns="http://www.w3.org/2000/svg">
<path fill-rule="evenodd" clip-rule="evenodd" d="M40.5635 31.8071C42.6959 33.8139 44.3947 36.1935 45.5654 38.8131C46.7196 41.3869 47.334 44.1131 47.3961 46.9155C47.3994 47.0419 47.3486 47.1642 47.2551 47.2547C47.1616 47.3452 47.0334 47.3963 46.8996 47.3962H43.1761C42.9031 47.3962 42.6859 47.1969 42.6797 46.9389C42.5556 42.4129 40.6318 38.1741 37.231 34.9613C33.7123 31.6371 29.0394 29.8079 24.0624 29.8079C19.0853 29.8079 14.4124 31.6371 10.8937 34.9613C7.49296 38.1741 5.56917 42.4129 5.44506 46.9389C5.43885 47.191 5.22165 47.3962 4.94859 47.3962H1.22513C1.09128 47.3963 0.963089 47.3452 0.869619 47.2547C0.776149 47.1642 0.725325 47.0419 0.728671 46.9155C0.785652 44.1309 1.4071 41.3825 2.55937 38.819C3.73229 36.2005 5.43084 33.8214 7.56122 31.813C9.70221 29.7844 12.1969 28.1956 14.9771 27.0876C14.9895 27.0817 15.0019 27.0773 15.0143 27.0729C15.0268 27.0685 15.0392 27.0641 15.0516 27.0582C11.1854 24.4141 8.67206 20.1167 8.67206 15.2682C8.67206 7.2362 15.5605 0.728516 24.0624 0.728516C32.5643 0.728516 39.4527 7.2362 39.4527 15.2682C39.4527 20.1167 36.9393 24.4141 33.0731 27.0524C33.0856 27.0582 33.098 27.0626 33.1104 27.067C33.1228 27.0714 33.1352 27.0758 33.1476 27.0817C35.9193 28.1898 38.4376 29.7945 40.5635 31.8071ZM16.502 22.487C18.5228 24.3889 21.2089 25.4365 24.0629 25.4365C26.9169 25.4365 29.603 24.3889 31.6238 22.487C33.6446 20.5851 34.7576 18.057 34.7576 15.3709C34.7576 12.6848 33.6446 10.1567 31.6238 8.25474C29.603 6.35281 26.9169 5.30529 24.0629 5.30529C21.2089 5.30529 18.5228 6.35281 16.502 8.25474C14.4812 10.1567 13.3682 12.6848 13.3682 15.3709C13.3682 18.057 14.4812 20.5851 16.502 22.487Z" fill="#8894AA"/>
</svg>
