<svg width="37" height="36" viewBox="0 0 37 36" fill="none" xmlns="http://www.w3.org/2000/svg">
<path d="M19.7871 11.4985V11.5606C20.9883 11.7522 21.909 12.7954 21.909 14.0498C21.909 15.3039 20.9883 16.3471 19.7871 16.5387V16.617H15.8055V27.636L18.9973 30.8281L18.9946 19.7904L19.3929 19.7898C22.5557 19.7876 25.1289 17.2125 25.1289 14.0498C25.1289 10.9132 22.5774 8.3385 19.4413 8.30996L19.3644 8.30948H12.4346L15.6237 11.4985H19.7871Z" fill="#2D3748"/>
<path d="M18.5 2.45377C27.0721 2.45377 34.0462 9.42765 34.0462 17.9999C34.0462 26.5722 27.0721 33.5463 18.5 33.5463C9.92765 33.5463 2.95374 26.5722 2.95374 17.9999C2.95374 9.42765 9.92765 2.45377 18.5 2.45377ZM18.5 36C28.4252 36 36.5 27.9251 36.5 17.9999C36.5 8.07477 28.4252 0 18.5 0C8.57477 0 0.5 8.07477 0.5 17.9999C0.5 27.9251 8.57477 36 18.5 36Z" fill="#2D3748"/>
</svg>
